<?xml version="1.0" encoding="UTF-8" standalone="no"?>
<!-- Created with Inkscape (http://www.inkscape.org/) -->

<svg
   width="105"
   height="105"
   viewBox="0 0 27.781249 27.78125"
   version="1.1"
   id="svg1"
   sodipodi:docname="logo.svg"
   inkscape:version="1.4.2 (ebf0e940d0, 2025-05-08)"
   xmlns:inkscape="http://www.inkscape.org/namespaces/inkscape"
   xmlns:sodipodi="http://sodipodi.sourceforge.net/DTD/sodipodi-0.dtd"
   xmlns="http://www.w3.org/2000/svg"
   xmlns:svg="http://www.w3.org/2000/svg">
  <sodipodi:namedview
     id="namedview1"
     pagecolor="#ffffff"
     bordercolor="#000000"
     borderopacity="0.25"
     inkscape:showpageshadow="2"
     inkscape:pageopacity="0.0"
     inkscape:pagecheckerboard="0"
     inkscape:deskcolor="#d1d1d1"
     inkscape:document-units="mm"
     inkscape:zoom="1.5773402"
     inkscape:cx="29.163018"
     inkscape:cy="31.698933"
     inkscape:window-width="1600"
     inkscape:window-height="828"
     inkscape:window-x="0"
     inkscape:window-y="0"
     inkscape:window-maximized="1"
     inkscape:current-layer="layer1" />
  <defs
     id="defs1">
    <clipPath
       clipPathUnits="userSpaceOnUse"
       id="clipPath3">
      <path
         d="M 0,2437.795 H 11792.126 V 0 H 0 Z"
         transform="translate(-2108.9784,-1218.8982)"
         id="path3" />
    </clipPath>
    <clipPath
       clipPathUnits="userSpaceOnUse"
       id="clipPath5">
      <path
         d="M 0,2437.795 H 11792.126 V 0 H 0 Z"
         transform="translate(-3179.4813,-2283.8504)"
         id="path5" />
    </clipPath>
    <clipPath
       clipPathUnits="userSpaceOnUse"
       id="clipPath7">
      <path
         d="M 0,2437.795 H 11792.126 V 0 H 0 Z"
         transform="translate(-2150.8441,-901.93082)"
         id="path7" />
    </clipPath>
    <clipPath
       clipPathUnits="userSpaceOnUse"
       id="clipPath9">
      <path
         d="M 0,2437.795 H 11792.126 V 0 H 0 Z"
         transform="translate(-2795.4202,-219.38978)"
         id="path9" />
    </clipPath>
    <clipPath
       clipPathUnits="userSpaceOnUse"
       id="clipPath11">
      <path
         d="M 0,2437.795 H 11792.126 V 0 H 0 Z"
         transform="translate(-2811.6091,-213.33218)"
         id="path11" />
    </clipPath>
    <clipPath
       clipPathUnits="userSpaceOnUse"
       id="clipPath13">
      <path
         d="M 0,2437.795 H 11792.126 V 0 H 0 Z"
         transform="translate(-2150.8963,-901.93082)"
         id="path13" />
    </clipPath>
    <clipPath
       clipPathUnits="userSpaceOnUse"
       id="clipPath15">
      <path
         d="M 0,2437.795 H 11792.126 V 0 H 0 Z"
         transform="translate(-2747.2717,-528.75309)"
         id="path15" />
    </clipPath>
    <clipPath
       clipPathUnits="userSpaceOnUse"
       id="clipPath17">
      <path
         d="M 0,2437.795 H 11792.126 V 0 H 0 Z"
         transform="translate(-2403.3376,-1222.6779)"
         id="path17" />
    </clipPath>
    <clipPath
       clipPathUnits="userSpaceOnUse"
       id="clipPath19">
      <path
         d="M 0,2437.795 H 11792.126 V 0 H 0 Z"
         transform="translate(-2540.1073,-1104.1866)"
         id="path19" />
    </clipPath>
    <clipPath
       clipPathUnits="userSpaceOnUse"
       id="clipPath21">
      <path
         d="M 0,2437.795 H 11792.126 V 0 H 0 Z"
         transform="translate(-2150.8963,-901.93082)"
         id="path21" />
    </clipPath>
    <clipPath
       clipPathUnits="userSpaceOnUse"
       id="clipPath23">
      <path
         d="M 0,2437.795 H 11792.126 V 0 H 0 Z"
         transform="translate(-2635.1512,-940.15735)"
         id="path23" />
    </clipPath>
    <clipPath
       clipPathUnits="userSpaceOnUse"
       id="clipPath25">
      <path
         d="M 0,2437.795 H 11792.126 V 0 H 0 Z"
         transform="translate(-2680.2186,-756.23252)"
         id="path25" />
    </clipPath>
    <clipPath
       clipPathUnits="userSpaceOnUse"
       id="clipPath27">
      <path
         d="M 0,2437.795 H 11792.126 V 0 H 0 Z"
         transform="translate(-2711.6038,-582.33219)"
         id="path27" />
    </clipPath>
    <clipPath
       clipPathUnits="userSpaceOnUse"
       id="clipPath29">
      <path
         d="M 0,2437.795 H 11792.126 V 0 H 0 Z"
         transform="translate(-2755.9924,-492.40644)"
         id="path29" />
    </clipPath>
    <clipPath
       clipPathUnits="userSpaceOnUse"
       id="clipPath31">
      <path
         d="M 0,2437.795 H 11792.126 V 0 H 0 Z"
         transform="translate(-2781.5292,-258.24233)"
         id="path31" />
    </clipPath>
    <clipPath
       clipPathUnits="userSpaceOnUse"
       id="clipPath33">
      <path
         d="M 0,2437.795 H 11792.126 V 0 H 0 Z"
         transform="translate(-3468.3045,-643.91222)"
         id="path33" />
    </clipPath>
    <clipPath
       clipPathUnits="userSpaceOnUse"
       id="clipPath35">
      <path
         d="M 0,2437.795 H 11792.126 V 0 H 0 Z"
         transform="translate(-3939.2835,-1281.9825)"
         id="path35" />
    </clipPath>
    <clipPath
       clipPathUnits="userSpaceOnUse"
       id="clipPath37">
      <path
         d="M 0,2437.795 H 11792.126 V 0 H 0 Z"
         transform="translate(-2811.6091,-213.33218)"
         id="path37" />
    </clipPath>
    <clipPath
       clipPathUnits="userSpaceOnUse"
       id="clipPath39">
      <path
         d="M 0,2437.795 H 11792.126 V 0 H 0 Z"
         transform="translate(-3581.1527,-855.45422)"
         id="path39" />
    </clipPath>
    <clipPath
       clipPathUnits="userSpaceOnUse"
       id="clipPath41">
      <path
         d="M 0,2437.795 H 11792.126 V 0 H 0 Z"
         transform="translate(-3567.4706,-431.15049)"
         id="path41" />
    </clipPath>
    <clipPath
       clipPathUnits="userSpaceOnUse"
       id="clipPath43">
      <path
         d="M 0,2437.795 H 11792.126 V 0 H 0 Z"
         transform="translate(-3269.9432,-292.81658)"
         id="path43" />
    </clipPath>
    <clipPath
       clipPathUnits="userSpaceOnUse"
       id="clipPath45">
      <path
         d="M 0,2437.795 H 11792.126 V 0 H 0 Z"
         transform="translate(-3000.9066,-879.1915)"
         id="path45" />
    </clipPath>
    <clipPath
       clipPathUnits="userSpaceOnUse"
       id="clipPath47">
      <path
         d="M 0,2437.795 H 11792.126 V 0 H 0 Z"
         transform="translate(-3432.4427,-1640.946)"
         id="path47" />
    </clipPath>
    <clipPath
       clipPathUnits="userSpaceOnUse"
       id="clipPath49">
      <path
         d="M 0,2437.795 H 11792.126 V 0 H 0 Z"
         transform="translate(-3529.3802,-2118.3153)"
         id="path49" />
    </clipPath>
    <clipPath
       clipPathUnits="userSpaceOnUse"
       id="clipPath51">
      <path
         d="M 0,2437.795 H 11792.126 V 0 H 0 Z"
         transform="translate(-3422.0697,-1894.4298)"
         id="path51" />
    </clipPath>
    <clipPath
       clipPathUnits="userSpaceOnUse"
       id="clipPath53">
      <path
         d="M 0,2437.795 H 11792.126 V 0 H 0 Z"
         transform="translate(-3512.4833,-1986.8146)"
         id="path53" />
    </clipPath>
    <clipPath
       clipPathUnits="userSpaceOnUse"
       id="clipPath55">
      <path
         d="M 0,2437.795 H 11792.126 V 0 H 0 Z"
         transform="translate(-2887.7577,-1527.0226)"
         id="path55" />
    </clipPath>
    <clipPath
       clipPathUnits="userSpaceOnUse"
       id="clipPath57">
      <path
         d="M 0,2437.795 H 11792.126 V 0 H 0 Z"
         transform="translate(-2674.9833,-1924.8459)"
         id="path57" />
    </clipPath>
    <clipPath
       clipPathUnits="userSpaceOnUse"
       id="clipPath59">
      <path
         d="M 0,2437.795 H 11792.126 V 0 H 0 Z"
         transform="translate(-2737.785,-1679.6227)"
         id="path59" />
    </clipPath>
    <clipPath
       clipPathUnits="userSpaceOnUse"
       id="clipPath61">
      <path
         d="M 0,2437.795 H 11792.126 V 0 H 0 Z"
         transform="translate(-2709.1317,-1806.733)"
         id="path61" />
    </clipPath>
    <clipPath
       clipPathUnits="userSpaceOnUse"
       id="clipPath63">
      <path
         d="M 0,2437.795 H 11792.126 V 0 H 0 Z"
         transform="translate(-2621.3788,-1337.8522)"
         id="path63" />
    </clipPath>
    <clipPath
       clipPathUnits="userSpaceOnUse"
       id="clipPath65">
      <path
         d="M 0,2437.795 H 11792.126 V 0 H 0 Z"
         transform="translate(-3163.807,-974.13985)"
         id="path65" />
    </clipPath>
    <clipPath
       clipPathUnits="userSpaceOnUse"
       id="clipPath67">
      <path
         d="M 0,2437.795 H 11792.126 V 0 H 0 Z"
         transform="translate(-3337.2215,-1955.6682)"
         id="path67" />
    </clipPath>
    <clipPath
       clipPathUnits="userSpaceOnUse"
       id="clipPath69">
      <path
         d="M 0,2437.795 H 11792.126 V 0 H 0 Z"
         transform="translate(-2800.7259,-1149.9768)"
         id="path69" />
    </clipPath>
    <clipPath
       clipPathUnits="userSpaceOnUse"
       id="clipPath71">
      <path
         d="M 0,2437.795 H 11792.126 V 0 H 0 Z"
         transform="translate(-3940.5521,-1503.4533)"
         id="path71" />
    </clipPath>
    <clipPath
       clipPathUnits="userSpaceOnUse"
       id="clipPath73">
      <path
         d="M 0,2437.795 H 11792.126 V 0 H 0 Z"
         transform="translate(-3184.4818,-1348.1193)"
         id="path73" />
    </clipPath>
    <clipPath
       clipPathUnits="userSpaceOnUse"
       id="clipPath75">
      <path
         d="M 0,2437.795 H 11792.126 V 0 H 0 Z"
         transform="translate(-3630.7655,-1834.7701)"
         id="path75" />
    </clipPath>
    <clipPath
       clipPathUnits="userSpaceOnUse"
       id="clipPath77">
      <path
         d="M 0,2437.795 H 11792.126 V 0 H 0 Z"
         transform="translate(-2841.5794,-1462.0749)"
         id="path77" />
    </clipPath>
    <clipPath
       clipPathUnits="userSpaceOnUse"
       id="clipPath79">
      <path
         d="M 0,2437.795 H 11792.126 V 0 H 0 Z"
         transform="translate(-2871.2308,-1450.1544)"
         id="path79" />
    </clipPath>
    <clipPath
       clipPathUnits="userSpaceOnUse"
       id="clipPath81">
      <path
         d="M 0,2437.795 H 11792.126 V 0 H 0 Z"
         transform="translate(-2897.1654,-1443.5802)"
         id="path81" />
    </clipPath>
    <clipPath
       clipPathUnits="userSpaceOnUse"
       id="clipPath83">
      <path
         d="M 0,2437.795 H 11792.126 V 0 H 0 Z"
         transform="translate(-3553.8075,-1639.8069)"
         id="path83" />
    </clipPath>
    <clipPath
       clipPathUnits="userSpaceOnUse"
       id="clipPath85">
      <path
         d="M 0,2437.795 H 11792.126 V 0 H 0 Z"
         transform="translate(-3583.4598,-1618.8054)"
         id="path85" />
    </clipPath>
    <clipPath
       clipPathUnits="userSpaceOnUse"
       id="clipPath87">
      <path
         d="M 0,2437.795 H 11792.126 V 0 H 0 Z"
         transform="translate(-3609.3934,-1612.2316)"
         id="path87" />
    </clipPath>
    <clipPath
       clipPathUnits="userSpaceOnUse"
       id="clipPath89">
      <path
         d="M 0,2437.795 H 11792.126 V 0 H 0 Z"
         transform="translate(-3099.6341,-1440.6174)"
         id="path89" />
    </clipPath>
    <clipPath
       clipPathUnits="userSpaceOnUse"
       id="clipPath91">
      <path
         d="M 0,2437.795 H 11792.126 V 0 H 0 Z"
         transform="translate(-3220.3548,-1184.0841)"
         id="path91" />
    </clipPath>
    <clipPath
       clipPathUnits="userSpaceOnUse"
       id="clipPath93">
      <path
         d="M 0,2437.795 H 11792.126 V 0 H 0 Z"
         transform="translate(-3640.3397,-1445.2579)"
         id="path93" />
    </clipPath>
    <clipPath
       clipPathUnits="userSpaceOnUse"
       id="clipPath95">
      <path
         d="M 0,2437.795 H 11792.126 V 0 H 0 Z"
         transform="translate(-3605.0277,-1398.4918)"
         id="path95" />
    </clipPath>
    <clipPath
       clipPathUnits="userSpaceOnUse"
       id="clipPath97">
      <path
         d="M 0,2437.795 H 11792.126 V 0 H 0 Z"
         transform="translate(-3224.5072,-1485.4069)"
         id="path97" />
    </clipPath>
    <clipPath
       clipPathUnits="userSpaceOnUse"
       id="clipPath99">
      <path
         d="M 0,2437.795 H 11792.126 V 0 H 0 Z"
         transform="translate(-3028.9847,-1433.6071)"
         id="path99" />
    </clipPath>
    <clipPath
       clipPathUnits="userSpaceOnUse"
       id="clipPath101">
      <path
         d="M 0,2437.795 H 11792.126 V 0 H 0 Z"
         transform="translate(-3260.5047,-1173.9612)"
         id="path101" />
    </clipPath>
    <clipPath
       clipPathUnits="userSpaceOnUse"
       id="clipPath103">
      <path
         d="M 0,2437.795 H 11792.126 V 0 H 0 Z"
         transform="translate(-3235.0487,-1604.8864)"
         id="path103" />
    </clipPath>
    <clipPath
       clipPathUnits="userSpaceOnUse"
       id="clipPath105">
      <path
         d="M 0,2437.795 H 11792.126 V 0 H 0 Z"
         transform="translate(-3257.9466,-1610.7721)"
         id="path105" />
    </clipPath>
    <clipPath
       clipPathUnits="userSpaceOnUse"
       id="clipPath107">
      <path
         d="M 0,2437.795 H 11792.126 V 0 H 0 Z"
         transform="translate(-3179.4813,-2282.7401)"
         id="path107" />
    </clipPath>
  </defs>
  <g
     inkscape:label="Шар 1"
     inkscape:groupmode="layer"
     id="layer1">
    <g
       id="g1">
      <path
         id="path2"
         d="m 0,0 c 0,591.223 479.281,1070.504 1070.503,1070.504 591.224,0 1070.505,-479.281 1070.505,-1070.504 0,-591.223 -479.281,-1070.503 -1070.505,-1070.503 C 479.281,-1070.503 0,-591.223 0,0"
         style="fill:#f7a70f;fill-opacity:1;fill-rule:nonzero;stroke:none"
         transform="matrix(0.01289555,0,0,-0.01289555,0.08589241,13.890624)"
         clip-path="url(#clipPath3)" />
      <path
         id="path4"
         d="m 0,0 c -587.217,0 -1064.952,-477.736 -1064.952,-1064.953 0,-587.217 477.735,-1064.953 1064.952,-1064.953 587.216,0 1064.954,477.736 1064.954,1064.953 C 1064.954,-477.736 587.216,0 0,0 m 0,-2141.007 c -593.339,0 -1076.054,482.716 -1076.054,1076.054 0,593.338 482.715,1076.056 1076.054,1076.056 593.339,0 1076.056,-482.718 1076.056,-1076.056 0,-593.338 -482.717,-1076.054 -1076.056,-1076.054"
         style="fill:#0e060c;fill-opacity:1;fill-rule:nonzero;stroke:none"
         transform="matrix(0.01289555,0,0,-0.01289555,13.890613,0.15748327)"
         clip-path="url(#clipPath5)" />
      <path
         id="path6"
         d="m 0,0 h 0.052 c 0,-0.471 0,-0.939 0.052,-1.41 C 0.052,-0.939 0,-0.471 0,0"
         style="fill:#dad0e8;fill-opacity:1;fill-rule:nonzero;stroke:none"
         transform="matrix(0.01289555,0,0,-0.01289555,0.62577317,17.978091)"
         clip-path="url(#clipPath7)" />
      <path
         id="path8"
         d="m 0,0 c -5.065,1.932 -10.079,3.864 -15.04,5.9 -13.473,5.379 -26.79,11.072 -39.95,17.077 h -0.052 c -37.025,16.606 -72.902,35.302 -107.525,55.929 -31.02,18.435 -60.943,38.384 -89.822,59.743 -31.385,23.291 -61.517,48.202 -90.135,74.729 -24.022,22.143 -47,45.433 -68.933,69.769 -23.396,25.955 -45.538,53.11 -66.374,81.309 -16.032,21.726 -31.281,44.129 -45.694,67.106 h -0.053 c -18.904,30.184 -36.399,61.413 -52.274,93.581 -12.585,25.329 -24.127,51.178 -34.675,77.602 v 0.053 c -10.288,25.745 -19.583,51.856 -27.887,78.542 v 0.053 c -2.141,0.312 -4.177,0.73 -6.11,1.148 -0.574,7.938 -0.94,15.771 -1.201,23.5 -0.522,14.988 -0.574,29.661 -0.156,43.971 0.156,6.527 0.469,12.951 0.835,19.323 0.052,1.408 0.157,2.871 0.261,4.281 0.575,9.191 1.306,18.173 2.298,26.947 0.209,2.193 0.47,4.386 0.731,6.528 0.731,6.371 1.619,12.638 2.559,18.747 0.47,3.185 0.992,6.318 1.514,9.452 h 0.053 c 5.588,32.848 13.838,62.457 24.231,87.995 0.104,0.26 0.209,0.573 0.365,0.835 1.097,2.716 2.245,5.379 3.394,7.99 0.68,1.566 1.358,3.08 2.089,4.595 0.679,1.566 1.41,3.082 2.141,4.544 0.732,1.515 1.463,2.976 2.194,4.438 2.193,4.387 4.491,8.565 6.841,12.638 0.783,1.359 1.566,2.717 2.402,4.022 0.993,1.671 2.037,3.341 3.134,5.013 0.94,1.462 1.88,2.925 2.819,4.335 1.358,1.932 2.716,3.863 4.126,5.743 0.626,0.94 1.358,1.932 2.037,2.821 0.627,0.783 1.201,1.514 1.775,2.245 3.969,5.118 8.147,9.818 12.481,14.1 0.731,0.731 1.462,1.462 2.194,2.194 0.731,0.73 1.514,1.41 2.245,2.088 1.358,1.253 2.716,2.454 4.125,3.603 1.306,1.15 2.664,2.247 4.022,3.239 1.253,0.991 2.558,1.931 3.812,2.819 2.872,2.036 5.745,3.917 8.669,5.536 1.305,0.731 2.611,1.462 3.969,2.141 1.096,0.574 2.141,1.097 3.237,1.568 2.141,0.991 4.335,1.931 6.528,2.715 1.097,0.417 2.194,0.783 3.29,1.148 3.029,0.992 6.11,1.827 9.243,2.559 1.567,0.365 3.134,0.731 4.753,0.993 0.94,0.208 1.88,0.365 2.82,0.468 1.305,0.262 2.663,0.471 4.021,0.628 1.305,0.156 2.663,0.365 3.968,0.522 1.829,0.156 3.708,0.314 5.588,0.418 1.149,0.104 2.246,0.156 3.395,0.156 4.648,0.209 9.347,0.157 14.152,-0.209 0.992,-0.051 1.985,-0.105 3.029,-0.209 0.731,0 1.462,-0.051 2.193,-0.208 1.88,-0.157 3.812,-0.365 5.744,-0.627 1.254,-0.104 2.455,-0.261 3.708,-0.521 3.134,-0.418 6.267,-0.994 9.4,-1.672 1.88,-0.366 3.708,-0.785 5.588,-1.253 0.836,-0.209 1.671,-0.419 2.507,-0.627 1.619,-0.365 3.185,-0.783 4.804,-1.254 3.969,-1.096 7.99,-2.298 11.959,-3.708 3.603,-1.201 7.206,-2.558 10.862,-4.021 1.776,-0.678 3.551,-1.41 5.275,-2.193 1.827,-0.73 3.707,-1.514 5.535,-2.402 1.828,-0.836 3.655,-1.671 5.536,-2.558 1.827,-0.889 3.655,-1.776 5.535,-2.716 1.253,-0.627 2.559,-1.253 3.812,-1.933 v -0.052 c 22.821,-11.907 45.903,-27.729 68.568,-47.157 2.924,-2.506 5.848,-5.065 8.773,-7.728 2.925,-2.612 5.797,-5.327 8.721,-8.043 2.298,-2.193 4.648,-4.438 6.946,-6.736 1.775,-1.775 3.603,-3.603 5.379,-5.43 2.35,-2.35 4.647,-4.702 6.893,-7.104 1.932,-1.983 3.812,-4.02 5.64,-6.057 2.455,-2.611 4.804,-5.274 7.206,-7.99 0.784,-0.887 1.62,-1.828 2.403,-2.768 2.454,-2.768 4.856,-5.587 7.259,-8.459 1.462,-1.724 2.924,-3.499 4.386,-5.327 1.567,-1.88 3.081,-3.761 4.596,-5.64 17.442,-21.934 34.101,-46.061 49.559,-72.224 4.177,-7.049 8.251,-14.257 12.219,-21.619 6.006,-11.019 11.75,-22.351 17.286,-33.997 1.305,-2.768 2.611,-5.588 3.916,-8.408 4.126,-8.982 8.147,-18.121 11.959,-27.469 0,-0.104 0.053,-0.209 0.105,-0.312 12.585,-30.707 21.567,-60.108 28.304,-88.465 0.261,-1.097 0.522,-2.194 0.783,-3.289 0.993,-4.492 2.037,-8.878 2.977,-13.265 0.104,-0.366 0.209,-0.73 0.261,-1.148 0.523,-2.664 1.097,-5.328 1.619,-7.991 1.201,-6.057 2.298,-12.063 3.394,-18.016 0.523,-2.978 1.045,-5.902 1.515,-8.878 0.679,-4.125 1.358,-8.198 1.984,-12.273 0.053,-0.522 0.157,-1.044 0.262,-1.619 0.469,-3.551 0.992,-7.049 1.514,-10.549 0.104,-0.677 0.156,-1.305 0.313,-1.931 4.909,-34.729 8.356,-68.045 13.265,-100.632 0.365,-2.559 0.783,-5.117 1.201,-7.677 0.365,-2.297 0.731,-4.596 1.148,-6.841 0.836,-5.17 1.776,-10.34 2.769,-15.458 0.313,-1.932 0.731,-3.811 1.096,-5.744 0.627,-3.185 1.305,-6.319 1.985,-9.504 0.835,-3.708 1.671,-7.468 2.61,-11.176 1.776,-7.467 3.761,-14.884 6.006,-22.299 1.097,-3.656 2.246,-7.363 3.447,-11.071 0,0 -0.053,0 -0.053,-0.051 6.842,-20.733 15.511,-41.464 26.895,-62.198 0.052,0 0.052,0.053 0.052,0.053 1.984,-3.446 4.282,-7.207 6.841,-11.227 0.261,3.131 0.522,6.265 0.888,9.452 3.238,-5.641 6.684,-11.333 10.392,-17.025 v -0.052 c -0.261,-2.977 -0.47,-5.902 -0.627,-8.877 -0.051,-0.262 -0.051,-0.576 -0.051,-0.836 -1.254,-19.218 -1.724,-38.28 -1.515,-57.027 0.47,-30.81 2.924,-60.838 7.363,-89.822 4.544,-30.079 11.175,-59.011 19.74,-86.479 C -9.713,25.536 -5.118,12.585 0,0"
         style="fill:#dad0e8;fill-opacity:1;fill-rule:nonzero;stroke:none"
         transform="matrix(0.01289555,0,0,-0.01289555,8.9379353,26.77983)"
         clip-path="url(#clipPath9)" />
      <path
         id="path10"
         d="M 0,0 C -5.431,1.932 -10.81,3.969 -16.189,6.058 Z"
         style="fill:#dad0e8;fill-opacity:1;fill-rule:nonzero;stroke:none"
         transform="matrix(0.01289555,0,0,-0.01289555,9.1467,26.857946)"
         clip-path="url(#clipPath11)" />
      <path
         id="path12"
         d="M 0,0 H -0.052 C -0.052,-0.471 0,-0.939 0.052,-1.41 0,-0.939 0,-0.471 0,0 m 252.441,320.695 v 0.052 c -1.253,0.68 -2.559,1.306 -3.812,1.933 1.253,-0.627 2.559,-1.305 3.812,-1.985 M 560.655,-319.65 c 0,0.051 0.053,0.051 0.053,0.051 -1.201,3.708 -2.35,7.415 -3.447,11.071 1.045,-3.707 2.194,-7.415 3.394,-11.122 m 35.72,-53.528 c -0.365,-3.499 -0.731,-6.946 -1.044,-10.392 -0.366,-3.187 -0.627,-6.321 -0.888,-9.452 -2.559,4.02 -4.857,7.781 -6.841,11.227 0,0 0,-0.053 -0.052,-0.053 2.193,-3.917 4.491,-7.884 6.841,-11.8 3.342,-5.537 6.893,-11.124 10.653,-16.712 0,0.26 0,0.574 0.052,0.836 0.157,2.975 0.366,5.9 0.627,8.877 v 0.052 c 0.261,3.289 0.522,6.528 0.836,9.818 -3.656,5.849 -6.998,11.75 -10.184,17.599"
         style="fill:#13000e;fill-opacity:1;fill-rule:nonzero;stroke:none"
         transform="matrix(0.01289555,0,0,-0.01289555,0.62644632,17.978091)"
         clip-path="url(#clipPath13)" />
      <path
         id="path14"
         d="m 0,0 c -0.366,-3.499 -0.731,-6.946 -1.044,-10.393 -0.366,-3.186 -0.627,-6.32 -0.889,-9.452 -2.558,4.021 -4.856,7.782 -6.84,11.228 0,0 0,-0.053 -0.053,-0.053 -11.384,20.733 -20.053,41.465 -26.894,62.197 0,0.052 0.052,0.052 0.052,0.052 -1.201,3.708 -2.35,7.415 -3.446,11.07 -2.246,7.415 -4.23,14.832 -6.006,22.299 -0.94,3.708 -1.776,7.469 -2.611,11.177 -0.679,3.185 -1.358,6.318 -1.984,9.504 -0.366,1.933 -0.784,3.811 -1.097,5.744 -0.992,5.118 -1.932,10.288 -2.768,15.458 -0.418,2.245 -0.783,4.544 -1.149,6.841 -0.417,2.559 -0.835,5.118 -1.201,7.677 -4.909,32.587 -8.356,65.903 -13.264,100.631 -0.157,0.626 -0.209,1.254 -0.314,1.932 -0.522,3.5 -1.044,6.998 -1.514,10.549 -0.104,0.575 -0.209,1.097 -0.261,1.619 -0.627,4.074 -1.306,8.148 -1.985,12.273 -0.47,2.976 -0.992,5.9 -1.514,8.877 -1.097,5.954 -2.194,11.959 -3.394,18.017 -0.523,2.663 -1.097,5.327 -1.619,7.99 -0.053,0.418 -0.157,0.783 -0.262,1.149 -0.94,4.386 -1.984,8.773 -2.976,13.264 -0.261,1.096 -0.522,2.193 -0.783,3.289 -6.737,28.358 -15.719,57.758 -28.305,88.465 -0.052,0.104 -0.104,0.208 -0.104,0.313 -3.813,9.347 -7.834,18.487 -11.959,27.469 -1.306,2.82 -2.611,5.64 -3.917,8.408 -5.535,11.645 -11.28,22.977 -17.285,33.997 -3.969,7.362 -8.042,14.57 -12.22,21.619 -15.458,26.163 -32.117,50.29 -49.559,72.224 -1.514,1.878 -3.029,3.759 -4.595,5.639 -1.41,1.776 -2.925,3.552 -4.387,5.327 -2.402,2.872 -4.804,5.692 -7.259,8.459 -0.783,0.941 -1.567,1.881 -2.402,2.769 -2.402,2.716 -4.752,5.379 -7.207,7.99 -1.88,2.036 -3.76,4.073 -5.64,6.057 -2.245,2.402 -4.543,4.754 -6.893,7.103 -1.775,1.827 -3.551,3.656 -5.379,5.431 -2.298,2.298 -4.648,4.543 -6.946,6.735 -2.924,2.769 -5.796,5.432 -8.72,8.043 -2.925,2.663 -5.849,5.223 -8.774,7.729 -22.664,19.428 -45.746,35.25 -68.567,47.157 v 0.052 c -1.253,0.679 -2.559,1.305 -3.813,1.932 -1.827,0.94 -3.707,1.88 -5.535,2.716 -1.828,0.888 -3.708,1.775 -5.535,2.559 -1.829,0.888 -3.708,1.672 -5.536,2.402 -1.775,0.783 -3.551,1.515 -5.274,2.193 -3.656,1.462 -7.259,2.82 -10.863,4.021 -3.968,1.41 -7.989,2.611 -11.958,3.708 -1.619,0.47 -3.186,0.889 -4.805,1.253 -0.835,0.261 -1.671,0.418 -2.507,0.627 -1.88,0.469 -3.707,0.888 -5.587,1.254 -3.133,0.678 -6.267,1.253 -9.4,1.671 -1.201,0.209 -2.455,0.365 -3.708,0.522 -1.932,0.261 -3.812,0.47 -5.744,0.627 -0.732,0.157 -1.463,0.208 -2.194,0.208 -1.044,0.104 -2.036,0.158 -3.028,0.209 -4.805,0.365 -9.505,0.418 -14.153,0.209 -1.149,0 -2.298,-0.104 -3.394,-0.157 -1.88,-0.103 -3.76,-0.261 -5.588,-0.417 -1.305,-0.157 -2.663,-0.314 -3.969,-0.523 -1.358,-0.156 -2.715,-0.365 -4.021,-0.627 -0.94,-0.104 -1.88,-0.26 -2.82,-0.469 -1.619,-0.261 -3.185,-0.627 -4.752,-0.992 -3.133,-0.732 -6.215,-1.567 -9.243,-2.559 -1.097,-0.366 -2.194,-0.731 -3.29,-1.148 -2.194,-0.785 -4.387,-1.724 -6.528,-2.716 -1.097,-0.47 -2.141,-0.993 -3.238,-1.567 -1.306,-0.679 -2.663,-1.358 -3.969,-2.141 -2.924,-1.619 -5.797,-3.5 -8.669,-5.536 -1.253,-0.888 -2.558,-1.828 -3.812,-2.82 -1.358,-0.991 -2.716,-2.088 -4.021,-3.238 -1.41,-1.149 -2.768,-2.35 -4.126,-3.604 -0.731,-0.677 -1.514,-1.357 -2.245,-2.087 -0.731,-0.732 -1.462,-1.411 -2.193,-2.195 -4.335,-4.281 -8.512,-8.982 -12.482,-14.099 -0.574,-0.731 -1.148,-1.462 -1.775,-2.245 -0.679,-0.889 -1.41,-1.881 -2.037,-2.821 -1.41,-1.881 -2.767,-3.76 -4.125,-5.743 -0.94,-1.41 -1.88,-2.873 -2.82,-4.335 -1.097,-1.619 -2.141,-3.291 -3.134,-5.014 -0.835,-1.304 -1.618,-2.663 -2.402,-4.021 -2.35,-4.073 -4.648,-8.251 -6.841,-12.638 -0.783,-1.463 -1.514,-2.924 -2.193,-4.438 -0.731,-1.462 -1.462,-2.978 -2.141,-4.544 -0.731,-1.515 -1.41,-3.03 -2.089,-4.595 -1.149,-2.611 -2.298,-5.274 -3.394,-7.99 -0.157,-0.262 -0.261,-0.575 -0.366,-0.835 -10.392,-25.538 -18.643,-55.148 -24.231,-87.995 h -0.052 c -0.575,-3.134 -1.045,-6.267 -1.515,-9.452 -0.94,-6.11 -1.827,-12.376 -2.558,-18.747 -0.262,-2.142 -0.523,-4.335 -0.732,-6.528 -0.992,-8.774 -1.723,-17.757 -2.298,-26.947 -0.104,-1.41 -0.208,-2.873 -0.26,-4.281 -0.366,-6.372 -0.68,-12.796 -0.836,-19.324 -0.418,-14.309 -0.366,-28.982 0.156,-43.97 -2.193,7.728 -4.334,15.457 -6.37,23.291 v 0.052 c -1.933,7.467 -3.813,15.041 -5.588,22.612 2.089,68.463 14.152,130.922 35.302,180.687 23.291,54.782 55.564,90.136 93.216,102.252 13.265,4.282 27.625,6.475 42.561,6.475 56.504,0 121.207,-30.653 182.098,-86.271 63.868,-58.332 117.5,-137.709 155.099,-229.567 C -68.411,336.048 -59.69,266.123 -51.282,198.443 -42.561,128.518 -34.624,64.441 0,0"
         style="fill:#0e060c;fill-opacity:1;fill-rule:nonzero;stroke:none"
         transform="matrix(0.01289555,0,0,-0.01289555,8.3170341,22.790421)"
         clip-path="url(#clipPath15)" />
      <path
         id="path16"
         d="m 0,0 v -0.052 c -33.475,-61.987 -175.727,-95.88 -221.317,-79.951 0.105,0.26 0.209,0.573 0.366,0.835 1.097,2.716 2.245,5.379 3.394,7.99 0.679,1.566 1.358,3.08 2.089,4.595 0.679,1.566 1.41,3.082 2.141,4.544 0.731,1.515 1.462,2.976 2.193,4.438 2.194,4.387 4.491,8.565 6.842,12.638 0.783,1.359 1.566,2.717 2.401,4.022 0.993,1.67 2.037,3.341 3.134,5.013 0.94,1.462 1.88,2.925 2.82,4.335 1.358,1.932 2.715,3.863 4.125,5.743 0.627,0.94 1.358,1.932 2.037,2.821 0.627,0.783 1.201,1.514 1.775,2.245 3.97,5.117 8.147,9.818 12.482,14.099 0.731,0.732 1.462,1.463 2.193,2.195 0.731,0.73 1.514,1.41 2.245,2.088 1.358,1.253 2.716,2.454 4.126,3.603 1.306,1.15 2.663,2.247 4.021,3.238 1.254,0.992 2.559,1.932 3.812,2.82 2.872,2.036 5.745,3.917 8.669,5.536 1.306,0.731 2.611,1.462 3.969,2.141 1.097,0.574 2.141,1.097 3.238,1.567 2.141,0.992 4.334,1.879 6.528,2.716 1.096,0.417 2.193,0.782 3.29,1.148 3.029,0.992 6.11,1.827 9.243,2.559 1.567,0.365 3.133,0.731 4.752,0.992 0.94,0.209 1.88,0.366 2.82,0.469 1.306,0.262 2.663,0.471 4.021,0.628 1.306,0.156 2.664,0.365 3.969,0.522 1.828,0.156 3.708,0.314 5.588,0.418 1.149,0.104 2.245,0.156 3.394,0.156 4.648,0.209 9.348,0.157 14.153,-0.209 0.992,-0.051 1.984,-0.105 3.029,-0.209 0.73,0 1.461,-0.051 2.193,-0.208 1.88,-0.157 3.812,-0.365 5.744,-0.627 1.253,-0.105 2.455,-0.261 3.708,-0.522 3.133,-0.418 6.267,-0.993 9.4,-1.671 1.88,-0.366 3.707,-0.785 5.587,-1.253 0.836,-0.209 1.672,-0.419 2.507,-0.627 1.619,-0.365 3.186,-0.784 4.805,-1.254 3.969,-1.096 7.937,-2.35 11.958,-3.708 3.604,-1.201 7.207,-2.558 10.863,-4.021 1.775,-0.678 3.551,-1.41 5.274,-2.193 1.828,-0.73 3.708,-1.514 5.536,-2.402 1.827,-0.836 3.655,-1.671 5.535,-2.559 C -7.52,3.76 -5.692,2.873 -3.813,1.933 -2.559,1.306 -1.253,0.68 0,0"
         style="fill:#9269aa;fill-opacity:1;fill-rule:nonzero;stroke:none"
         transform="matrix(0.01289555,0,0,-0.01289555,3.8818159,13.841881)"
         clip-path="url(#clipPath17)" />
      <path
         id="path18"
         d="m 0,0 c -66.74,-109.666 -259.961,-156.301 -390.568,-134.785 0.156,6.527 0.469,12.951 0.835,19.323 0.052,1.408 0.157,2.871 0.261,4.281 0.575,9.191 1.305,18.173 2.298,26.948 0.209,2.192 0.47,4.385 0.731,6.527 0.731,6.371 1.619,12.638 2.559,18.747 0.47,3.186 0.992,6.318 1.514,9.452 h 0.053 c 74.155,-17.808 259.647,32.221 314.115,120.789 2.924,-2.506 5.848,-5.065 8.773,-7.728 2.925,-2.612 5.797,-5.326 8.721,-8.043 2.298,-2.193 4.648,-4.438 6.946,-6.736 1.775,-1.775 3.603,-3.603 5.379,-5.43 2.35,-2.35 4.647,-4.701 6.893,-7.104 1.932,-1.983 3.812,-4.02 5.64,-6.056 2.454,-2.612 4.804,-5.275 7.206,-7.991 0.784,-0.887 1.62,-1.828 2.403,-2.768 2.454,-2.768 4.856,-5.587 7.259,-8.459 C -7.52,9.243 -6.058,7.468 -4.596,5.64 -3.029,3.76 -1.515,1.879 0,0"
         style="fill:#9269aa;fill-opacity:1;fill-rule:nonzero;stroke:none"
         transform="matrix(0.01289555,0,0,-0.01289555,5.6455349,15.369892)"
         clip-path="url(#clipPath19)" />
      <path
         id="path20"
         d="M 0,0 C 0,-0.471 0,-0.939 0.052,-1.41 0,-0.939 -0.052,-0.471 -0.052,0 Z"
         style="fill:#9269aa;fill-opacity:1;fill-rule:nonzero;stroke:none"
         transform="matrix(0.01289555,0,0,-0.01289555,0.62644632,17.978091)"
         clip-path="url(#clipPath21)" />
      <path
         id="path22"
         d="m 0,0 c -58.175,-94.992 -301.112,-155.412 -450.258,-118.022 v 0.052 c -10.288,25.745 -19.583,51.857 -27.887,78.542 81.728,-14.204 333.437,-2.715 432.66,131.234 4.177,-7.049 8.251,-14.257 12.219,-21.619 6.006,-11.02 11.75,-22.352 17.286,-33.998 1.305,-2.767 2.611,-5.587 3.917,-8.408 C -7.938,18.8 -3.917,9.66 -0.104,0.312 -0.104,0.208 -0.052,0.104 0,0"
         style="fill:#9269aa;fill-opacity:1;fill-rule:nonzero;stroke:none"
         transform="matrix(0.01289555,0,0,-0.01289555,6.871178,17.485139)"
         clip-path="url(#clipPath23)" />
      <path
         id="path24"
         d="m 0,0 c -75.252,-84.183 -280.798,-122.722 -408.324,-105.281 h -0.052 c -18.904,30.184 -36.399,61.413 -52.274,93.581 174.108,-41.463 422.789,60.317 443.887,107.16 0.261,-1.097 0.522,-2.193 0.783,-3.289 0.992,-4.491 2.037,-8.878 2.977,-13.265 0.104,-0.366 0.209,-0.73 0.261,-1.148 0.522,-2.663 1.096,-5.327 1.619,-7.99 1.201,-6.058 2.297,-12.064 3.394,-18.017 0.522,-2.978 1.044,-5.901 1.515,-8.878 0.678,-4.125 1.358,-8.198 1.984,-12.272 0.052,-0.523 0.157,-1.044 0.261,-1.62 0.47,-3.55 0.992,-7.048 1.514,-10.548 0.105,-0.678 0.157,-1.306 0.314,-1.932 C -1.358,10.86 -0.679,5.326 0,0"
         style="fill:#9269aa;fill-opacity:1;fill-rule:nonzero;stroke:none"
         transform="matrix(0.01289555,0,0,-0.01289555,7.4523471,19.85695)"
         clip-path="url(#clipPath25)" />
      <path
         id="path26"
         d="m 0,0 c 0,0 -0.052,0 -0.052,-0.052 -91.806,-67.575 -228.889,-82.877 -327.589,-79.743 -23.395,25.954 -45.537,53.109 -66.374,81.309 97.969,-10.704 251.815,-3.498 373.753,88.256 0.366,-2.559 0.783,-5.118 1.201,-7.677 0.366,-2.297 0.731,-4.596 1.149,-6.841 0.836,-5.17 1.776,-10.34 2.768,-15.458 0.313,-1.933 0.731,-3.812 1.097,-5.744 0.626,-3.186 1.305,-6.32 1.984,-9.504 0.835,-3.708 1.671,-7.469 2.611,-11.177 1.776,-7.467 3.76,-14.884 6.006,-22.299 C -2.35,7.415 -1.201,3.708 0,0"
         style="fill:#9269aa;fill-opacity:1;fill-rule:nonzero;stroke:none"
         transform="matrix(0.01289555,0,0,-0.01289555,7.857077,22.09949)"
         clip-path="url(#clipPath27)" />
      <path
         id="path28"
         d="m 0,0 c -0.052,-0.262 -0.052,-0.575 -0.052,-0.836 -1.253,-19.218 -1.723,-38.279 -1.514,-57.026 -3.708,-3.082 -7.625,-6.11 -11.646,-8.983 v -0.051 c -49.559,-35.826 -124.132,-59.482 -199.749,-67.471 -31.386,23.291 -61.518,48.201 -90.135,74.728 116.925,5.694 253.851,39.376 285.55,87.316 0.052,0 0.052,0.052 0.052,0.052 1.984,-3.446 4.282,-7.207 6.841,-11.227 V 16.449 C -7.415,11.228 -3.812,5.639 0,0"
         style="fill:#9269aa;fill-opacity:1;fill-rule:nonzero;stroke:none"
         transform="matrix(0.01289555,0,0,-0.01289555,8.4294923,23.259131)"
         clip-path="url(#clipPath29)" />
      <path
         id="path30"
         d="m 0,0 c -3.603,-1.619 -7.207,-3.186 -10.914,-4.701 -9.661,-3.967 -19.74,-7.729 -30.185,-11.175 h -0.052 c -37.025,16.606 -72.902,35.303 -107.525,55.93 43.71,9.662 84.077,24.597 117.76,40.839 3.813,1.878 7.573,3.758 11.176,5.586 C -15.196,56.4 -8.564,27.469 0,0"
         style="fill:#9269aa;fill-opacity:1;fill-rule:nonzero;stroke:none"
         transform="matrix(0.01289555,0,0,-0.01289555,8.7588026,26.278805)"
         clip-path="url(#clipPath31)" />
      <path
         id="path32"
         d="m 0,0 c -42.762,0.003 -77.472,19.652 -103.165,58.402 -19.006,28.665 -23.027,60.224 -11.951,93.798 23.046,69.845 112.313,141.946 227.417,183.691 90.857,32.948 179.208,69.887 237.328,95.076 38.716,16.778 65.508,51.926 71.667,94.017 10.308,70.445 26.3,105.484 48.891,107.118 0.264,0.019 0.526,0.028 0.792,0.028 13.954,0 25.912,-29.046 32.982,-51.106 16.942,12.763 58.795,42.378 82.35,42.378 6.407,0 11.388,-2.056 14.803,-6.111 11.916,-14.15 -9.178,-44.68 -26.982,-65.887 14.154,4.749 32.161,9.65 46.213,9.65 17.012,0 23.032,-7.352 25.088,-13.519 7.058,-21.174 -31.282,-45.415 -55.631,-58.363 14.007,-3.498 30.709,-10.745 31.349,-25.473 1.087,-24.975 -43.421,-45.263 -132.285,-60.302 -16.5,-2.791 -31.317,-12.369 -40.655,-26.277 C 421.27,336.988 365.305,258.408 293.187,183.021 227.801,114.67 102.761,0 0.01,0 Z"
         style="fill:#9269aa;fill-opacity:1;fill-rule:nonzero;stroke:none"
         transform="matrix(0.01289555,0,0,-0.01289555,17.615146,21.305382)"
         clip-path="url(#clipPath33)" />
      <path
         id="path34"
         d="m 0,0 c -0.408,0 -0.81,-0.014 -1.217,-0.043 -26.155,-1.893 -43.421,-37.54 -54.344,-112.184 -5.858,-40.042 -31.336,-73.472 -68.152,-89.427 -58.037,-25.153 -146.266,-62.041 -236.99,-94.943 -55.433,-20.102 -106.255,-47.732 -146.971,-79.902 -42.994,-33.969 -72.061,-71.146 -84.06,-107.511 -11.513,-34.892 -7.142,-69.106 12.639,-98.94 26.864,-40.517 63.24,-61.06 108.116,-61.06 43.195,0 93.932,19.395 150.8,57.645 46.5,31.276 95.851,74.076 146.681,127.211 72.422,75.704 128.614,154.601 155.663,194.892 8.433,12.562 21.814,21.212 36.712,23.733 22.88,3.872 55.855,10.441 83.018,19.753 37.289,12.781 55.021,28.045 54.212,46.663 -0.586,13.494 -10.974,21.717 -22.725,26.712 3.395,1.998 6.888,4.139 10.358,6.39 10.941,7.096 44.236,28.691 36.349,52.354 -2.189,6.565 -9.09,17.579 -30.721,17.58 -9.201,0 -19.939,-1.971 -30.264,-4.643 13.136,17.793 28.809,43.052 15.575,58.766 -3.16,3.753 -9.083,8.226 -19.346,8.226 -13.733,0.002 -33.144,-8.203 -59.341,-25.081 -7.559,-4.87 -14.499,-9.71 -20.084,-13.747 -1.418,3.952 -3.073,8.311 -4.899,12.693 C 20.825,-10.426 11.551,0 0,0 m 0,-11.879 c 13.698,0 29.814,-55.107 29.814,-55.107 0,0 58.457,46.382 85.519,46.38 4.359,-10e-4 7.905,-1.205 10.259,-4 14.119,-16.766 -43.227,-76.283 -43.227,-76.283 0,0 41.244,17.933 67.003,17.932 9.657,-0.001 17.14,-2.522 19.451,-9.456 7.969,-23.908 -69.064,-59.332 -69.064,-59.332 0,0 43.636,-3.39 44.483,-22.885 1.24,-28.519 -81.979,-46.51 -127.342,-54.186 -18.196,-3.08 -34.308,-13.502 -44.594,-28.824 -26.061,-38.819 -82.136,-117.78 -154.384,-193.302 -89.213,-93.258 -200.426,-181.189 -288.897,-181.189 -38.168,0 -72.11,16.373 -98.216,55.745 -63.089,95.151 58.656,212.815 212.543,268.621 91.016,33.007 179.472,69.992 237.663,95.21 40.505,17.555 68.792,54.929 75.183,98.609 6.826,46.652 19.8,100.343 43.442,102.053 0.121,0.009 0.242,0.014 0.364,0.014"
         style="fill:#13000e;fill-opacity:1;fill-rule:nonzero;stroke:none"
         transform="matrix(0.01289555,0,0,-0.01289555,23.688677,13.077116)"
         clip-path="url(#clipPath35)" />
      <path
         id="path36"
         d="M 0,0 C -5.431,1.932 -10.81,3.969 -16.189,6.058 Z"
         style="fill:#46244c;fill-opacity:1;fill-rule:nonzero;stroke:none"
         transform="matrix(0.01289555,0,0,-0.01289555,9.1467,26.857946)"
         clip-path="url(#clipPath37)" />
      <path
         id="path38"
         d="m 0,0 c -21.202,62.509 -51.856,115.88 -91.075,158.649 -40.943,44.546 -89.404,75.513 -144.081,92.016 -28.931,8.773 -59.115,13.211 -89.665,13.211 -48.932,0 -98.647,-11.175 -147.788,-33.107 -47.888,-21.413 -93.895,-52.484 -136.718,-92.331 -43.03,-40.053 -81.518,-87.731 -114.47,-141.782 -33.996,-55.824 -61.152,-117.081 -80.787,-182.098 -14.153,-46.896 -23.97,-94.156 -29.297,-141.259 -0.366,-3.499 -0.731,-6.946 -1.044,-10.393 -0.366,-3.186 -0.627,-6.32 -0.888,-9.452 v -0.053 c -0.052,-0.209 -0.052,-0.365 -0.052,-0.573 -1.828,-21.203 -2.768,-42.352 -2.768,-63.451 0,-6.475 0.104,-12.898 0.261,-19.27 v -0.051 c 0.783,-29.61 3.394,-58.386 7.833,-86.375 4.648,-29.558 11.332,-58.123 20.001,-85.594 1.149,-3.812 2.402,-7.519 3.656,-11.279 1.932,-5.744 3.968,-11.384 6.11,-16.972 4.961,-2.036 9.974,-3.969 15.04,-5.9 -5.118,12.585 -9.714,25.536 -13.892,38.852 -8.564,27.469 -15.196,56.4 -19.739,86.48 -4.439,28.984 -6.894,59.011 -7.364,89.822 -0.209,18.747 0.262,37.808 1.515,57.026 0,0.261 0,0.574 0.052,0.836 0.157,2.976 0.366,5.901 0.627,8.877 v 0.053 c 0.261,3.289 0.522,6.527 0.835,9.817 4.648,50.864 14.675,103.086 30.498,155.412 79.064,261.842 276.724,440.86 468.379,440.86 28.983,0 57.914,-4.126 86.218,-12.639 215.26,-65.016 315.943,-362.107 224.921,-663.636 -29.193,-96.716 -74.626,-182.151 -129.929,-251.398 6.319,1.515 12.586,3.134 18.853,4.857 14.726,19.271 28.617,39.689 41.62,61.048 33.997,55.825 61.204,117.081 80.84,182.098 22.56,74.782 34.049,150.556 34.049,225.129 C 31.751,-130.295 21.045,-62.146 0,0"
         style="fill:#0e060c;fill-opacity:1;fill-rule:nonzero;stroke:none"
         transform="matrix(0.01289555,0,0,-0.01289555,19.070384,18.577432)"
         clip-path="url(#clipPath39)" />
      <path
         id="path40"
         d="m 0,0 c -29.192,-96.716 -74.625,-182.151 -129.929,-251.398 -82.667,-20.47 -169.094,-31.333 -258.081,-31.333 -51.125,0 -101.363,3.603 -150.556,10.497 -4.752,0.679 -9.452,1.358 -14.204,2.089 -4.805,0.783 -9.661,1.514 -14.465,2.403 -32.117,5.377 -63.764,12.219 -94.836,20.418 -31.908,8.408 -63.188,18.277 -93.79,29.505 -5.431,1.932 -10.81,3.968 -16.189,6.058 -5.118,12.585 -9.714,25.536 -13.891,38.853 -8.565,27.469 -15.197,56.4 -19.74,86.479 -4.439,28.985 -6.894,59.012 -7.363,89.823 -0.209,18.747 0.261,37.808 1.514,57.026 0,0.261 0,0.574 0.052,0.836 0.157,2.975 0.366,5.9 0.627,8.877 v 0.053 c 0.261,3.289 0.522,6.527 0.835,9.817 4.648,50.864 14.675,103.086 30.498,155.412 79.064,261.842 276.725,440.859 468.379,440.859 28.983,0 57.914,-4.126 86.219,-12.638 C -9.661,598.62 91.022,301.528 0,0"
         style="fill:#46244c;fill-opacity:1;fill-rule:nonzero;stroke:none"
         transform="matrix(0.01289555,0,0,-0.01289555,18.893946,24.04906)"
         clip-path="url(#clipPath41)" />
      <path
         id="path42"
         d="m 0,0 c -35.352,-0.005 -54.997,59.151 -69.339,102.345 -6.655,20.044 -22.792,34.908 -43.163,39.762 -26.111,6.222 -159.703,42.144 -225.655,138.544 -34.759,50.808 -63.485,169.966 -29.377,241.04 17.062,35.553 46.805,55.184 88.407,58.35 3.443,0.262 6.838,0.395 10.09,0.395 69.648,0 85.452,-57.861 103.75,-124.857 4.954,-18.139 10.078,-36.895 16.535,-55.547 26.247,-75.824 65.06,-120.931 115.36,-134.07 2.722,-0.711 5.718,-1.071 8.906,-1.071 16.959,0 37.58,9.856 57.523,19.39 19.398,9.273 37.72,18.032 53.045,18.032 8.842,0 16.096,-2.96 21.558,-8.798 14.457,-15.458 -6.389,-45.205 -18.72,-60.161 24.31,-5.805 81.348,-22.564 81.348,-51.964 0,-24.48 -45.165,-35.525 -69.203,-39.667 17.476,-16.955 52.678,-54.207 53.434,-79.803 0.2,-6.815 -1.916,-12.511 -6.293,-16.933 -4.616,-4.665 -10.843,-7.03 -18.509,-7.03 -30.113,0 -79.851,38.849 -102.313,57.792 C 29.545,71.128 31.239,24.968 16.055,7.538 11.772,2.622 6.248,0.015 0.08,0 Z"
         style="fill:#9269aa;fill-opacity:1;fill-rule:nonzero;stroke:none"
         transform="matrix(0.01289555,0,0,-0.01289555,15.057168,25.832952)"
         clip-path="url(#clipPath43)" />
      <path
         id="path44"
         d="m 0,0 c -3.402,0 -6.949,-0.139 -10.543,-0.412 -43.252,-3.291 -75.517,-24.627 -93.31,-61.702 -16.042,-33.427 -20.213,-80.364 -11.747,-132.161 7.157,-43.788 23.089,-87.779 41.578,-114.803 25.722,-37.599 64.257,-70.305 114.533,-97.209 49.986,-26.748 96.828,-39.512 114.648,-43.758 18.357,-4.374 32.9,-17.779 38.903,-35.856 14.911,-44.911 35.333,-106.415 74.974,-106.415 h 0.03 l 0.095,10e-4 c 7.902,0.02 14.969,3.332 20.41,9.577 9.885,11.346 14.49,32.738 14.078,65.395 -0.059,4.625 -0.215,9.122 -0.428,13.357 25.769,-20.721 67.534,-50.371 95.513,-50.371 11.596,0 18.762,4.781 22.732,8.791 5.485,5.543 8.254,12.904 8.007,21.287 -0.463,15.697 -11.428,35.627 -33.522,60.928 -4.828,5.53 -9.625,10.659 -13.948,15.106 5.206,1.138 10.877,2.533 16.575,4.211 11.542,3.398 46.666,13.74 46.666,39.048 0,18.716 -16.654,34.1 -50.912,47.031 -9.315,3.516 -18.566,6.322 -26.248,8.409 2.368,3.183 4.835,6.697 7.175,10.377 14.196,22.325 16.132,39.272 5.755,50.365 -6.629,7.088 -15.341,10.682 -25.891,10.682 -16.675,-0.002 -35.585,-9.042 -55.607,-18.611 -19.347,-9.249 -39.352,-18.812 -54.967,-18.812 -2.681,0 -5.173,0.296 -7.405,0.879 -48.261,12.605 -85.69,56.434 -111.247,130.266 -6.391,18.463 -11.487,37.123 -16.416,55.168 -9.086,33.265 -17.668,64.686 -32.786,88.146 C 58.879,-13.439 33.791,0 0,0 m 0,-11.88 c 83.113,0 84.562,-89.421 114.672,-176.406 21.914,-63.311 57.835,-121.775 119.47,-137.874 3.33,-0.87 6.81,-1.264 10.407,-1.264 35.04,0 81.299,37.418 110.569,37.423 6.765,0 12.618,-1.998 17.22,-6.918 14.962,-15.996 -25.428,-59.754 -25.428,-59.754 0,0 86.454,-16.952 86.454,-48.313 0,-26.275 -76.283,-35.599 -76.283,-35.599 0,0 80.253,-72.059 55.941,-96.624 -3.639,-3.677 -8.537,-5.27 -14.288,-5.27 -37.123,0 -109.861,66.295 -109.861,66.295 0,0 14.132,-104.164 -19.772,-104.253 h -0.065 c -30.646,0 -50,57.018 -63.7,98.279 -7.228,21.766 -25.114,38.353 -47.424,43.669 -57.656,13.739 -166.423,54.693 -222.129,136.119 -48.542,70.951 -86.109,279.409 54.576,290.113 3.325,0.253 6.547,0.377 9.641,0.377"
         style="fill:#13000e;fill-opacity:1;fill-rule:nonzero;stroke:none"
         transform="matrix(0.01289555,0,0,-0.01289555,11.587794,18.271327)"
         clip-path="url(#clipPath45)" />
      <path
         id="path46"
         d="m 0,0 c -7.451,0 -14.77,1.069 -21.754,3.179 -34.342,10.369 -58.885,44.701 -69.115,96.67 -9.967,50.644 -5.226,112.406 13.347,173.912 34.591,114.536 107.961,197.668 174.46,197.668 7.45,0 14.77,-1.069 21.754,-3.179 34.341,-10.37 58.885,-44.702 69.114,-96.671 9.968,-50.643 5.227,-112.406 -13.346,-173.912 C 139.872,83.136 66.497,0 0.002,0 Z"
         style="fill:#dad0e8;fill-opacity:1;fill-rule:nonzero;stroke:none"
         transform="matrix(0.01289555,0,0,-0.01289555,17.152687,8.4480866)"
         clip-path="url(#clipPath47)" />
      <path
         id="path48"
         d="m 0,0 c -69.055,0 -144.817,-84.907 -180.145,-201.891 -18.849,-62.418 -23.64,-125.198 -13.488,-176.776 10.673,-54.23 36.677,-90.174 73.224,-101.211 7.541,-2.277 15.438,-3.432 23.472,-3.432 69.056,0 144.817,84.907 180.145,201.89 18.85,62.418 23.64,125.199 13.488,176.776 C 86.022,-50.413 60.018,-14.469 23.472,-3.433 15.93,-1.155 8.033,0 0,0 m 0,-11.88 c 6.812,0 13.513,-0.954 20.038,-2.925 C 86.479,-34.87 109.67,-152.7 71.835,-277.986 37.716,-390.967 -34.379,-471.43 -96.937,-471.43 c -6.812,0 -13.512,0.954 -20.037,2.925 -66.443,20.064 -89.633,137.894 -51.798,263.18 C -134.653,-92.343 -62.558,-11.88 0,-11.88"
         style="fill:#13000e;fill-opacity:1;fill-rule:nonzero;stroke:none"
         transform="matrix(0.01289555,0,0,-0.01289555,18.402749,2.2921488)"
         clip-path="url(#clipPath49)" />
      <path
         id="path50"
         d="m 0,0 c -22.128,-73.276 -13.723,-140.634 18.775,-150.448 32.497,-9.813 76.781,41.633 98.91,114.908 22.127,73.277 13.722,140.634 -18.776,150.448 C 66.412,124.722 22.128,73.276 0,0"
         style="fill:#dad0e8;fill-opacity:1;fill-rule:nonzero;stroke:none"
         transform="matrix(0.01289555,0,0,-0.01289555,17.018923,5.1792735)"
         clip-path="url(#clipPath51)" />
      <path
         id="path52"
         d="m 0,0 c -12.27,0 -47.103,-31.152 -67.668,-99.253 -9.623,-31.865 -13.365,-64.381 -10.267,-89.212 2.631,-21.079 9.314,-30.461 13.165,-31.623 3.853,-1.17 14.611,2.952 28.467,19.05 16.325,18.965 31.205,48.118 40.828,79.982 C 26.09,-49.646 12.103,-3.385 1.626,-0.221 1.141,-0.075 0.596,0 0,0 m -63.405,-267.772 c -6.006,0 -11.111,0.989 -15.102,2.194 -14.628,4.418 -40.131,19.546 -46.58,71.229 -3.949,31.635 0.288,70.286 11.929,108.832 11.64,38.547 29.505,73.081 50.304,97.244 33.976,39.475 63.589,37.961 78.218,33.541 14.628,-4.418 40.13,-19.545 46.58,-71.227 3.948,-31.637 -0.289,-70.287 -11.929,-108.833 -11.64,-38.547 -29.505,-73.083 -50.303,-97.245 -24.709,-28.705 -47.11,-35.734 -63.117,-35.735"
         style="fill:#9269aa;fill-opacity:1;fill-rule:nonzero;stroke:none"
         transform="matrix(0.01289555,0,0,-0.01289555,18.184855,3.987921)"
         clip-path="url(#clipPath53)" />
      <path
         id="path54"
         d="m 0,0 c -59.922,0.001 -136.446,39.522 -199.71,103.141 -45.305,45.558 -78.519,97.845 -93.524,147.23 -15.399,50.678 -9.87,92.518 15.566,117.813 15.592,15.504 38.033,23.7 64.895,23.7 59.92,0 136.443,-39.522 199.707,-103.141 C 32.238,243.185 65.453,190.897 80.459,141.513 95.857,90.833 90.33,48.994 64.895,23.7 49.302,8.195 26.862,0 0.002,0 Z"
         style="fill:#dad0e8;fill-opacity:1;fill-rule:nonzero;stroke:none"
         transform="matrix(0.01289555,0,0,-0.01289555,10.128677,9.9171905)"
         clip-path="url(#clipPath55)" />
      <path
         id="path56"
         d="m 0,0 c -28.466,0 -52.354,-8.792 -69.083,-25.428 -27.07,-26.919 -33.128,-70.868 -17.06,-123.751 15.283,-50.297 49.02,-103.459 94.996,-149.693 64.339,-64.699 142.477,-104.892 203.921,-104.892 28.465,0 52.353,8.793 69.082,25.429 27.071,26.919 33.129,70.868 17.06,123.752 -15.283,50.296 -49.02,103.458 -94.995,149.691 C 139.582,-40.192 61.444,0 0,0 m 0,-11.879 c 56.297,0 131.32,-36.852 195.497,-101.39 92.283,-92.8 127.196,-207.703 77.983,-256.643 -14.989,-14.905 -36.05,-21.972 -60.706,-21.972 -56.297,0 -131.32,36.852 -195.498,101.389 -92.282,92.801 -127.196,207.703 -77.982,256.643 14.989,14.906 36.051,21.973 60.706,21.973"
         style="fill:#13000e;fill-opacity:1;fill-rule:nonzero;stroke:none"
         transform="matrix(0.01289555,0,0,-0.01289555,7.384835,4.7870425)"
         clip-path="url(#clipPath57)" />
      <path
         id="path58"
         d="M 0,0 C 53.974,-54.276 117.242,-78.871 141.312,-54.934 165.384,-30.997 141.144,32.407 87.17,86.683 33.196,140.959 -30.071,165.555 -54.143,141.618 -78.214,117.681 -53.974,54.276 0,0"
         style="fill:#dad0e8;fill-opacity:1;fill-rule:nonzero;stroke:none"
         transform="matrix(0.01289555,0,0,-0.01289555,8.1946973,7.9493288)"
         clip-path="url(#clipPath59)" />
      <path
         id="path60"
         d="m 0,0 c -4.235,0 -7.231,-0.843 -8.736,-2.34 -7.759,-7.717 1.638,-55.124 54.237,-108.018 52.598,-52.893 99.953,-62.551 107.712,-54.84 7.759,7.717 -1.639,55.124 -54.236,108.018 C 56.583,-14.549 17.596,0 0,0 m 144.055,-214.983 c -11.557,0 -25.486,2.456 -42.14,8.931 -29.716,11.551 -61.716,33.637 -90.108,62.188 -28.393,28.551 -50.299,60.675 -61.683,90.454 -18.601,48.65 -3.202,73.99 7.633,84.764 10.836,10.776 36.259,26.034 84.806,7.161 29.714,-11.552 61.716,-33.638 90.108,-62.189 28.392,-28.551 50.298,-60.675 61.683,-90.455 18.599,-48.649 3.2,-73.988 -7.635,-84.762 -7.118,-7.079 -20.535,-16.092 -42.664,-16.092"
         style="fill:#9269aa;fill-opacity:1;fill-rule:nonzero;stroke:none"
         transform="matrix(0.01289555,0,0,-0.01289555,7.8251973,6.3101717)"
         clip-path="url(#clipPath61)" />
      <path
         id="path62"
         d="m 0,0 c -4.924,30.027 -28.896,53.329 -58.903,58.441 -0.062,0.021 -4.735,0.859 -11.881,2.62 5.721,7.815 9.87,16.93 11.965,26.905 2.053,9.848 2.012,19.697 0.126,29.021 58.211,1.342 135.448,8.068 203.445,54.901 33.548,23.133 63.47,51.903 92.408,79.709 37.403,35.958 76.064,73.131 110.449,83.859 24.412,7.606 48.615,11.482 71.957,11.482 50.814,0 96.076,-17.957 130.839,-51.903 35.286,-34.449 56.89,-83.837 60.871,-139.052 C 615.467,97.479 599.71,49.829 563.103,10.267 522.221,-33.883 453.869,-69.107 365.378,-91.591 c -91.82,-23.343 -171.782,-24.936 -186.806,-24.998 l -0.084,-0.021 c -10.624,0 -66.907,4.421 -130.628,14.332 -43.606,6.769 -74.828,13.725 -95.992,19.634 6.076,4.924 11.211,8.088 12.342,8.759 C -9.157,-59.405 4.903,-29.944 0,0"
         style="fill:#dad0e8;fill-opacity:1;fill-rule:nonzero;stroke:none"
         transform="matrix(0.01289555,0,0,-0.01289555,6.6935754,12.356646)"
         clip-path="url(#clipPath63)" />
      <path
         id="path64"
         d="m 0,0 c -134.385,0.003 -263.857,25.251 -419.803,81.86 -17.901,6.498 -41.186,11.244 -63.703,15.832 -47.608,9.703 -96.836,19.735 -109.239,48.42 -8.326,19.253 -1.635,35.054 6.413,45.602 -31.691,5.582 -87.828,17.368 -97.57,55.088 -0.258,0.958 -0.493,1.973 -0.689,3.011 -0.039,0.168 -0.074,0.33 -0.103,0.496 -8.118,46.471 34.254,83.174 56.114,98.712 -21.197,4.989 -61.078,16.596 -86.505,37.739 -15.68,13.037 -23.631,27.849 -23.631,44.026 0,2.66 0.278,5.257 0.822,7.718 0.555,2.516 1.439,5.005 2.628,7.395 0.333,0.665 0.667,1.325 1.027,1.941 l 0.119,0.203 0.184,0.274 c 0.172,0.278 0.353,0.552 0.536,0.822 l 0.151,0.228 c 0.426,0.638 0.789,1.176 1.177,1.691 0.209,0.272 0.422,0.533 0.636,0.795 l 0.338,0.419 c 0.233,0.3 0.471,0.597 0.721,0.882 l 0.904,0.956 4.43,-3.964 -4.283,4.116 c 0.211,0.217 0.334,0.336 0.446,0.438 0.688,0.692 1.394,1.358 2.13,1.993 0.174,0.151 0.688,0.568 0.688,0.568 0.655,0.542 1.326,1.076 2.021,1.586 0.248,0.18 0.5,0.354 0.751,0.528 0.793,0.552 1.443,0.988 2.11,1.406 0.34,0.213 0.686,0.42 1.034,0.627 0.645,0.382 1.299,0.755 1.967,1.114 0.341,0.186 0.703,0.376 1.07,0.563 0.675,0.346 1.356,0.678 2.046,0.999 0.339,0.159 0.689,0.32 1.042,0.478 0.732,0.324 1.463,0.63 2.197,0.927 l 0.937,0.374 c 0.825,0.32 1.68,0.631 2.542,0.928 l 0.517,0.184 c 1.927,0.65 3.915,1.245 5.943,1.777 l 0.238,0.063 c 0.614,0.161 1.317,0.333 2.022,0.5 l 1.029,0.244 c 1.661,0.378 3.298,0.705 4.905,0.994 0,0 1.475,0.259 1.915,0.332 -10.78,7.223 -23.58,18.232 -28.827,32.195 -3.728,9.916 -3.275,19.967 1.343,29.874 0.325,0.734 0.702,1.465 1.107,2.145 11.403,20.767 36.244,20.936 67.67,21.15 l 5.608,0.044 c 7.68,0.072 15.982,0.212 24.728,0.748 2.988,0.185 5.865,0.401 8.774,0.671 27.04,2.512 67.431,10.125 105.851,47.086 22.083,21.244 45.239,45.408 69.754,70.993 105.986,110.598 237.89,248.243 411.505,280.684 67.88,12.682 134.388,19.113 197.678,19.113 114.241,0 219.671,-20.063 322.314,-61.337 96.707,-38.886 173.838,-90.084 230.233,-130.342 50.928,-36.358 88.339,-49.91 113.093,-58.88 24.431,-8.85 39.177,-14.192 41.901,-33.263 2.077,-14.536 -9.315,-32.324 -26.561,-59.25 -15.08,-23.544 -33.849,-52.844 -50.739,-90.914 C 742.64,404.069 670.636,297.04 583.536,214.4 466.71,103.558 319.454,34.911 145.853,10.365 97.208,3.488 48.144,0 0.026,0 Z"
         style="fill:#9269aa;fill-opacity:1;fill-rule:nonzero;stroke:none"
         transform="matrix(0.01289555,0,0,-0.01289555,13.688484,17.046916)"
         clip-path="url(#clipPath65)" />
      <path
         id="path66"
         d="m 0,0 c -63.656,0 -130.531,-6.465 -198.77,-19.216 -175.491,-32.789 -308.127,-171.2 -414.704,-282.416 -24.471,-25.537 -47.586,-49.658 -69.582,-70.819 -37.075,-35.667 -76.131,-43.022 -102.282,-45.451 -2.722,-0.253 -5.486,-0.465 -8.447,-0.648 l -0.053,-0.002 -0.087,-0.006 c -8.616,-0.527 -16.823,-0.667 -24.409,-0.739 l -0.17,-10e-4 -0.612,-0.006 -3.707,-0.028 -0.215,-0.001 -0.91,-0.007 c -31.924,-0.218 -59.526,-0.406 -72.634,-23.883 l -0.019,-0.027 -0.169,-0.308 c -0.473,-0.809 -0.912,-1.664 -1.334,-2.605 -5.201,-11.221 -5.71,-23.108 -1.471,-34.383 4.098,-10.895 12.08,-19.997 20.463,-27.12 -1.367,-0.394 -2.706,-0.813 -4.004,-1.252 l -0.489,-0.171 -0.114,-0.04 c -0.916,-0.319 -1.832,-0.65 -2.743,-1.003 -0.25,-0.097 -0.507,-0.2 -0.765,-0.305 l -0.218,-0.088 c -0.806,-0.325 -1.606,-0.66 -2.399,-1.013 -0.38,-0.168 -0.762,-0.346 -1.146,-0.524 -0.745,-0.347 -1.49,-0.71 -2.228,-1.087 -0.415,-0.213 -0.814,-0.423 -1.211,-0.637 -0.726,-0.391 -1.453,-0.805 -2.172,-1.232 -0.382,-0.227 -0.763,-0.457 -1.141,-0.692 -0.751,-0.47 -1.481,-0.959 -2.202,-1.46 l -0.162,-0.113 c -0.293,-0.203 -0.586,-0.407 -0.873,-0.618 -0.704,-0.515 -1.436,-1.088 -2.284,-1.789 l -0.124,-0.102 c -0.227,-0.183 -0.451,-0.367 -0.672,-0.557 -0.78,-0.676 -1.559,-1.401 -2.361,-2.204 -0.13,-0.122 -0.258,-0.245 -0.382,-0.369 l -0.097,-0.098 -0.123,-0.13 -0.028,-0.028 -0.092,-0.095 c -0.138,-0.143 -0.276,-0.287 -0.412,-0.432 l -0.09,-0.094 -0.338,-0.354 -0.137,-0.145 -0.131,-0.15 c -0.322,-0.367 -0.628,-0.748 -0.93,-1.133 l -0.153,-0.195 -0.116,-0.141 c -0.265,-0.32 -0.528,-0.645 -0.78,-0.978 -0.532,-0.702 -0.966,-1.355 -1.315,-1.881 l -0.003,-0.004 -0.06,-0.091 -0.129,-0.191 c -0.204,-0.302 -0.405,-0.605 -0.599,-0.914 -0.17,-0.254 -0.331,-0.51 -0.483,-0.774 -0.475,-0.818 -0.881,-1.633 -1.178,-2.229 -1.403,-2.818 -2.451,-5.768 -3.114,-8.767 -0.637,-2.877 -0.961,-5.906 -0.961,-8.996 0,-18.025 8.671,-34.374 25.775,-48.593 21.959,-18.261 54.054,-29.597 76.706,-35.826 -23.685,-18.935 -55.982,-53.5 -48.367,-97.097 0.04,-0.233 0.09,-0.476 0.146,-0.72 0.206,-1.07 0.456,-2.157 0.765,-3.317 5.034,-19.493 21.451,-34.853 48.773,-45.572 15.013,-5.89 31.151,-9.596 44.702,-12.19 -7.53,-13.852 -8.374,-29.071 -2.042,-43.716 13.634,-31.53 62.146,-41.416 113.506,-51.882 22.306,-4.546 45.372,-9.247 62.862,-15.596 71.968,-26.125 137.391,-45.253 200.009,-58.475 75.663,-15.976 148.222,-23.743 221.821,-23.743 48.412,0 97.764,3.508 146.685,10.425 92.3,13.05 177.801,38.553 254.129,75.799 68.307,33.333 131.159,77.006 186.812,129.808 87.678,83.188 160.119,190.838 221.462,329.102 16.706,37.656 35.337,66.745 50.308,90.119 17.962,28.046 29.829,46.573 27.44,63.294 -3.228,22.601 -21.067,29.064 -45.759,38.009 -24.449,8.858 -61.397,22.244 -111.664,58.127 -56.662,40.451 -134.179,91.899 -231.467,131.019 C 221.169,-20.204 115.014,0 0,0 m 0,-11.879 c 249.887,0 420.678,-98.899 549.096,-190.575 99.733,-71.197 147.966,-55.951 152.565,-88.149 3.391,-23.732 -41.248,-66.676 -76.848,-146.915 -96.772,-218.122 -268.903,-473.427 -653.206,-527.764 -50.207,-7.099 -98.444,-10.307 -145.022,-10.307 -154.774,0 -290.947,35.463 -417.777,81.504 -55.062,19.989 -152.774,22.308 -169.517,61.026 -9.501,21.972 3.789,39.01 12.602,47.251 -27.33,4.84 -93.504,14.027 -103.46,52.568 -0.236,0.888 -0.447,1.79 -0.617,2.712 -0.019,0.107 -0.052,0.206 -0.071,0.313 -10.157,58.156 65.454,100.53 65.543,100.579 -0.348,0.06 -63.689,10.912 -97.99,39.435 -12.747,10.598 -21.49,23.63 -21.49,39.459 0,2.288 0.238,4.429 0.682,6.433 0.48,2.172 1.22,4.171 2.148,6.034 0.27,0.541 0.542,1.085 0.838,1.593 0.056,0.099 0.125,0.184 0.184,0.281 0.198,0.329 0.418,0.641 0.63,0.959 0.31,0.467 0.619,0.937 0.956,1.381 0.207,0.273 0.428,0.534 0.644,0.799 0.265,0.326 0.514,0.665 0.792,0.981 0.137,0.147 0.275,0.286 0.412,0.431 0.139,0.15 0.282,0.295 0.424,0.442 0.035,0.036 0.071,0.076 0.107,0.112 0.066,0.069 0.144,0.13 0.211,0.199 0.604,0.61 1.229,1.203 1.884,1.768 0.191,0.166 0.393,0.322 0.588,0.485 0.568,0.469 1.145,0.929 1.745,1.368 0.258,0.189 0.523,0.37 0.786,0.553 0.563,0.391 1.133,0.775 1.719,1.141 0.3,0.188 0.605,0.37 0.911,0.553 0.575,0.341 1.157,0.672 1.75,0.992 0.32,0.173 0.641,0.342 0.967,0.508 0.607,0.311 1.221,0.61 1.843,0.899 0.316,0.148 0.631,0.294 0.95,0.436 0.665,0.295 1.335,0.576 2.012,0.848 0.278,0.112 0.554,0.227 0.833,0.335 0.781,0.302 1.566,0.586 2.355,0.86 0.171,0.059 0.341,0.122 0.512,0.18 1.832,0.62 3.678,1.167 5.517,1.65 0.034,0.009 0.067,0.019 0.101,0.028 0.012,0.003 0.024,0.005 0.036,0.009 0.664,0.172 1.323,0.335 1.983,0.491 0.324,0.078 0.648,0.158 0.97,0.231 1.577,0.357 3.129,0.667 4.649,0.941 0.113,0.022 0.234,0.045 0.345,0.067 0.081,0.014 0.154,0.024 0.233,0.038 9.875,1.725 18.065,1.813 19.625,1.813 0.162,0 0.253,-10e-4 0.266,-10e-4 -0.297,0.131 -59.284,26.114 -41.707,63.82 0.252,0.566 0.524,1.111 0.839,1.635 0.008,0.015 0.018,0.028 0.027,0.043 9.743,18.006 33.108,17.984 63.471,18.194 1.314,0.009 2.615,0.018 3.955,0.03 0.259,0.003 0.518,0.005 0.777,0.006 7.943,0.075 16.319,0.227 25.022,0.76 0.05,0.003 0.098,0.006 0.148,0.009 2.903,0.18 5.842,0.401 8.812,0.676 34.329,3.189 72.913,13.598 109.42,48.719 118.257,113.766 266.87,310.626 478.232,350.119 C -126.021,-17.708 -60.7,-11.879 0,-11.879"
         style="fill:#13000e;fill-opacity:1;fill-rule:nonzero;stroke:none"
         transform="matrix(0.01289555,0,0,-0.01289555,15.924758,4.3895721)"
         clip-path="url(#clipPath67)" />
      <path
         id="path68"
         d="m 0,0 c -87.526,1.676 -180.982,14.228 -209.291,19.466 -26.34,4.861 -99.092,13.725 -106.468,56.011 -10.163,58.19 65.544,100.58 65.544,100.58 0,0 -119.481,20.347 -119.481,78.893 0,4.568 0.944,8.549 2.599,12.028 0.335,0.691 0.691,1.382 1.068,2.032 0.923,1.592 2.011,3.038 3.206,4.4 0.315,0.336 0.629,0.671 0.943,0.985 5.679,5.867 13.809,9.639 21.982,12.049 0.9,0.272 1.801,0.503 2.703,0.754 1.822,0.482 3.625,0.901 5.384,1.237 0.88,0.188 1.761,0.335 2.599,0.502 2.179,0.378 4.254,0.692 6.202,0.922 0.776,0.084 1.531,0.168 2.242,0.252 h 0.022 c 0.732,0.084 1.424,0.147 2.116,0.209 4.798,0.42 8.255,0.461 9.261,0.461 h 0.294 c 0,0 -59.342,26.026 -41.72,63.827 0.252,0.566 0.524,1.11 0.838,1.635 6.119,10.875 19.865,15.548 38.745,17.643 17.664,1.132 39.52,-0.147 63.47,2.074 h 0.042 c 53.286,0.839 117.993,4.841 172.663,42.496 75.141,51.777 140.33,147.413 222.073,172.914 32.06,10.016 63.323,14.71 93.183,14.71 142.112,0 251.996,-106.762 262.808,-257.109 C 525.05,42.139 111.016,-2.117 0,0"
         style="fill:#46244c;fill-opacity:1;fill-rule:nonzero;stroke:none"
         transform="matrix(0.01289555,0,0,-0.01289555,9.0063546,14.779403)"
         clip-path="url(#clipPath69)" />
      <path
         id="path70"
         d="m 0,0 c -59.93,-93.31 -158.77,-160.467 -276.994,-177.168 -28.959,-4.086 -57.855,-6.328 -85.975,-6.328 -126.208,0 -236.154,45.261 -259.435,172.202 -33.967,185.256 117.868,342.601 312.616,342.601 72.544,0 151.08,-21.834 228.15,-72.229 C 20.933,192.024 93.729,193.806 98.338,161.62 101.712,137.879 49.411,76.923 0,0"
         style="fill:#46244c;fill-opacity:1;fill-rule:nonzero;stroke:none"
         transform="matrix(0.01289555,0,0,-0.01289555,23.705036,10.22113)"
         clip-path="url(#clipPath71)" />
      <path
         id="path72"
         d="m 0,0 c -40.882,-44.15 -109.234,-79.374 -197.725,-101.858 -91.82,-23.343 -171.782,-24.936 -186.806,-24.998 l -0.084,-0.021 c -126.217,0 -213.508,13.759 -214.366,35.214 -1.13,28.253 120.378,41.371 118.309,84.326 -1.585,32.879 -72.739,47.363 -117.6,53.691 -4.175,0.588 -3.936,6.687 0.272,6.95 41.41,2.598 90.545,6.355 92.253,21.725 1.814,16.324 -42.591,21.163 -80.135,25.924 -4.469,0.567 -4.302,7.098 0.19,7.43 51.947,3.84 112.635,15.559 167.341,53.238 33.548,23.133 63.47,51.903 92.408,79.709 37.403,35.958 76.064,73.13 110.449,83.859 24.412,7.606 48.615,11.482 71.957,11.482 50.814,0 96.076,-17.957 130.839,-51.903 C 22.588,250.319 44.192,200.931 48.173,145.716 52.364,87.212 36.607,39.562 0,0 m 119.271,150.829 c -10.812,150.346 -120.696,257.108 -262.808,257.108 -29.859,0 -61.123,-4.694 -93.183,-14.709 -81.742,-25.502 -146.931,-121.137 -222.073,-172.915 -54.669,-37.655 -119.376,-41.657 -172.663,-42.495 h -0.042 c -23.95,-2.221 -45.806,-0.943 -63.47,-2.075 -18.88,-2.095 -32.626,-6.768 -38.744,-17.643 -0.315,-0.524 -0.587,-1.069 -0.839,-1.635 -17.622,-37.801 41.72,-63.826 41.72,-63.826 h -0.294 c -1.005,0 -4.462,-0.042 -9.261,-0.461 -0.692,-0.063 -1.384,-0.126 -2.116,-0.21 h -0.021 c -0.712,-0.083 -1.467,-0.167 -2.243,-0.251 -1.948,-0.231 -4.023,-0.545 -6.202,-0.922 -0.838,-0.168 -1.719,-0.315 -2.598,-0.503 -1.76,-0.335 -3.562,-0.754 -5.385,-1.236 -0.902,-0.252 -1.802,-0.482 -2.703,-0.755 -8.173,-2.409 -16.303,-6.181 -21.982,-12.049 -0.314,-0.314 -0.628,-0.649 -0.943,-0.984 -1.194,-1.362 -2.283,-2.809 -3.206,-4.401 -0.377,-0.649 -0.733,-1.341 -1.068,-2.032 -1.655,-3.479 -2.599,-7.46 -2.599,-12.028 0,-58.546 119.481,-78.892 119.481,-78.892 0,0 -75.707,-42.391 -65.544,-100.581 7.376,-42.285 80.136,-51.146 106.467,-56.016 28.313,-5.235 121.77,-17.785 209.301,-19.461 110.997,-2.126 525.041,42.139 503.018,348.972"
         style="fill:#dad0e8;fill-opacity:1;fill-rule:nonzero;stroke:none"
         transform="matrix(0.01289555,0,0,-0.01289555,13.955096,12.224246)"
         clip-path="url(#clipPath73)" />
      <path
         id="path74"
         d="m 0,0 c -194.748,0 -346.579,-157.353 -312.614,-342.613 23.271,-126.936 133.219,-172.196 259.426,-172.196 28.117,0 57.018,2.244 85.972,6.331 118.232,16.69 217.067,83.844 277.013,177.167 49.404,76.909 101.71,137.874 98.32,161.606 -4.6,32.198 -77.404,30.422 -179.971,97.473 C 151.078,-21.85 72.551,0 0,0 m 0,-71.277 c 63.081,0 128.485,-20.961 189.145,-60.615 37.848,-24.743 72.35,-41.278 100.805,-53.208 13.446,-5.637 18.285,-22.225 9.914,-34.162 -0.563,-0.802 -1.119,-1.595 -1.668,-2.378 -14.834,-21.148 -31.648,-45.117 -48.369,-71.149 C 199.066,-371.81 116.326,-424.701 22.821,-437.9 c -26.467,-3.736 -52.041,-5.631 -76.009,-5.631 -54.625,0 -100.323,9.905 -132.153,28.643 -31.783,18.711 -49.947,45.761 -57.164,85.129 -11.313,61.705 4.558,122.208 44.688,170.364 22.14,26.569 51.258,48.621 84.204,63.772 35.129,16.154 73.354,24.346 113.613,24.346"
         style="fill:#dad0e8;fill-opacity:1;fill-rule:nonzero;stroke:none"
         transform="matrix(0.01289555,0,0,-0.01289555,19.710168,5.9486179)"
         clip-path="url(#clipPath75)" />
      <path
         id="path76"
         d="m 0,0 c 0,-43.519 35.279,-78.798 78.798,-78.798 43.519,0 78.799,35.279 78.799,78.798 0,43.52 -35.28,78.798 -78.799,78.798 C 35.279,78.798 0,43.52 0,0"
         style="fill:#ece3f1;fill-opacity:1;fill-rule:nonzero;stroke:none"
         transform="matrix(0.01289555,0,0,-0.01289555,9.5331825,10.754727)"
         clip-path="url(#clipPath77)" />
      <path
         id="path78"
         d="m 0,0 c 0,-11.913 9.657,-21.569 21.569,-21.569 11.912,0 21.569,9.656 21.569,21.569 0,11.912 -9.657,21.569 -21.569,21.569 C 9.657,21.569 0,11.912 0,0"
         style="fill:#13000e;fill-opacity:1;fill-rule:nonzero;stroke:none"
         transform="matrix(0.01289555,0,0,-0.01289555,9.9155535,10.908448)"
         clip-path="url(#clipPath79)" />
      <path
         id="path80"
         d="m 0,0 c 1.792,0.133 2.53,-2.818 1.377,-4.196 -2.122,-2.536 -5.315,-4.145 -8.883,-4.145 -6.412,0 -12.359,4.05 -12.041,11.466 0.22,5.134 6.022,5.803 8.387,2.347 C -8.588,1.713 -4.873,-0.361 0,0"
         style="fill:#e9e8f5;fill-opacity:1;fill-rule:nonzero;stroke:none"
         transform="matrix(0.01289555,0,0,-0.01289555,10.249995,10.993226)"
         clip-path="url(#clipPath81)" />
      <path
         id="path82"
         d="m 0,0 c 0,-43.519 35.28,-78.798 78.799,-78.798 43.518,0 78.798,35.279 78.798,78.798 0,43.52 -35.28,78.798 -78.798,78.798 C 35.28,78.798 0,43.52 0,0"
         style="fill:#ece3f1;fill-opacity:1;fill-rule:nonzero;stroke:none"
         transform="matrix(0.01289555,0,0,-0.01289555,18.717753,8.4627759)"
         clip-path="url(#clipPath83)" />
      <path
         id="path84"
         d="m 0,0 c 0,-11.912 9.656,-21.569 21.568,-21.569 11.912,0 21.569,9.657 21.569,21.569 0,11.912 -9.657,21.569 -21.569,21.569 C 9.656,21.569 0,11.912 0,0"
         style="fill:#13000e;fill-opacity:1;fill-rule:nonzero;stroke:none"
         transform="matrix(0.01289555,0,0,-0.01289555,19.100136,8.7336018)"
         clip-path="url(#clipPath85)" />
      <path
         id="path86"
         d="m 0,0 c 1.792,0.133 2.53,-2.819 1.378,-4.196 -2.123,-2.536 -5.316,-4.145 -8.884,-4.145 -6.412,0 -12.359,4.05 -12.041,11.466 0.22,5.134 6.022,5.803 8.387,2.347 C -8.588,1.713 -4.873,-0.361 0,0"
         style="fill:#e9e8f5;fill-opacity:1;fill-rule:nonzero;stroke:none"
         transform="matrix(0.01289555,0,0,-0.01289555,19.434564,8.8183739)"
         clip-path="url(#clipPath87)" />
      <path
         id="path88"
         d="m 0,0 c -42.034,-139.192 9.021,-277.739 114.035,-309.451 105.014,-31.713 224.221,55.415 266.256,194.608 C 422.325,24.349 371.27,162.896 266.256,194.608 161.241,226.321 42.035,139.192 0,0"
         style="fill:#ece3f1;fill-opacity:1;fill-rule:nonzero;stroke:none"
         transform="matrix(0.01289555,0,0,-0.01289555,12.860939,11.031433)"
         clip-path="url(#clipPath89)" />
      <path
         id="path90"
         d="m 0,0 c -1.097,0 -2.206,0.303 -3.197,0.938 -2.763,1.768 -3.569,5.443 -1.8,8.206 17.181,26.84 32.305,55.769 44.952,85.986 12.996,31.01 23.538,63.734 31.336,97.266 4.333,18.689 7.816,37.647 10.354,56.344 4.134,30.308 5.922,60.927 5.312,91.006 -0.066,3.281 2.539,5.993 5.817,6.059 3.345,0.051 5.995,-2.539 6.06,-5.817 0.622,-30.696 -1.2,-61.935 -5.417,-92.85 C 90.83,228.083 87.278,208.759 82.861,189.708 74.914,155.525 64.164,122.162 50.912,90.541 38.003,59.696 22.557,30.155 5.008,2.738 3.874,0.968 1.958,0 0,0"
         style="fill:#13000e;fill-opacity:1;fill-rule:nonzero;stroke:none"
         transform="matrix(0.01289555,0,0,-0.01289555,14.417699,14.33957)"
         clip-path="url(#clipPath91)" />
      <path
         id="path92"
         d="m 0,0 c -0.627,0 -1.264,0.1 -1.891,0.31 -19.19,6.44 -39.773,11.857 -61.177,16.1 -22,4.369 -45.11,7.549 -68.689,9.457 -13.17,1.059 -26.485,1.722 -39.573,1.971 -21.252,0.412 -42.637,-0.242 -63.583,-1.954 -3.274,-0.269 -6.137,2.166 -6.404,5.436 -0.267,3.27 2.167,6.137 5.436,6.404 21.345,1.743 43.14,2.413 64.779,1.991 13.328,-0.253 26.888,-0.928 40.3,-2.007 24.035,-1.944 47.601,-5.189 70.046,-9.646 C -38.858,23.721 -17.781,18.173 1.889,11.573 5,10.53 6.674,7.162 5.631,4.052 4.797,1.569 2.482,0 0,0"
         style="fill:#13000e;fill-opacity:1;fill-rule:nonzero;stroke:none"
         transform="matrix(0.01289555,0,0,-0.01289555,19.833633,10.971591)"
         clip-path="url(#clipPath93)" />
      <path
         id="path94"
         d="m 0,0 c -0.711,0 -1.433,0.129 -2.136,0.4 -15.715,6.062 -32.674,11.442 -50.406,15.991 -18.221,4.68 -37.467,8.538 -57.204,11.468 -11.013,1.63 -22.182,2.971 -33.195,3.987 -17.87,1.656 -35.933,2.514 -53.687,2.547 -3.28,0.006 -5.934,2.671 -5.929,5.951 0.007,3.277 2.665,5.928 5.94,5.928 h 0.011 c 18.111,-0.034 36.535,-0.909 54.759,-2.596 11.226,-1.036 22.614,-2.404 33.843,-4.067 C -87.859,36.62 -68.206,32.68 -49.588,27.897 -31.411,23.234 -14.007,17.712 2.139,11.483 5.2,10.302 6.723,6.864 5.542,3.804 4.633,1.446 2.384,0 0,0"
         style="fill:#13000e;fill-opacity:1;fill-rule:nonzero;stroke:none"
         transform="matrix(0.01289555,0,0,-0.01289555,19.378266,11.574665)"
         clip-path="url(#clipPath95)" />
      <path
         id="path96"
         d="m 0,0 c -0.477,0 -0.962,0.059 -1.446,0.179 -17.68,4.425 -35.922,7.874 -54.221,10.251 -11.283,1.471 -22.823,2.565 -34.298,3.25 -20.564,1.217 -40.933,1.121 -60.539,-0.285 -19.089,-1.363 -37.664,-3.984 -55.214,-7.791 -3.208,-0.696 -6.368,1.338 -7.064,4.545 -0.696,3.205 1.339,6.369 4.545,7.063 18.1,3.928 37.238,6.629 56.884,8.032 20.121,1.445 41.012,1.542 62.092,0.294 11.755,-0.701 23.572,-1.822 35.128,-3.328 18.749,-2.436 37.447,-5.971 55.57,-10.506 C 4.621,10.907 6.554,7.682 5.758,4.5 5.083,1.802 2.661,0 0,0"
         style="fill:#13000e;fill-opacity:1;fill-rule:nonzero;stroke:none"
         transform="matrix(0.01289555,0,0,-0.01289555,14.471246,10.453848)"
         clip-path="url(#clipPath97)" />
      <path
         id="path98"
         d="m 0,0 c -2.425,0 -4.703,1.498 -5.582,3.909 -1.122,3.082 0.466,6.491 3.549,7.614 15.351,5.593 31.859,10.432 49.068,14.383 17.615,4.051 36.161,7.216 55.121,9.41 10.566,1.219 21.276,2.138 31.83,2.73 17.107,0.973 34.378,1.118 51.332,0.436 3.278,-0.131 5.828,-2.895 5.697,-6.173 -0.132,-3.279 -2.896,-5.83 -6.174,-5.698 -16.572,0.667 -33.455,0.522 -50.185,-0.425 C 124.329,25.605 113.854,24.707 103.519,23.515 84.996,21.371 66.886,18.28 49.695,14.328 32.96,10.486 16.925,5.787 2.033,0.36 1.362,0.116 0.675,0 0,0"
         style="fill:#13000e;fill-opacity:1;fill-rule:nonzero;stroke:none"
         transform="matrix(0.01289555,0,0,-0.01289555,11.949876,11.121834)"
         clip-path="url(#clipPath99)" />
      <path
         id="path100"
         d="m 0,0 c -14.108,-0.001 -28.623,3.59 -42.823,10.762 -55.434,27.996 -74.122,83.835 -48.771,145.725 1.243,3.035 4.714,4.486 7.747,3.245 3.036,-1.243 4.489,-4.712 3.245,-7.747 C -103.73,95.517 -87.606,46.688 -37.467,21.365 -6.746,5.85 17.5,12.042 32.431,19.972 c 23.426,12.436 40.881,38.632 44.468,66.737 0.416,3.254 3.4,5.545 6.645,5.141 3.254,-0.415 5.555,-3.391 5.14,-6.644 C 84.56,52.903 65.14,23.887 38.002,9.479 26.094,3.157 13.225,0 0,0"
         style="fill:#13000e;fill-opacity:1;fill-rule:nonzero;stroke:none"
         transform="matrix(0.01289555,0,0,-0.01289555,14.935454,14.470111)"
         clip-path="url(#clipPath101)" />
      <path
         id="path102"
         d="m 0,0 c 0,-38.619 33.394,-101.71 74.587,-101.71 41.194,0 74.588,63.091 74.588,101.71 0,38.62 -33.394,38.142 -74.588,38.142 C 33.394,38.142 0,38.62 0,0"
         style="fill:#13000e;fill-opacity:1;fill-rule:nonzero;stroke:none"
         transform="matrix(0.01289555,0,0,-0.01289555,14.607184,8.9130942)"
         clip-path="url(#clipPath103)" />
      <path
         id="path104"
         d="m 0,0 c -5.832,-14.853 2.181,-37.328 12.041,-37.661 10,-0.339 6.107,9.303 9.313,22.676 C 24.559,-1.612 35.48,-1.917 32.144,6.261 27.947,16.55 6.361,16.197 0,0"
         style="fill:#e9e8f5;fill-opacity:1;fill-rule:nonzero;stroke:none"
         transform="matrix(0.01289555,0,0,-0.01289555,14.902465,8.8371949)"
         clip-path="url(#clipPath105)" />
      <path
         id="path106"
         d="m 0,0 c -586.605,0 -1063.842,-477.237 -1063.842,-1063.842 0,-586.606 477.237,-1063.842 1063.842,-1063.842 586.605,0 1063.845,477.236 1063.845,1063.842 C 1063.845,-477.237 586.605,0 0,0 m 0,-2141.007 c -593.952,0 -1077.163,483.213 -1077.163,1077.165 0,593.951 483.211,1077.165 1077.163,1077.165 593.951,0 1077.165,-483.214 1077.165,-1077.165 0,-593.952 -483.214,-1077.165 -1077.165,-1077.165"
         style="fill:#0e060c;fill-opacity:1;fill-rule:nonzero;stroke:none"
         transform="matrix(0.01289555,0,0,-0.01289555,13.890613,0.1718012)"
         clip-path="url(#clipPath107)" />
    </g>
  </g>
</svg>
