<?xml version="1.0" encoding="UTF-8" standalone="no"?>
<!-- Created with Inkscape (http://www.inkscape.org/) -->

<svg
   width="235.561"
   height="250"
   viewBox="0 0 62.325514 66.145833"
   version="1.1"
   id="svg1"
   inkscape:version="1.4.2 (ebf0e940d0, 2025-05-08)"
   sodipodi:docname="repair_icon.svg"
   xml:space="preserve"
   xmlns:inkscape="http://www.inkscape.org/namespaces/inkscape"
   xmlns:sodipodi="http://sodipodi.sourceforge.net/DTD/sodipodi-0.dtd"
   xmlns="http://www.w3.org/2000/svg"
   xmlns:svg="http://www.w3.org/2000/svg"><sodipodi:namedview
     id="namedview1"
     pagecolor="#ffffff"
     bordercolor="#000000"
     borderopacity="0.25"
     inkscape:showpageshadow="2"
     inkscape:pageopacity="0.0"
     inkscape:pagecheckerboard="0"
     inkscape:deskcolor="#d1d1d1"
     inkscape:document-units="mm"
     inkscape:zoom="0.55767396"
     inkscape:cx="-26.897437"
     inkscape:cy="10.758975"
     inkscape:window-width="1600"
     inkscape:window-height="828"
     inkscape:window-x="0"
     inkscape:window-y="0"
     inkscape:window-maximized="1"
     inkscape:current-layer="layer1" /><defs
     id="defs1" /><g
     inkscape:label="Шар 1"
     inkscape:groupmode="layer"
     id="layer1"><g
       id="g15"
       transform="matrix(0.90598977,0,0,0.90598977,-76.430595,20.459635)"><path
         style="fill:#d8d5e3"
         d="m 86.187873,49.820801 c -1.956046,-1.306724 -1.824195,1.045155 -1.824654,-32.546974 -4.45e-4,-32.631082 -0.06958,-31.073725 1.441395,-32.469107 0.712812,-0.658279 0.746584,-0.662094 7.027902,-0.79375 l 6.311648,-0.132291 0.618241,-0.926042 c 0.915295,-1.370986 2.084965,-1.851186 4.510295,-1.851673 1.12779,-2.26e-4 2.05052,-0.09804 2.05052,-0.21737 0,-0.521232 2.04939,-2.543694 3.02795,-2.98817 1.44598,-0.656786 3.40343,-0.634931 4.82634,0.05389 1.12632,0.545244 2.72905,2.183242 2.72905,2.789111 0,0.20932 0.80043,0.341037 2.44739,0.402737 2.74136,0.102698 3.82316,0.605288 4.47562,2.079311 l 0.34991,0.7905 h 5.92346 c 5.4771,0 5.98848,0.04019 6.78641,0.533337 1.83455,1.133815 1.72717,-1.012343 1.65017,32.983336 -0.0684,30.177918 -0.0775,30.655531 -0.59859,31.350059 -1.23037,1.63984 0.41366,1.543686 -26.39388,1.543686 H 87.086896 Z m 35.263157,-6.741525 c -5.57695,-0.0399 -14.6257,-0.03988 -20.10834,4e-5 -5.482631,0.03992 -0.91967,0.07257 10.13991,0.07255 11.05958,-2.3e-5 15.54537,-0.03269 9.96843,-0.07259 z M 131.45864,16.951595 V -8.8452796 l -19.9099,0.042343 c -10.95044,0.023289 -19.522937,0.090364 -19.049995,0.1490553 l 0.859896,0.1067121 v 24.8540702 24.85407 h 1.168986 c 0.642941,0 1.387082,0.0793 1.653645,0.176214 0.35106,0.12764 0.310849,0.03158 -0.145873,-0.348457 -0.539897,-0.449252 -0.5861,-0.607697 -0.32142,-1.102256 l 0.309113,-0.577584 h 15.436418 c 13.17175,0 15.4832,0.05636 15.75526,0.384178 0.40464,0.487562 0.12567,1.404582 -0.46492,1.528234 -0.24782,0.05189 0.65074,0.04498 1.99681,-0.01536 l 2.4474,-0.109699 v 0.826113 c 0,0.454363 0.0595,0.826114 0.13229,0.826114 0.0728,0 0.13229,-11.608594 0.13229,-25.796876 z M 95.728112,36.641044 c -0.235327,-0.439712 -0.202164,-0.653738 0.163989,-1.058333 0.442089,-0.488503 1.012817,-0.507157 15.516609,-0.507157 9.87363,0 15.23383,0.09429 15.56941,0.273893 0.57678,0.308684 0.67101,1.048531 0.19427,1.525274 -0.23968,0.239679 -4.09603,0.3175 -15.7334,0.3175 -15.350307,0 -15.417153,-0.0023 -15.710878,-0.551177 z m 13.510618,-3.653111 c -0.41576,-0.115786 -0.93968,-0.679185 -1.42927,-1.53698 -1.03043,-1.805375 -1.6154,-2.049788 -3.64633,-1.523521 -1.84062,0.476953 -1.97315,0.426046 -3.89549,-1.496293 C 98.38708,26.55058 98.34291,26.436047 98.809359,24.649815 99.336752,22.630208 99.058784,21.96248 97.25239,20.9097 95.920622,20.133535 95.864331,20.053408 95.648467,18.626617 95.525424,17.813339 95.525754,16.5134 95.6492,15.737863 c 0.213584,-1.341811 0.291223,-1.449021 1.603923,-2.214833 1.805567,-1.053345 2.083501,-1.721371 1.556236,-3.7404876 -0.46477,-1.779799 -0.381955,-2.000751 1.428451,-3.811155 1.84847,-1.848471 2.09527,-1.940675 3.92532,-1.466462 2.03093,0.526267 2.6159,0.281855 3.64633,-1.52352 0.86834,-1.5213895 1.26294,-1.7065117 3.72206,-1.7461445 2.25487,-0.036341 2.85842,0.2577358 3.71685,1.8110255 0.95559,1.729089 1.69323,2.006368 3.78811,1.42394 l 1.55327,-0.43185 1.17774,0.965069 c 0.64776,0.530787 1.55898,1.446417 2.02493,2.034733 l 0.84719,1.069664 -0.40002,1.588032 c -0.48528,1.9264616 -0.20052,2.9762326 0.93491,3.4465426 0.41295,0.17105 1.10285,0.639844 1.53311,1.041764 0.75068,0.701242 0.78228,0.823726 0.78228,3.031998 0,2.208272 -0.0316,2.330755 -0.78228,3.031998 -0.43026,0.40192 -1.13691,0.877651 -1.57033,1.057181 -1.14829,0.475638 -1.40464,1.459073 -0.88545,3.396827 l 0.42283,1.57808 -0.86471,1.09179 c -0.4756,0.600484 -1.39121,1.523207 -2.03469,2.050496 l -1.16998,0.958707 -1.54115,-0.432424 c -2.0879,-0.585837 -2.84004,-0.296494 -3.87736,1.491609 -0.50583,0.871914 -1.03369,1.433899 -1.45521,1.549257 -0.85671,0.234458 -3.64853,0.23336 -4.49283,-0.0018 z m 5.69942,-7.946351 c 1.65616,-0.732596 3.65575,-2.708743 4.38064,-4.329261 0.86238,-1.927913 0.86861,-5.050971 0.0139,-6.960038 -0.75643,-1.689478 -2.68411,-3.605572 -4.41048,-4.3839666 -1.80809,-0.815242 -5.00724,-0.822162 -6.805,-0.01472 -6.1767,2.7741846 -6.8621,11.4164736 -1.19304,15.0431796 2.2654,1.449262 5.59058,1.716804 8.01401,0.644805 z m 30.3455,25.049077 c -0.14448,-0.181901 -0.87501,-1.97408 -1.6234,-3.982619 l -1.36071,-3.651889 0.10718,-18.573111 c 0.0589,-10.215211 0.20936,-19.6254006 0.33424,-20.9115336 0.20341,-2.0949228 0.30436,-2.4048714 0.96941,-2.9765623 1.0602,-0.9113569 3.53298,-0.9180049 4.58589,-0.012329 0.62771,0.53993 0.74289,0.8667138 0.83933,2.3812503 l 0.11178,1.755439 h 1.02333 c 0.7566,0 1.24857,0.201123 1.88741,0.771601 l 0.86407,0.771602 0.0793,6.3400946 c 0.0696,5.562208 0.0267,6.392722 -0.34963,6.769024 -0.49374,0.493744 -0.63931,0.514671 -1.18488,0.17034 -0.32826,-0.207181 -0.41974,-1.338586 -0.52916,-6.544386 C 150.9058,6.1175134 150.9042,6.1034934 150.3102,6.0191314 l -0.59531,-0.08455 0.004,18.2085056 0.004,18.208507 -1.37071,3.704167 c -1.5078,4.074663 -1.66386,4.365625 -2.34145,4.365625 -0.2554,0 -0.58258,-0.148828 -0.72706,-0.330729 z"
         id="path10" /><path
         style="fill:#666768;fill-opacity:1"
         d="M 86.263038,49.884175 C 85.733719,49.56146 85.180437,48.886169 84.869588,48.183442 84.366987,47.04723 84.355805,46.257905 84.424566,16.771227 l 0.07053,-30.246715 0.616172,-0.863888 c 1.119902,-1.57013 1.510138,-1.649654 8.095144,-1.649654 h 5.959469 l 0.399678,-0.772891 c 0.737301,-1.425776 1.823181,-1.948439 4.398991,-2.11734 2.29287,-0.150348 2.33394,-0.165272 2.94123,-1.068688 0.97945,-1.457052 2.52969,-2.395531 4.25044,-2.573129 2.06178,-0.212794 4.1749,0.788463 5.18708,2.457789 l 0.69555,1.147116 1.96698,0.0084 c 2.4393,0.01037 3.94558,0.654808 4.6686,1.997382 l 0.49621,0.921398 5.82681,9.89e-4 c 6.50286,0.0011 6.97925,0.114038 8.0772,1.914822 0.51653,0.847181 0.52577,1.393975 0.52633,31.157106 6.5e-4,33.80474 0.13295,31.429815 -1.82366,32.736914 l -0.89902,0.600587 -24.36869,-9.89e-4 C 87.515433,50.419462 87.127437,50.411236 86.263034,49.884212 Z M 131.45864,17.216179 V -8.8452796 H 111.4826 91.506558 V 17.216179 43.277638 H 111.4826 131.45864 Z M 95.841502,40.779551 c -0.0805,-0.209781 -0.104899,-0.596734 -0.05422,-0.859896 0.08765,-0.455118 0.852623,-0.478476 15.670098,-0.478476 14.24995,0 15.60167,0.03758 15.85604,0.440843 0.20179,0.319913 0.18267,0.555795 -0.0697,0.859896 -0.31006,0.373596 -2.02417,0.419053 -15.80182,0.419053 -13.214528,0 -15.47524,-0.05527 -15.600394,-0.38142 z m 0.205969,-3.819741 c -0.194633,-0.123369 -0.313695,-0.508499 -0.264583,-0.855844 l 0.0893,-0.631537 15.510132,-0.06825 c 16.73523,-0.07364 16.56334,-0.0871 15.85204,1.241959 -0.29012,0.542107 -0.40334,0.54605 -15.56263,0.542028 -8.39871,-0.0022 -15.429621,-0.10499 -15.624254,-0.228359 z m 13.863769,-3.987981 c -0.71872,-0.09936 -1.3462,-0.291747 -1.3944,-0.427527 -0.0482,-0.13578 -0.43584,-0.801517 -0.86144,-1.479416 -0.93176,-1.484116 -1.76049,-1.753176 -3.6613,-1.188699 -1.20218,0.357012 -1.37627,0.350586 -2.07137,-0.07646 -1.14886,-0.705813 -3.272422,-3.09937 -3.272422,-3.688491 0,-0.286174 0.139061,-1.122764 0.309025,-1.859089 0.402147,-1.742197 0.10852,-2.377302 -1.542429,-3.336214 -0.704076,-0.408944 -1.367612,-0.872904 -1.474524,-1.031022 -0.106912,-0.158118 -0.196209,-1.380311 -0.198437,-2.715984 -0.0045,-2.700274 0.09082,-2.892747 1.886218,-3.808693 1.407456,-0.718031 1.723136,-1.473291 1.329172,-3.180033 -0.46872,-2.0306066 -0.406977,-2.2746866 0.939554,-3.7142376 2.130113,-2.277267 2.354483,-2.379692 4.196463,-1.915698 2.10092,0.529224 2.73563,0.265604 3.78767,-1.573167 l 0.82525,-1.4423933 1.65175,-0.150196 c 0.90846,-0.082608 2.18185,-0.066621 2.82975,0.035526 1.08435,0.1709563 1.24895,0.3053508 2.0703,1.6903983 1.0588,1.78545 1.72496,2.03553 3.78924,1.422506 1.60199,-0.47574 1.86789,-0.371752 3.67808,1.438443 1.8494,1.849395 1.94659,2.107007 1.44541,3.831006 -0.57618,1.9819886 -0.27944,2.7003926 1.5439,3.7377386 1.3299,0.756618 1.38436,0.833439 1.61491,2.278004 0.14173,0.888086 0.14173,2.062022 0,2.891791 -0.22607,1.323464 -0.31087,1.437992 -1.61491,2.181066 -1.81065,1.031748 -2.11882,1.761302 -1.55837,3.689192 0.23163,0.796778 0.42114,1.508394 0.42114,1.58137 0,0.279242 -1.87681,2.361909 -2.89519,3.212735 l -1.06589,0.890531 -1.48561,-0.387946 c -2.20398,-0.57554 -2.88282,-0.328001 -3.8629,1.408621 -0.45156,0.800112 -0.95264,1.494341 -1.11352,1.542731 -0.75812,0.22803 -3.06896,0.3062 -4.24512,0.143602 z m 5.69781,-8.255905 c 3.06166,-1.674779 4.61311,-4.471371 4.42856,-7.982772 -0.38693,-7.3621746 -9.028,-10.7690536 -14.40821,-5.68067 -1.90258,1.799385 -2.60005,3.452802 -2.60005,6.163697 0,2.639123 0.67033,4.283139 2.46862,6.054388 1.84859,1.820788 3.84704,2.590707 6.40691,2.468309 1.69394,-0.08099 2.27607,-0.241757 3.70417,-1.022952 z m 29.64193,25.239844 c -0.14651,-0.273753 -0.86894,-2.105492 -1.6054,-4.07053 l -1.33902,-3.572798 0.009,-18.236672 c 0.008,-15.3110166 0.07,-18.3427886 0.3875,-18.8981306 0.23349,-0.408453 0.38171,-1.43009 0.38749,-2.670972 0.0123,-2.6452469 0.37261,-3.0175699 2.9198,-3.0175699 2.50188,0 2.91041,0.3957156 2.91041,2.8191319 v 1.811077 h 1.13176 c 0.62246,0 1.40894,0.194154 1.74774,0.431454 1.19623,0.837876 1.35384,1.768508 1.35384,7.9943166 0,6.126201 -0.0862,6.565475 -1.24406,6.343318 -0.43682,-0.08381 -0.48656,-0.588814 -0.60803,-6.173411 -0.0728,-3.3451746 -0.22861,-6.2309646 -0.34634,-6.4128656 -0.11773,-0.181901 -0.44515,-0.330729 -0.7276,-0.330729 -0.50327,0 -0.51377,0.364452 -0.52434,18.1901036 l -0.0108,18.190105 -1.51057,3.96875 c -1.25942,3.30889 -1.60658,3.982417 -2.08799,4.050952 -0.35519,0.05057 -0.67992,-0.109352 -0.84378,-0.41553 z"
         id="path9" /><path
         style="fill:#f7a70f;fill-opacity:1"
         d="M 86.263038,49.884175 C 85.733719,49.56146 85.180437,48.886169 84.869588,48.183442 84.366987,47.04723 84.355805,46.257905 84.424566,16.771227 l 0.07053,-30.246715 0.616172,-0.863888 c 1.119902,-1.57013 1.510138,-1.649654 8.095144,-1.649654 h 5.959469 l 0.399678,-0.772891 c 0.737301,-1.425776 1.823181,-1.948439 4.398991,-2.11734 2.29287,-0.150348 2.33394,-0.165272 2.94123,-1.068688 0.97945,-1.457052 2.52969,-2.395531 4.25044,-2.573129 2.06178,-0.212794 4.1749,0.788463 5.18708,2.457789 l 0.69555,1.147116 1.96698,0.0084 c 2.4393,0.01037 3.94558,0.654808 4.6686,1.997382 l 0.49621,0.921398 5.82681,9.89e-4 c 6.50286,0.0011 6.97925,0.114038 8.0772,1.914822 0.51653,0.847181 0.52577,1.393975 0.52633,31.157106 6.5e-4,33.80474 0.13295,31.429815 -1.82366,32.736914 l -0.89902,0.600587 -24.36869,-9.89e-4 C 87.515433,50.419462 87.127437,50.411236 86.263034,49.884212 Z M 131.45864,17.216179 V -8.8452796 H 111.4826 91.506558 V 17.216179 43.277638 H 111.4826 131.45864 Z M 95.841502,40.779551 c -0.0805,-0.209781 -0.104899,-0.596734 -0.05422,-0.859896 0.08765,-0.455118 0.852623,-0.478476 15.670098,-0.478476 14.24995,0 15.60167,0.03758 15.85604,0.440843 0.20179,0.319913 0.18267,0.555795 -0.0697,0.859896 -0.31006,0.373596 -2.02417,0.419053 -15.80182,0.419053 -13.214528,0 -15.47524,-0.05527 -15.600394,-0.38142 z m 0.205969,-3.819741 c -0.194633,-0.123369 -0.313695,-0.508499 -0.264583,-0.855844 l 0.0893,-0.631537 15.510132,-0.06825 c 16.73523,-0.07364 16.56334,-0.0871 15.85204,1.241959 -0.29012,0.542107 -0.40334,0.54605 -15.56263,0.542028 -8.39871,-0.0022 -15.429621,-0.10499 -15.624254,-0.228359 z m 13.863769,-3.987981 c -0.71872,-0.09936 -1.3462,-0.291747 -1.3944,-0.427527 -0.0482,-0.13578 -0.43584,-0.801517 -0.86144,-1.479416 -0.93176,-1.484116 -1.76049,-1.753176 -3.6613,-1.188699 -1.20218,0.357012 -1.37627,0.350586 -2.07137,-0.07646 -1.14886,-0.705813 -3.272422,-3.09937 -3.272422,-3.688491 0,-0.286174 0.139061,-1.122764 0.309025,-1.859089 0.402147,-1.742197 0.10852,-2.377302 -1.542429,-3.336214 -0.704076,-0.408944 -1.367612,-0.872904 -1.474524,-1.031022 -0.106912,-0.158118 -0.196209,-1.380311 -0.198437,-2.715984 -0.0045,-2.700274 0.09082,-2.892747 1.886218,-3.808693 1.407456,-0.718031 1.723136,-1.473291 1.329172,-3.180033 -0.46872,-2.0306066 -0.406977,-2.2746866 0.939554,-3.7142376 2.130113,-2.277267 2.354483,-2.379692 4.196463,-1.915698 2.10092,0.529224 2.73563,0.265604 3.78767,-1.573167 l 0.82525,-1.4423933 1.65175,-0.150196 c 0.90846,-0.082608 2.18185,-0.066621 2.82975,0.035526 1.08435,0.1709563 1.24895,0.3053508 2.0703,1.6903983 1.0588,1.78545 1.72496,2.03553 3.78924,1.422506 1.60199,-0.47574 1.86789,-0.371752 3.67808,1.438443 1.8494,1.849395 1.94659,2.107007 1.44541,3.831006 -0.57618,1.9819886 -0.27944,2.7003926 1.5439,3.7377386 1.3299,0.756618 1.38436,0.833439 1.61491,2.278004 0.14173,0.888086 0.14173,2.062022 0,2.891791 -0.22607,1.323464 -0.31087,1.437992 -1.61491,2.181066 -1.81065,1.031748 -2.11882,1.761302 -1.55837,3.689192 0.23163,0.796778 0.42114,1.508394 0.42114,1.58137 0,0.279242 -1.87681,2.361909 -2.89519,3.212735 l -1.06589,0.890531 -1.48561,-0.387946 c -2.20398,-0.57554 -2.88282,-0.328001 -3.8629,1.408621 -0.45156,0.800112 -0.95264,1.494341 -1.11352,1.542731 -0.75812,0.22803 -3.06896,0.3062 -4.24512,0.143602 z m 5.69781,-8.255905 c 3.06166,-1.674779 4.61311,-4.471371 4.42856,-7.982772 -0.38693,-7.3621746 -9.028,-10.7690536 -14.40821,-5.68067 -1.90258,1.799385 -2.60005,3.452802 -2.60005,6.163697 0,2.639123 0.67033,4.283139 2.46862,6.054388 1.84859,1.820788 3.84704,2.590707 6.40691,2.468309 1.69394,-0.08099 2.27607,-0.241757 3.70417,-1.022952 z m 6.85376,-37.622763 c 0,-2.361986 -0.34183,-3.441058 -1.21625,-3.839472 -0.3634,-0.165578 -1.72609,-0.301052 -3.02818,-0.301052 h -2.36745 l -0.56159,-1.194731 c -0.77845,-1.656098 -1.86706,-2.377145 -3.5889,-2.377145 -1.6834,0 -2.62089,0.613071 -3.46274,2.264448 l -0.59907,1.175136 -2.79791,0.132292 c -3.63089,0.171676 -3.80916,0.34641 -3.80916,3.733478 v 2.351939 h 10.71562 10.71563 z m -11.32417,-3.928857 c -0.47645,-0.476452 -0.38263,-1.216525 0.19329,-1.524751 0.89863,-0.480928 1.75462,0.793923 1.02379,1.524751 -0.17462,0.174625 -0.44847,0.3175 -0.60854,0.3175 -0.16007,0 -0.43391,-0.142875 -0.60854,-0.3175 z m 34.11234,66.791464 c -0.14651,-0.273753 -0.86894,-2.105492 -1.6054,-4.07053 l -1.33902,-3.572798 0.009,-18.236672 c 0.008,-15.3110166 0.07,-18.3427886 0.3875,-18.8981306 0.23349,-0.408453 0.38171,-1.43009 0.38749,-2.670972 0.0123,-2.6452469 0.37261,-3.0175699 2.9198,-3.0175699 2.50188,0 2.91041,0.3957156 2.91041,2.8191319 v 1.811077 h 1.13176 c 0.62246,0 1.40894,0.194154 1.74774,0.431454 1.19623,0.837876 1.35384,1.768508 1.35384,7.9943166 0,6.126201 -0.0862,6.565475 -1.24406,6.343318 -0.43682,-0.08381 -0.48656,-0.588814 -0.60803,-6.173411 -0.0728,-3.3451746 -0.22861,-6.2309646 -0.34634,-6.4128656 -0.11773,-0.181901 -0.44515,-0.330729 -0.7276,-0.330729 -0.50327,0 -0.51377,0.364452 -0.52434,18.1901036 l -0.0108,18.190105 -1.51057,3.96875 c -1.25942,3.30889 -1.60658,3.982417 -2.08799,4.050952 -0.35519,0.05057 -0.67992,-0.109352 -0.84378,-0.41553 z"
         id="path8" /><path
         style="fill:#f7a70f;fill-opacity:1"
         d="M 86.263038,49.884175 C 85.733719,49.56146 85.180437,48.886169 84.869588,48.183442 84.366987,47.04723 84.355805,46.257905 84.424566,16.771227 l 0.07053,-30.246715 0.616172,-0.863888 c 1.119902,-1.57013 1.510138,-1.649654 8.095144,-1.649654 h 5.959469 l 0.399678,-0.772891 c 0.737301,-1.425776 1.823181,-1.948439 4.398991,-2.11734 2.29287,-0.150348 2.33394,-0.165272 2.94123,-1.068688 0.97945,-1.457052 2.52969,-2.395531 4.25044,-2.573129 2.06178,-0.212794 4.1749,0.788463 5.18708,2.457789 l 0.69555,1.147116 1.96698,0.0084 c 2.4393,0.01037 3.94558,0.654808 4.6686,1.997382 l 0.49621,0.921398 5.82681,9.89e-4 c 6.50286,0.0011 6.97925,0.114038 8.0772,1.914822 0.51653,0.847181 0.52577,1.393975 0.52633,31.157106 6.5e-4,33.80474 0.13295,31.429815 -1.82366,32.736914 l -0.89902,0.600587 -24.36869,-9.89e-4 c -23.994177,-9.74e-4 -24.382173,-0.0092 -25.246576,-0.536224 z m 37.079602,-1.513223 c -6.42834,-0.03944 -17.0249,-0.03945 -23.54792,-2.9e-5 -6.52302,0.03942 -1.263475,0.07169 11.68788,0.07171 12.95135,1.6e-5 18.28837,-0.03224 11.86004,-0.07168 z m 8.72183,-2.447481 c 0.13752,-0.525877 0.008,-0.529167 -20.81831,-0.529167 -15.946866,0 -21.032586,-0.0759 -21.274185,-0.3175 -0.460679,-0.460678 -0.460679,-55.260572 0,-55.72125 0.221746,-0.221746 1.658055,-0.3175 4.762499,-0.3175 h 4.445 v -1.5875 -1.5875 h -5.55964 -5.559641 l 0.06954,29.473309 c 0.06854,29.050831 0.07712,29.481741 0.598703,30.061438 0.291042,0.32347 0.767292,0.68559 1.058333,0.804711 0.291042,0.119121 9.891452,0.224131 21.334241,0.233355 20.58966,0.0166 20.80651,0.01129 20.94346,-0.512396 z M 131.45864,17.216179 V -8.8452796 H 111.4826 91.506558 V 17.216179 43.277638 H 111.4826 131.45864 Z M 95.841502,40.779551 c -0.0805,-0.209781 -0.104899,-0.596734 -0.05422,-0.859896 0.08765,-0.455118 0.852623,-0.478476 15.670098,-0.478476 14.24995,0 15.60167,0.03758 15.85604,0.440843 0.20179,0.319913 0.18267,0.555795 -0.0697,0.859896 -0.31006,0.373596 -2.02417,0.419053 -15.80182,0.419053 -13.214528,0 -15.47524,-0.05527 -15.600394,-0.38142 z m 0.205969,-3.819741 c -0.194633,-0.123369 -0.313695,-0.508499 -0.264583,-0.855844 l 0.0893,-0.631537 15.510132,-0.06825 c 16.73523,-0.07364 16.56334,-0.0871 15.85204,1.241959 -0.29012,0.542107 -0.40334,0.54605 -15.56263,0.542028 -8.39871,-0.0022 -15.429621,-0.10499 -15.624254,-0.228359 z m 13.863769,-3.987981 c -0.71872,-0.09936 -1.3462,-0.291747 -1.3944,-0.427527 -0.0482,-0.13578 -0.43584,-0.801517 -0.86144,-1.479416 -0.93176,-1.484116 -1.76049,-1.753176 -3.6613,-1.188699 -1.20218,0.357012 -1.37627,0.350586 -2.07137,-0.07646 -1.14886,-0.705813 -3.272422,-3.09937 -3.272422,-3.688491 0,-0.286174 0.139061,-1.122764 0.309025,-1.859089 0.402147,-1.742197 0.10852,-2.377302 -1.542429,-3.336214 -0.704076,-0.408944 -1.367612,-0.872904 -1.474524,-1.031022 -0.106912,-0.158118 -0.196209,-1.380311 -0.198437,-2.715984 -0.0045,-2.700274 0.09082,-2.892747 1.886218,-3.808693 1.407456,-0.718031 1.723136,-1.473291 1.329172,-3.180033 -0.46872,-2.0306066 -0.406977,-2.2746866 0.939554,-3.7142376 2.130113,-2.277267 2.354483,-2.379692 4.196463,-1.915698 2.10092,0.529224 2.73563,0.265604 3.78767,-1.573167 l 0.82525,-1.4423933 1.65175,-0.150196 c 0.90846,-0.082608 2.18185,-0.066621 2.82975,0.035526 1.08435,0.1709563 1.24895,0.3053508 2.0703,1.6903983 1.0588,1.78545 1.72496,2.03553 3.78924,1.422506 1.60199,-0.47574 1.86789,-0.371752 3.67808,1.438443 1.8494,1.849395 1.94659,2.107007 1.44541,3.831006 -0.57618,1.9819886 -0.27944,2.7003926 1.5439,3.7377386 1.3299,0.756618 1.38436,0.833439 1.61491,2.278004 0.14173,0.888086 0.14173,2.062022 0,2.891791 -0.22607,1.323464 -0.31087,1.437992 -1.61491,2.181066 -1.81065,1.031748 -2.11882,1.761302 -1.55837,3.689192 0.23163,0.796778 0.42114,1.508394 0.42114,1.58137 0,0.279242 -1.87681,2.361909 -2.89519,3.212735 l -1.06589,0.890531 -1.48561,-0.387946 c -2.20398,-0.57554 -2.88282,-0.328001 -3.8629,1.408621 -0.45156,0.800112 -0.95264,1.494341 -1.11352,1.542731 -0.75812,0.22803 -3.06896,0.3062 -4.24512,0.143602 z m 5.69781,-8.255905 c 3.06166,-1.674779 4.61311,-4.471371 4.42856,-7.982772 -0.38693,-7.3621746 -9.028,-10.7690536 -14.40821,-5.68067 -1.90258,1.799385 -2.60005,3.452802 -2.60005,6.163697 0,2.639123 0.67033,4.283139 2.46862,6.054388 1.84859,1.820788 3.84704,2.590707 6.40691,2.468309 1.69394,-0.08099 2.27607,-0.241757 3.70417,-1.022952 z m 6.85376,-37.622763 c 0,-2.361986 -0.34183,-3.441058 -1.21625,-3.839472 -0.3634,-0.165578 -1.72609,-0.301052 -3.02818,-0.301052 h -2.36745 l -0.56159,-1.194731 c -0.77845,-1.656098 -1.86706,-2.377145 -3.5889,-2.377145 -1.6834,0 -2.62089,0.613071 -3.46274,2.264448 l -0.59907,1.175136 -2.79791,0.132292 c -3.63089,0.171676 -3.80916,0.34641 -3.80916,3.733478 v 2.351939 h 10.71562 10.71563 z m -11.32417,-3.928857 c -0.47645,-0.476452 -0.38263,-1.216525 0.19329,-1.524751 0.89863,-0.480928 1.75462,0.793923 1.02379,1.524751 -0.17462,0.174625 -0.44847,0.3175 -0.60854,0.3175 -0.16007,0 -0.43391,-0.142875 -0.60854,-0.3175 z m 19.60449,5.677539 c -1.04838,-0.05009 -2.83431,-0.05039 -3.96875,-6.74e-4 -1.13444,0.04972 -0.27668,0.0907 1.90614,0.09107 2.18281,3.7e-4 3.11098,-0.04031 2.06261,-0.09039 z m -6.24111,-1.718934 c -0.0633,-0.329118 -0.11747,-0.122147 -0.12041,0.459936 -0.003,0.582084 0.0488,0.851362 0.11507,0.598398 0.0662,-0.252965 0.0686,-0.729215 0.005,-1.058334 z m 20.74896,62.832859 c -0.14651,-0.273753 -0.86894,-2.105492 -1.6054,-4.07053 l -1.33902,-3.572798 0.009,-18.236672 c 0.008,-15.3110166 0.07,-18.3427886 0.3875,-18.8981306 0.23349,-0.408453 0.38171,-1.43009 0.38749,-2.670972 0.0123,-2.6452469 0.37261,-3.0175699 2.9198,-3.0175699 2.50188,0 2.91041,0.3957156 2.91041,2.8191319 v 1.811077 h 1.13176 c 0.62246,0 1.40894,0.194154 1.74774,0.431454 1.19623,0.837876 1.35384,1.768508 1.35384,7.9943166 0,6.126201 -0.0862,6.565475 -1.24406,6.343318 -0.43682,-0.08381 -0.48656,-0.588814 -0.60803,-6.173411 -0.0728,-3.3451746 -0.22861,-6.2309646 -0.34634,-6.4128656 -0.11773,-0.181901 -0.44515,-0.330729 -0.7276,-0.330729 -0.50327,0 -0.51377,0.364452 -0.52434,18.1901036 l -0.0108,18.190105 -1.51057,3.96875 c -1.25942,3.30889 -1.60658,3.982417 -2.08799,4.050952 -0.35519,0.05057 -0.67992,-0.109352 -0.84378,-0.41553 z m 2.34724,-17.790631 v -8.995833 h -1.05833 -1.05833 v 8.995833 8.995834 h 1.05833 1.05833 z m 0,-18.520833 V 5.9713874 h -1.05833 -1.05833 v 7.5246526 7.524654 l 0.99218,0.103786 c 0.54571,0.05708 1.02196,0.123801 1.05834,0.148263 0.0364,0.02446 0.0661,-3.408335 0.0661,-7.628439 z"
         id="path7" /><path
         style="fill:#666768;fill-opacity:1"
         d="M 86.263038,49.884175 C 85.733719,49.56146 85.180437,48.886169 84.869588,48.183442 84.366987,47.04723 84.355805,46.257905 84.424566,16.771227 l 0.07053,-30.246715 0.616172,-0.863888 c 1.119902,-1.57013 1.510138,-1.649654 8.095144,-1.649654 h 5.959469 l 0.399678,-0.772891 c 0.737301,-1.425776 1.823181,-1.948439 4.398991,-2.11734 2.29287,-0.150348 2.33394,-0.165272 2.94123,-1.068688 0.97945,-1.457052 2.52969,-2.395531 4.25044,-2.573129 2.06178,-0.212794 4.1749,0.788463 5.18708,2.457789 l 0.69555,1.147116 1.96698,0.0084 c 2.4393,0.01037 3.94558,0.654808 4.6686,1.997382 l 0.49621,0.921398 5.82681,9.89e-4 c 6.50286,0.0011 6.97925,0.114038 8.0772,1.914822 0.51653,0.847181 0.52577,1.393975 0.52633,31.157106 6.5e-4,33.80474 0.13295,31.429815 -1.82366,32.736914 l -0.89902,0.600587 -24.36869,-9.89e-4 c -23.994177,-9.74e-4 -24.382173,-0.0092 -25.246576,-0.536224 z m 49.837832,-1.964302 0.64944,-0.649432 V 17.216179 -12.838083 l -0.64944,-0.649432 c -0.64837,-0.648375 -0.65848,-0.649431 -6.2177,-0.649431 h -5.56828 v 1.5875 1.5875 h 4.20094 c 3.22497,0 4.27051,0.08383 4.50041,0.360846 0.42348,0.510265 0.42843,55.118325 0.005,55.628478 -0.24151,0.291001 -4.04202,0.356381 -21.14431,0.363748 -13.088011,0.0056 -21.105372,-0.08816 -21.536188,-0.251955 L 89.65443,44.878235 V 17.232036 c 0,-27.0621958 0.01081,-27.651983 0.511772,-27.92009 0.29186,-0.156199 2.338341,-0.273892 4.7625,-0.273892 h 4.250727 v -1.5875 -1.5875 h -5.761961 c -4.786806,0 -5.861482,0.06971 -6.35,0.411878 l -0.588038,0.411877 v 30.52937 30.52937 l 0.588038,0.411877 c 0.521683,0.365402 3.284696,0.411878 24.485982,0.411878 H 135.4514 Z M 131.45864,17.216179 V -8.8452796 H 111.4826 91.506558 V 17.216179 43.277638 H 111.4826 131.45864 Z M 95.841502,40.779551 c -0.0805,-0.209781 -0.104899,-0.596734 -0.05422,-0.859896 0.08765,-0.455118 0.852623,-0.478476 15.670098,-0.478476 14.24995,0 15.60167,0.03758 15.85604,0.440843 0.20179,0.319913 0.18267,0.555795 -0.0697,0.859896 -0.31006,0.373596 -2.02417,0.419053 -15.80182,0.419053 -13.214528,0 -15.47524,-0.05527 -15.600394,-0.38142 z m 0.205969,-3.819741 c -0.194633,-0.123369 -0.313695,-0.508499 -0.264583,-0.855844 l 0.0893,-0.631537 15.510132,-0.06825 c 16.73523,-0.07364 16.56334,-0.0871 15.85204,1.241959 -0.29012,0.542107 -0.40334,0.54605 -15.56263,0.542028 -8.39871,-0.0022 -15.429621,-0.10499 -15.624254,-0.228359 z m 13.863769,-3.987981 c -0.71872,-0.09936 -1.3462,-0.291747 -1.3944,-0.427527 -0.0482,-0.13578 -0.43584,-0.801517 -0.86144,-1.479416 -0.93176,-1.484116 -1.76049,-1.753176 -3.6613,-1.188699 -1.20218,0.357012 -1.37627,0.350586 -2.07137,-0.07646 -1.14886,-0.705813 -3.272422,-3.09937 -3.272422,-3.688491 0,-0.286174 0.139061,-1.122764 0.309025,-1.859089 0.402147,-1.742197 0.10852,-2.377302 -1.542429,-3.336214 -0.704076,-0.408944 -1.367612,-0.872904 -1.474524,-1.031022 -0.106912,-0.158118 -0.196209,-1.380311 -0.198437,-2.715984 -0.0045,-2.700274 0.09082,-2.892747 1.886218,-3.808693 1.407456,-0.718031 1.723136,-1.473291 1.329172,-3.180033 -0.46872,-2.0306066 -0.406977,-2.2746866 0.939554,-3.7142376 2.130113,-2.277267 2.354483,-2.379692 4.196463,-1.915698 2.10092,0.529224 2.73563,0.265604 3.78767,-1.573167 l 0.82525,-1.4423933 1.65175,-0.150196 c 0.90846,-0.082608 2.18185,-0.066621 2.82975,0.035526 1.08435,0.1709563 1.24895,0.3053508 2.0703,1.6903983 1.0588,1.78545 1.72496,2.03553 3.78924,1.422506 1.60199,-0.47574 1.86789,-0.371752 3.67808,1.438443 1.8494,1.849395 1.94659,2.107007 1.44541,3.831006 -0.57618,1.9819886 -0.27944,2.7003926 1.5439,3.7377386 1.3299,0.756618 1.38436,0.833439 1.61491,2.278004 0.14173,0.888086 0.14173,2.062022 0,2.891791 -0.22607,1.323464 -0.31087,1.437992 -1.61491,2.181066 -1.81065,1.031748 -2.11882,1.761302 -1.55837,3.689192 0.23163,0.796778 0.42114,1.508394 0.42114,1.58137 0,0.279242 -1.87681,2.361909 -2.89519,3.212735 l -1.06589,0.890531 -1.48561,-0.387946 c -2.20398,-0.57554 -2.88282,-0.328001 -3.8629,1.408621 -0.45156,0.800112 -0.95264,1.494341 -1.11352,1.542731 -0.75812,0.22803 -3.06896,0.3062 -4.24512,0.143602 z m 5.69781,-8.255905 c 3.06166,-1.674779 4.61311,-4.471371 4.42856,-7.982772 -0.38693,-7.3621746 -9.028,-10.7690536 -14.40821,-5.68067 -1.90258,1.799385 -2.60005,3.452802 -2.60005,6.163697 0,2.639123 0.67033,4.283139 2.46862,6.054388 1.84859,1.820788 3.84704,2.590707 6.40691,2.468309 1.69394,-0.08099 2.27607,-0.241757 3.70417,-1.022952 z m 6.85376,-37.622763 c 0,-2.361986 -0.34183,-3.441058 -1.21625,-3.839472 -0.3634,-0.165578 -1.72609,-0.301052 -3.02818,-0.301052 h -2.36745 l -0.56159,-1.194731 c -0.77845,-1.656098 -1.86706,-2.377145 -3.5889,-2.377145 -1.6834,0 -2.62089,0.613071 -3.46274,2.264448 l -0.59907,1.175136 -2.79791,0.132292 c -3.63089,0.171676 -3.80916,0.34641 -3.80916,3.733478 v 2.351939 h 10.71562 10.71563 z m -11.32417,-3.928857 c -0.47645,-0.476452 -0.38263,-1.216525 0.19329,-1.524751 0.89863,-0.480928 1.75462,0.793923 1.02379,1.524751 -0.17462,0.174625 -0.44847,0.3175 -0.60854,0.3175 -0.16007,0 -0.43391,-0.142875 -0.60854,-0.3175 z m 34.11234,66.791464 c -0.14651,-0.273753 -0.86894,-2.105492 -1.6054,-4.07053 l -1.33902,-3.572798 0.009,-18.236672 c 0.008,-15.3110166 0.07,-18.3427886 0.3875,-18.8981306 0.23349,-0.408453 0.38171,-1.43009 0.38749,-2.670972 0.0123,-2.6452469 0.37261,-3.0175699 2.9198,-3.0175699 2.50188,0 2.91041,0.3957156 2.91041,2.8191319 v 1.811077 h 1.13176 c 0.62246,0 1.40894,0.194154 1.74774,0.431454 1.19623,0.837876 1.35384,1.768508 1.35384,7.9943166 0,6.126201 -0.0862,6.565475 -1.24406,6.343318 -0.43682,-0.08381 -0.48656,-0.588814 -0.60803,-6.173411 -0.0728,-3.3451746 -0.22861,-6.2309646 -0.34634,-6.4128656 -0.11773,-0.181901 -0.44515,-0.330729 -0.7276,-0.330729 -0.50327,0 -0.51377,0.364452 -0.52434,18.1901036 l -0.0108,18.190105 -1.51057,3.96875 c -1.25942,3.30889 -1.60658,3.982417 -2.08799,4.050952 -0.35519,0.05057 -0.67992,-0.109352 -0.84378,-0.41553 z m 2.61183,-17.806245 v -8.980219 h -1.85209 -1.85208 v 8.983208 8.983208 l 1.65364,0.07877 c 0.90951,0.04332 1.74295,0.04198 1.85209,-0.003 0.10914,-0.04497 0.19844,-4.122859 0.19844,-9.061979 z m -0.0621,-18.439073 -0.0702,-7.6067706 h -1.7198 -1.71979 l -0.0702,7.6067706 -0.0702,7.606771 h 1.8602 1.8602 z"
         id="path6" /><path
         style="fill:#4f7aa4"
         d="m 86.547269,49.986239 c -0.472036,-0.232704 -1.097114,-0.809594 -1.389062,-1.281976 -0.523385,-0.846854 -0.530802,-1.288048 -0.529826,-31.519314 9.52e-4,-29.53108 0.01929,-30.690454 0.497929,-31.475363 0.941548,-1.544029 1.69453,-1.698616 8.273875,-1.698616 h 5.914697 l 0.361872,-0.817525 c 0.608746,-1.375257 1.679656,-1.826187 4.339666,-1.82732 1.9737,-8.4e-4 2.34796,-0.07068 2.48653,-0.464009 0.84314,-2.393347 4.04372,-3.956258 6.65941,-3.251927 1.23804,0.33337 3.03,1.79592 3.63583,2.96746 0.38044,0.735691 0.42387,0.747487 2.75179,0.747487 2.26134,0 2.40578,0.03559 3.28784,0.810046 0.50742,0.445525 0.99584,1.040837 1.08537,1.322917 0.15445,0.486648 0.4561,0.512892 5.89963,0.513282 6.311,4.53e-4 6.97293,0.137153 8.0993,1.672637 0.54683,0.745438 0.54798,0.811643 0.54798,31.532161 0,30.720518 -0.001,30.786723 -0.54798,31.532161 -0.30138,0.410853 -0.95623,0.95518 -1.4552,1.209616 -0.8443,0.430515 -2.57765,0.46222 -24.98432,0.456996 -21.52358,-0.005 -24.168105,-0.05048 -24.935331,-0.428713 z m 49.553601,-2.066366 0.64944,-0.649432 V 17.216179 -12.838083 l -0.64944,-0.649432 c -0.64837,-0.648375 -0.65848,-0.649431 -6.2177,-0.649431 h -5.56828 v 1.5875 1.5875 h 4.20094 c 3.22497,0 4.27051,0.08383 4.50041,0.360846 0.42348,0.510265 0.42843,55.118325 0.005,55.628478 -0.24151,0.291001 -4.04202,0.356381 -21.14431,0.363748 -13.088011,0.0056 -21.105372,-0.08816 -21.536188,-0.251955 L 89.65443,44.878235 V 17.232036 c 0,-27.0621958 0.01081,-27.651983 0.511772,-27.92009 0.29186,-0.156199 2.338341,-0.273892 4.7625,-0.273892 h 4.250727 v -1.5875 -1.5875 h -5.761961 c -4.786806,0 -5.861482,0.06971 -6.35,0.411878 l -0.588038,0.411877 v 30.52937 30.52937 l 0.588038,0.411877 c 0.521683,0.365402 3.284696,0.411878 24.485982,0.411878 h 23.89795 z m -4.64223,-30.439111 c 0,-14.3338016 0.0298,-26.1507552 0.0661,-26.2598958 0.0364,-0.1091406 -8.95284,-0.2289516 -19.97604,-0.2662466 L 91.506553,-9.1131894 V 17.214516 43.542221 h 19.976037 19.97604 z M 96.07062,40.98685 c -0.420188,-0.170957 -0.427724,-0.945967 -0.01323,-1.360462 0.376919,-0.376919 30.2699,-0.459341 30.86034,-0.08509 0.19463,0.12337 0.31369,0.5085 0.26458,0.855845 l -0.0893,0.631536 -15.34583,0.04636 c -8.44021,0.0255 -15.494665,-0.01419 -15.676566,-0.08819 z m -0.0556,-4.178794 c -0.175355,-0.21129 -0.2776,-0.598243 -0.227211,-0.859896 0.08695,-0.451507 0.886309,-0.475731 15.698411,-0.475731 h 15.60679 l 0.0893,0.631537 c 0.0491,0.347345 -0.0699,0.732475 -0.26458,0.855844 -0.19463,0.123369 -7.15563,0.226131 -15.46888,0.228359 -12.893986,0.0035 -15.161845,-0.0524 -15.433825,-0.380113 z m 12.63748,-4.312189 c -0.21922,-0.254662 -0.6636,-0.946409 -0.98751,-1.537216 -0.76184,-1.389563 -1.64286,-1.737912 -3.21022,-1.269298 -1.99753,0.597231 -2.28852,0.500876 -4.11599,-1.362925 -0.928663,-0.947124 -1.688475,-1.940233 -1.688475,-2.206908 0,-0.266676 0.167522,-1.0415 0.372272,-1.721832 0.513865,-1.707443 0.163159,-2.529779 -1.470538,-3.448125 -0.703846,-0.395652 -1.399518,-0.943209 -1.545936,-1.216794 -0.345302,-0.645203 -0.345302,-4.387978 0,-5.03318 0.146418,-0.273585 0.84209,-0.821143 1.545936,-1.216794 1.633697,-0.918346 1.984403,-1.740683 1.470538,-3.448125 -0.20475,-0.6803316 -0.372272,-1.4671936 -0.372272,-1.7485816 0,-0.281388 0.778008,-1.289623 1.728905,-2.240523 1.91235,-1.91235 1.3958,-1.781785 4.87291,-1.231679 0.92517,0.14637 1.13081,0.07452 1.78593,-0.623985 0.40721,-0.434171 0.98053,-1.193218 1.27405,-1.686771 0.53243,-0.8952722 0.53892,-0.8975505 2.77813,-0.9754345 1.23445,-0.042936 2.49185,-0.016044 2.79424,0.059761 0.31191,0.078193 0.86267,0.7126925 1.27292,1.4664635 0.83482,1.533847 1.47528,1.964502 2.63918,1.774628 0.45638,-0.07445 1.32913,-0.219741 1.93945,-0.322866 1.08181,-0.18279 1.14975,-0.149284 2.70475,1.333932 0.87728,0.836787 1.67081,1.760109 1.7634,2.051827 0.0926,0.291717 0.0271,1.199434 -0.14549,2.01715 -0.41472,1.9646996 -0.1225,2.6715036 1.49225,3.6093756 0.70263,0.408093 1.36497,0.871357 1.47188,1.029475 0.10692,0.158118 0.19439,1.359049 0.19439,2.668737 0,1.309687 -0.0875,2.510619 -0.19439,2.668737 -0.10691,0.158118 -0.76925,0.621381 -1.47188,1.029474 -1.58019,0.917799 -1.91721,1.668964 -1.52525,3.399578 0.45012,1.987438 0.3799,2.230697 -1.0936,3.788708 -1.88004,1.987868 -2.04977,2.057211 -4.05832,1.657976 -2.12452,-0.422289 -2.70041,-0.184969 -3.6914,1.521223 -0.40895,0.704075 -0.87291,1.367611 -1.03103,1.474523 -0.15811,0.106913 -1.37036,0.19621 -2.69387,0.198438 -1.96692,0.0033 -2.47918,-0.08051 -2.80496,-0.458969 z m 3.09468,-1.582921 c -1.24887,-0.07379 -1.68781,-0.218325 -2.05777,-0.677575 l -0.47028,-0.583775 0.31431,0.727604 c 0.30099,0.696788 0.38814,0.725485 2.05777,0.677575 l 1.74347,-0.05003 z m 2.27277,-1.379449 c 0.44803,-0.797157 0.90578,-1.172306 1.93516,-1.585971 1.26291,-0.507507 1.4405,-0.517132 2.80353,-0.151932 l 1.45521,0.389898 1.14399,-1.14203 1.144,-1.142031 -0.39218,-1.501801 c -0.3682,-1.410005 -0.35936,-1.579453 0.14456,-2.772212 0.42618,-1.008739 0.80268,-1.419903 1.82787,-1.996192 l 1.29113,-0.725781 v -1.689266 -1.689267 l -1.29113,-0.725781 c -1.02519,-0.576289 -1.40169,-0.987452 -1.82787,-1.996192 -0.50392,-1.192759 -0.51276,-1.362206 -0.14456,-2.772212 l 0.39218,-1.5018006 -1.16732,-1.167318 -1.16732,-1.167319 -1.45212,0.422145 c -1.39276,0.404886 -1.50373,0.399318 -2.71435,-0.136196 -0.94751,-0.419129 -1.46358,-0.882262 -2.06983,-1.857512 l -0.80761,-1.299172 h -1.63819 -1.6382 l -0.70003,1.286198 c -0.57379,1.054238 -0.94161,1.386589 -2.0395,1.842854 -0.82142,0.341365 -1.62524,0.4995 -2.07836,0.408875 -0.62765,-0.12553 -0.8881,0.02525 -1.72982,1.001417 -1.0572,1.226076 -2.00305,2.8723046 -2.00305,3.4862736 0,0.901551 -1.12103,2.841132 -1.864242,3.22546 -0.429876,0.222297 -0.781593,0.463709 -0.781593,0.536469 0,0.07276 0.359254,-0.05349 0.798343,-0.280547 l 0.798342,-0.41284 -0.16588,1.037342 c -0.09123,0.570538 -0.0115,1.914117 0.17724,2.985732 0.18871,1.071615 0.3156,2.097219 0.28198,2.27912 -0.0336,0.181901 0.0376,0.330729 0.15835,0.330729 0.12071,0 0.23636,0.20836 0.25699,0.463021 0.0206,0.254662 0.15302,0.87974 0.2942,1.389063 0.20629,0.744228 0.262,0.800255 0.28377,0.285367 0.0239,-0.564475 0.12283,-0.496118 0.83214,0.57474 0.44278,0.668478 1.30598,1.668461 1.91823,2.222186 0.61224,0.553725 1.0834,1.098764 1.04702,1.211198 -0.0364,0.112434 0.0994,0.204425 0.30184,0.204425 0.69427,0 2.64227,1.01832 3.12495,1.633571 0.32433,0.413411 0.42831,0.461801 0.31681,0.147433 -0.14477,-0.408176 -0.078,-0.434505 0.52273,-0.206108 0.37879,0.144015 1.45957,0.340823 2.40174,0.437351 1.56655,0.160498 1.69044,0.217713 1.44885,0.669129 -0.51884,0.969452 -0.004,0.473501 0.572,-0.550516 z m -5.59453,-2.235226 c -3.09608,-1.189424 -5.17446,-3.032285 -6.44618,-5.715709 -0.74174,-1.565136 -0.81539,-1.959543 -0.81539,-4.366383 0,-2.41187 0.0727,-2.799354 0.82268,-4.381963 1.01173,-2.135059 2.90897,-4.0817216 5.01246,-5.1430366 1.46367,-0.738494 1.7758,-0.79375 4.48361,-0.79375 2.68479,0 3.03348,0.06034 4.49791,0.778304 0.87313,0.428068 2.21817,1.408161 2.98899,2.177985 5.09747,5.0908806 3.56613,13.7429596 -2.98899,16.8878336 -1.34383,0.644715 -1.97331,0.773621 -4.10104,0.839825 -1.66366,0.05176 -2.83155,-0.04396 -3.45405,-0.283106 z m 6.19502,-2.021123 c 1.98121,-0.741265 3.68221,-2.315571 4.6701,-4.322259 0.67521,-1.371538 0.81546,-1.973779 0.8132,-3.491802 -0.003,-2.115682 -0.2629,-3.147794 -1.19062,-4.730832 -1.4754,-2.517573 -3.81212,-3.8902356 -6.90136,-4.0540746 -2.75753,-0.146246 -4.63183,0.516516 -6.43173,2.2742966 -1.67218,1.633054 -2.47311,3.339949 -2.6361,5.617879 -0.28244,3.94745 1.99634,7.484667 5.69773,8.844268 1.51347,0.55593 4.29653,0.491937 5.97878,-0.137476 z m -10.67847,2.494469 c 0,-0.05416 -0.28907,-0.07454 -0.64238,-0.0453 -0.35331,0.02924 -0.59132,0.135793 -0.52891,0.236781 0.11041,0.178633 1.17129,0.0052 1.17129,-0.191477 z m -1.5875,-0.190567 c 0,-0.0474 -0.32742,-0.374816 -0.7276,-0.727605 l -0.72761,-0.641433 0.64144,0.727604 c 0.59951,0.680056 0.81377,0.84894 0.81377,0.641434 z m 2.57418,-0.07368 c -0.0879,-0.08792 -0.31613,-0.09732 -0.50712,-0.02089 -0.21107,0.08446 -0.14837,0.147157 0.15985,0.159853 0.27892,0.01149 0.43519,-0.05105 0.34727,-0.138965 z m -3.6697,-3.279731 c 0,-0.250158 -0.0841,-0.201252 -0.22739,0.132292 -0.12507,0.291042 -0.2274,0.70776 -0.2274,0.926042 0,0.250158 0.0841,0.201252 0.2274,-0.132292 0.12506,-0.291042 0.22739,-0.70776 0.22739,-0.926042 z m -0.88797,-3.967327 c -0.0894,-0.144738 -0.423906,-0.390854 -0.743223,-0.546924 -0.500171,-0.244464 -0.48897,-0.208833 0.08088,0.257277 0.740763,0.605907 0.901143,0.676044 0.662343,0.289647 z m -2.196925,-1.377256 c -0.418786,-0.418786 -0.408891,-2.924184 0.01323,-3.349426 0.265178,-0.267139 0.238958,-0.298237 -0.132292,-0.156901 -0.373425,0.142166 -0.463021,0.499313 -0.463021,1.845711 0,1.087985 0.115191,1.715916 0.33073,1.802887 0.540195,0.217974 0.58579,0.192166 0.251353,-0.142271 z m 2.970895,-9.3208946 c -0.0973,-0.387751 -0.22797,-0.653974 -0.29034,-0.591608 -0.0624,0.06237 -0.0338,0.430643 0.0636,0.818394 0.0973,0.3877496 0.22797,0.6539726 0.29034,0.5916066 0.0624,-0.06237 0.0338,-0.4306426 -0.0636,-0.8183926 z m 0.82929,-2.334003 0.77711,-0.859896 -0.8599,0.777105 c -0.80154,0.724371 -0.98151,0.942687 -0.7771,0.942687 0.0455,0 0.43249,-0.386954 0.85989,-0.859896 z m 20.35628,-20.6287224 c 0,-3.419172 -0.0546,-3.472381 -3.73868,-3.646799 l -2.79431,-0.132292 -0.56997,-1.174653 c -0.71476,-1.473074 -1.63503,-2.153666 -3.14172,-2.323492 -1.82016,-0.205158 -3.52793,0.922302 -4.09636,2.704395 l -0.25318,0.79375 -2.84754,0.132292 c -3.71204,0.172454 -3.8572,0.31805 -3.8572,3.868771 v 2.487232 l 10.64948,-0.06915 10.64948,-0.06915 z m -11.23425,-3.501797 c -0.47863,-0.576715 -0.221,-1.32376 0.4914,-1.424922 0.97905,-0.139026 1.37612,0.686976 0.66978,1.393313 -0.51557,0.515567 -0.75414,0.522061 -1.16118,0.03161 z m 34.47489,67.120143 c -0.169,-0.107527 -0.97267,-1.968272 -1.78594,-4.134991 l -1.47866,-3.939487 0.002,-18.019813 c 0.001,-15.4677706 0.0576,-18.1271416 0.39687,-18.7776596 0.24652,-0.472683 0.39525,-1.493155 0.39525,-2.71198 0,-2.6405628 0.3593,-3.0124642 2.91041,-3.0124642 2.49246,0 2.91042,0.3989558 2.91042,2.7781252 v 1.719792 l 0.99219,9.89e-4 c 1.21366,0.0012 2.64582,0.828835 2.84562,1.644449 0.0813,0.331936 0.11427,3.401489 0.0733,6.8212276 l -0.0746,6.217709 h -0.66146 -0.66146 l -0.14437,-6.35 c -0.0794,-3.4924996 -0.1687,-6.3797656 -0.19844,-6.4161456 -0.0297,-0.03638 -0.38148,-0.06616 -0.78167,-0.06618 l -0.7276,-3.6e-5 0.0698,17.9831426 0.0698,17.983143 -1.34079,3.646581 c -1.69093,4.59888 -2.01777,5.13779 -2.8102,4.6336 z m 2.29165,-18.068259 v -8.980219 h -1.85209 -1.85208 v 8.983208 8.983208 l 1.65364,0.07877 c 0.90951,0.04332 1.74295,0.04198 1.85209,-0.003 0.10914,-0.04497 0.19844,-4.122859 0.19844,-9.061979 z m -0.0621,-18.439073 -0.0702,-7.6067706 h -1.7198 -1.71979 l -0.0702,7.6067706 -0.0702,7.606771 h 1.8602 1.8602 z"
         id="path5" /><path
         style="fill:#666768;fill-opacity:1"
         d="m 86.547269,49.986239 c -0.472036,-0.232704 -1.097114,-0.809594 -1.389062,-1.281976 -0.523385,-0.846854 -0.530802,-1.288048 -0.529826,-31.519314 9.52e-4,-29.53108 0.01929,-30.690454 0.497929,-31.475363 0.941548,-1.544029 1.69453,-1.698616 8.273875,-1.698616 h 5.914697 l 0.361872,-0.817525 c 0.608746,-1.375257 1.679656,-1.826187 4.339666,-1.82732 1.9737,-8.4e-4 2.34796,-0.07068 2.48653,-0.464009 0.84314,-2.393347 4.04372,-3.956258 6.65941,-3.251927 1.23804,0.33337 3.03,1.79592 3.63583,2.96746 0.38044,0.735691 0.42387,0.747487 2.75179,0.747487 2.26134,0 2.40578,0.03559 3.28784,0.810046 0.50742,0.445525 0.99584,1.040837 1.08537,1.322917 0.15445,0.486648 0.4561,0.512892 5.89963,0.513282 6.311,4.53e-4 6.97293,0.137153 8.0993,1.672637 0.54683,0.745438 0.54798,0.811643 0.54798,31.532161 0,30.720518 -0.001,30.786723 -0.54798,31.532161 -0.30138,0.410853 -0.95623,0.95518 -1.4552,1.209616 -0.8443,0.430515 -2.57765,0.46222 -24.98432,0.456996 -21.52358,-0.005 -24.168105,-0.05048 -24.935331,-0.428713 z m 49.673871,-1.946101 c 0.523,-0.523005 0.52917,-0.881945 0.52917,-30.823959 0,-29.942014 -0.006,-30.300954 -0.52917,-30.823959 -0.49672,-0.496716 -0.88206,-0.529176 -6.28385,-0.529328 l -5.75469,-1.61e-4 0.0373,1.653807 0.0373,1.653807 4.46062,0.132292 4.46063,0.132292 v 27.78125 27.78125 l -21.40225,0.06772 c -15.592052,0.04933 -21.499899,-0.01333 -21.761975,-0.230834 -0.298988,-0.248138 -0.359734,-4.891347 -0.359734,-27.496601 0,-14.9589256 0.07227,-27.386378 0.160599,-27.616561 0.137927,-0.359434 0.810244,-0.418515 4.7625,-0.418515 h 4.6019 v -1.719792 -1.719791 h -5.933921 -5.933921 l -0.54837,0.697139 c -0.547438,0.695955 -0.548371,0.748059 -0.548371,30.655986 0,29.907927 9.33e-4,29.960031 0.548371,30.655986 l 0.54837,0.697139 H 111.5018 c 23.83739,0 24.19789,-0.0077 24.71933,-0.529166 z m -4.7625,-30.559376 c 0,-14.3338016 0.0298,-26.1507552 0.0661,-26.2598958 0.0364,-0.1091406 -8.95284,-0.2289516 -19.97604,-0.2662466 L 91.506553,-9.1131894 V 17.214516 43.542221 h 19.976037 19.97604 z M 96.07062,40.98685 c -0.420188,-0.170957 -0.427724,-0.945967 -0.01323,-1.360462 0.376919,-0.376919 30.2699,-0.459341 30.86034,-0.08509 0.19463,0.12337 0.31369,0.5085 0.26458,0.855845 l -0.0893,0.631536 -15.34583,0.04636 c -8.44021,0.0255 -15.494665,-0.01419 -15.676566,-0.08819 z m -0.0556,-4.178794 c -0.175355,-0.21129 -0.2776,-0.598243 -0.227211,-0.859896 0.08695,-0.451507 0.886309,-0.475731 15.698411,-0.475731 h 15.60679 l 0.0893,0.631537 c 0.0491,0.347345 -0.0699,0.732475 -0.26458,0.855844 -0.19463,0.123369 -7.15563,0.226131 -15.46888,0.228359 -12.893986,0.0035 -15.161845,-0.0524 -15.433825,-0.380113 z m 12.63748,-4.312189 c -0.21922,-0.254662 -0.6636,-0.946409 -0.98751,-1.537216 -0.76184,-1.389563 -1.64286,-1.737912 -3.21022,-1.269298 -1.99753,0.597231 -2.28852,0.500876 -4.11599,-1.362925 -0.928663,-0.947124 -1.688475,-1.940233 -1.688475,-2.206908 0,-0.266676 0.167522,-1.0415 0.372272,-1.721832 0.513865,-1.707443 0.163159,-2.529779 -1.470538,-3.448125 -0.703846,-0.395652 -1.399518,-0.943209 -1.545936,-1.216794 -0.345302,-0.645203 -0.345302,-4.387978 0,-5.03318 0.146418,-0.273585 0.84209,-0.821143 1.545936,-1.216794 1.633697,-0.918346 1.984403,-1.740683 1.470538,-3.448125 -0.20475,-0.6803316 -0.372272,-1.4671936 -0.372272,-1.7485816 0,-0.281388 0.778008,-1.289623 1.728905,-2.240523 1.91235,-1.91235 1.3958,-1.781785 4.87291,-1.231679 0.92517,0.14637 1.13081,0.07452 1.78593,-0.623985 0.40721,-0.434171 0.98053,-1.193218 1.27405,-1.686771 0.53243,-0.8952722 0.53892,-0.8975505 2.77813,-0.9754345 1.23445,-0.042936 2.49185,-0.016044 2.79424,0.059761 0.31191,0.078193 0.86267,0.7126925 1.27292,1.4664635 0.83482,1.533847 1.47528,1.964502 2.63918,1.774628 0.45638,-0.07445 1.32913,-0.219741 1.93945,-0.322866 1.08181,-0.18279 1.14975,-0.149284 2.70475,1.333932 0.87728,0.836787 1.67081,1.760109 1.7634,2.051827 0.0926,0.291717 0.0271,1.199434 -0.14549,2.01715 -0.41472,1.9646996 -0.1225,2.6715036 1.49225,3.6093756 0.70263,0.408093 1.36497,0.871357 1.47188,1.029475 0.10692,0.158118 0.19439,1.359049 0.19439,2.668737 0,1.309687 -0.0875,2.510619 -0.19439,2.668737 -0.10691,0.158118 -0.76925,0.621381 -1.47188,1.029474 -1.58019,0.917799 -1.91721,1.668964 -1.52525,3.399578 0.45012,1.987438 0.3799,2.230697 -1.0936,3.788708 -1.88004,1.987868 -2.04977,2.057211 -4.05832,1.657976 -2.12452,-0.422289 -2.70041,-0.184969 -3.6914,1.521223 -0.40895,0.704075 -0.87291,1.367611 -1.03103,1.474523 -0.15811,0.106913 -1.37036,0.19621 -2.69387,0.198438 -1.96692,0.0033 -2.47918,-0.08051 -2.80496,-0.458969 z m 3.09468,-1.582921 c -1.24887,-0.07379 -1.68781,-0.218325 -2.05777,-0.677575 l -0.47028,-0.583775 0.31431,0.727604 c 0.30099,0.696788 0.38814,0.725485 2.05777,0.677575 l 1.74347,-0.05003 z m 2.27277,-1.379449 c 0.44803,-0.797157 0.90578,-1.172306 1.93516,-1.585971 1.26291,-0.507507 1.4405,-0.517132 2.80353,-0.151932 l 1.45521,0.389898 1.14399,-1.14203 1.144,-1.142031 -0.39218,-1.501801 c -0.3682,-1.410005 -0.35936,-1.579453 0.14456,-2.772212 0.42618,-1.008739 0.80268,-1.419903 1.82787,-1.996192 l 1.29113,-0.725781 v -1.689266 -1.689267 l -1.29113,-0.725781 c -1.02519,-0.576289 -1.40169,-0.987452 -1.82787,-1.996192 -0.50392,-1.192759 -0.51276,-1.362206 -0.14456,-2.772212 l 0.39218,-1.5018006 -1.16732,-1.167318 -1.16732,-1.167319 -1.45212,0.422145 c -1.39276,0.404886 -1.50373,0.399318 -2.71435,-0.136196 -0.94751,-0.419129 -1.46358,-0.882262 -2.06983,-1.857512 l -0.80761,-1.299172 h -1.63819 -1.6382 l -0.70003,1.286198 c -0.57379,1.054238 -0.94161,1.386589 -2.0395,1.842854 -0.82142,0.341365 -1.62524,0.4995 -2.07836,0.408875 -0.62765,-0.12553 -0.8881,0.02525 -1.72982,1.001417 -1.0572,1.226076 -2.00305,2.8723046 -2.00305,3.4862736 0,0.901551 -1.12103,2.841132 -1.864242,3.22546 -0.429876,0.222297 -0.781593,0.463709 -0.781593,0.536469 0,0.07276 0.359254,-0.05349 0.798343,-0.280547 l 0.798342,-0.41284 -0.16588,1.037342 c -0.09123,0.570538 -0.0115,1.914117 0.17724,2.985732 0.18871,1.071615 0.3156,2.097219 0.28198,2.27912 -0.0336,0.181901 0.0376,0.330729 0.15835,0.330729 0.12071,0 0.23636,0.20836 0.25699,0.463021 0.0206,0.254662 0.15302,0.87974 0.2942,1.389063 0.20629,0.744228 0.262,0.800255 0.28377,0.285367 0.0239,-0.564475 0.12283,-0.496118 0.83214,0.57474 0.44278,0.668478 1.30598,1.668461 1.91823,2.222186 0.61224,0.553725 1.0834,1.098764 1.04702,1.211198 -0.0364,0.112434 0.0994,0.204425 0.30184,0.204425 0.69427,0 2.64227,1.01832 3.12495,1.633571 0.32433,0.413411 0.42831,0.461801 0.31681,0.147433 -0.14477,-0.408176 -0.078,-0.434505 0.52273,-0.206108 0.37879,0.144015 1.45957,0.340823 2.40174,0.437351 1.56655,0.160498 1.69044,0.217713 1.44885,0.669129 -0.51884,0.969452 -0.004,0.473501 0.572,-0.550516 z m -5.59453,-2.235226 c -3.09608,-1.189424 -5.17446,-3.032285 -6.44618,-5.715709 -0.74174,-1.565136 -0.81539,-1.959543 -0.81539,-4.366383 0,-2.41187 0.0727,-2.799354 0.82268,-4.381963 1.01173,-2.135059 2.90897,-4.0817216 5.01246,-5.1430366 1.46367,-0.738494 1.7758,-0.79375 4.48361,-0.79375 2.68479,0 3.03348,0.06034 4.49791,0.778304 0.87313,0.428068 2.21817,1.408161 2.98899,2.177985 5.09747,5.0908806 3.56613,13.7429596 -2.98899,16.8878336 -1.34383,0.644715 -1.97331,0.773621 -4.10104,0.839825 -1.66366,0.05176 -2.83155,-0.04396 -3.45405,-0.283106 z m 6.19502,-2.021123 c 1.98121,-0.741265 3.68221,-2.315571 4.6701,-4.322259 0.67521,-1.371538 0.81546,-1.973779 0.8132,-3.491802 -0.003,-2.115682 -0.2629,-3.147794 -1.19062,-4.730832 -1.4754,-2.517573 -3.81212,-3.8902356 -6.90136,-4.0540746 -2.75753,-0.146246 -4.63183,0.516516 -6.43173,2.2742966 -1.67218,1.633054 -2.47311,3.339949 -2.6361,5.617879 -0.28244,3.94745 1.99634,7.484667 5.69773,8.844268 1.51347,0.55593 4.29653,0.491937 5.97878,-0.137476 z m -10.67847,2.494469 c 0,-0.05416 -0.28907,-0.07454 -0.64238,-0.0453 -0.35331,0.02924 -0.59132,0.135793 -0.52891,0.236781 0.11041,0.178633 1.17129,0.0052 1.17129,-0.191477 z m -1.5875,-0.190567 c 0,-0.0474 -0.32742,-0.374816 -0.7276,-0.727605 l -0.72761,-0.641433 0.64144,0.727604 c 0.59951,0.680056 0.81377,0.84894 0.81377,0.641434 z m 2.57418,-0.07368 c -0.0879,-0.08792 -0.31613,-0.09732 -0.50712,-0.02089 -0.21107,0.08446 -0.14837,0.147157 0.15985,0.159853 0.27892,0.01149 0.43519,-0.05105 0.34727,-0.138965 z m -3.6697,-3.279731 c 0,-0.250158 -0.0841,-0.201252 -0.22739,0.132292 -0.12507,0.291042 -0.2274,0.70776 -0.2274,0.926042 0,0.250158 0.0841,0.201252 0.2274,-0.132292 0.12506,-0.291042 0.22739,-0.70776 0.22739,-0.926042 z m -0.88797,-3.967327 c -0.0894,-0.144738 -0.423906,-0.390854 -0.743223,-0.546924 -0.500171,-0.244464 -0.48897,-0.208833 0.08088,0.257277 0.740763,0.605907 0.901143,0.676044 0.662343,0.289647 z m -2.196925,-1.377256 c -0.418786,-0.418786 -0.408891,-2.924184 0.01323,-3.349426 0.265178,-0.267139 0.238958,-0.298237 -0.132292,-0.156901 -0.373425,0.142166 -0.463021,0.499313 -0.463021,1.845711 0,1.087985 0.115191,1.715916 0.33073,1.802887 0.540195,0.217974 0.58579,0.192166 0.251353,-0.142271 z m 2.970895,-9.3208946 c -0.0973,-0.387751 -0.22797,-0.653974 -0.29034,-0.591608 -0.0624,0.06237 -0.0338,0.430643 0.0636,0.818394 0.0973,0.3877496 0.22797,0.6539726 0.29034,0.5916066 0.0624,-0.06237 0.0338,-0.4306426 -0.0636,-0.8183926 z m 0.82929,-2.334003 0.77711,-0.859896 -0.8599,0.777105 c -0.80154,0.724371 -0.98151,0.942687 -0.7771,0.942687 0.0455,0 0.43249,-0.386954 0.85989,-0.859896 z m 20.35628,-20.6287224 c 0,-3.419172 -0.0546,-3.472381 -3.73868,-3.646799 l -2.79431,-0.132292 -0.56997,-1.174653 c -0.71476,-1.473074 -1.63503,-2.153666 -3.14172,-2.323492 -1.82016,-0.205158 -3.52793,0.922302 -4.09636,2.704395 l -0.25318,0.79375 -2.84754,0.132292 c -3.71204,0.172454 -3.8572,0.31805 -3.8572,3.868771 v 2.487232 l 10.64948,-0.06915 10.64948,-0.06915 z m -11.23425,-3.501797 c -0.47863,-0.576715 -0.221,-1.32376 0.4914,-1.424922 0.97905,-0.139026 1.37612,0.686976 0.66978,1.393313 -0.51557,0.515567 -0.75414,0.522061 -1.16118,0.03161 z m 34.47489,67.120143 c -0.169,-0.107527 -0.97267,-1.968272 -1.78594,-4.134991 l -1.47866,-3.939487 0.002,-18.019813 c 0.001,-15.4677706 0.0576,-18.1271416 0.39687,-18.7776596 0.24652,-0.472683 0.39525,-1.493155 0.39525,-2.71198 0,-2.6405628 0.3593,-3.0124642 2.91041,-3.0124642 2.49246,0 2.91042,0.3989558 2.91042,2.7781252 v 1.719792 l 0.99219,9.89e-4 c 1.21366,0.0012 2.64582,0.828835 2.84562,1.644449 0.0813,0.331936 0.11427,3.401489 0.0733,6.8212276 l -0.0746,6.217709 h -0.66146 -0.66146 l -0.14437,-6.35 c -0.0794,-3.4924996 -0.1687,-6.3797656 -0.19844,-6.4161456 -0.0297,-0.03638 -0.38148,-0.06616 -0.78167,-0.06618 l -0.7276,-3.6e-5 0.0698,17.9831426 0.0698,17.983143 -1.34079,3.646581 c -1.69093,4.59888 -2.01777,5.13779 -2.8102,4.6336 z m 2.29165,-17.920353 v -9.128125 h -1.85209 -1.85208 v 9.128125 9.128125 h 1.85208 1.85209 z m 0,-18.653125 V 5.9713874 h -1.85209 -1.85208 v 7.6729166 7.672917 h 1.85208 1.85209 z"
         id="path4" /><path
         style="fill:#666768;fill-opacity:1"
         d="m 87.130995,50.139942 c -0.442029,-0.128547 -1.156404,-0.601877 -1.5875,-1.051844 L 84.759683,48.269975 V 17.220121 -13.829731 l 0.661459,-0.716874 c 1.223873,-1.326406 1.881476,-1.442425 8.175755,-1.442425 5.39213,0 5.822554,-0.03482 5.964667,-0.482582 0.08424,-0.26542 0.516586,-0.830967 0.960776,-1.256771 0.7571,-0.72577 0.96359,-0.779917 3.30162,-0.865785 l 2.49401,-0.0916 0.57847,-1.029246 c 1.02111,-1.81681 3.61145,-3.087402 5.54252,-2.718668 1.92878,0.368296 3.88179,1.84075 4.33485,3.268221 0.15149,0.477293 0.39918,0.530694 2.46568,0.531583 2.61035,0.0011 3.69034,0.4518 4.40789,1.839395 l 0.41652,0.80545 5.6156,0.0058 c 4.94378,0.0051 5.74802,0.06594 6.72253,0.508375 2.08476,0.946511 1.93578,-1.569456 1.93578,32.691023 0,34.26048 0.14898,31.744512 -1.93578,32.691023 -1.06199,0.482158 -2.06845,0.501831 -24.78714,0.484513 -13.024114,-0.0099 -24.041867,-0.123226 -24.483895,-0.251773 z m 49.090145,-2.099804 c 0.523,-0.523005 0.52917,-0.881945 0.52917,-30.823959 0,-29.942014 -0.006,-30.300954 -0.52917,-30.823959 -0.49717,-0.497165 -0.88194,-0.529166 -6.36263,-0.529166 h -5.83345 l 0.0788,1.653646 0.0788,1.653645 4.49791,0.132292 4.49792,0.132292 v 27.78125 27.78125 l -21.40224,0.06772 c -15.59206,0.04933 -21.499907,-0.01333 -21.761983,-0.230834 -0.498784,-0.413955 -0.540321,-54.7160898 -0.04223,-55.214177 0.221746,-0.221746 1.658055,-0.3175 4.762499,-0.3175 h 4.445 v -1.719792 -1.719791 h -5.933921 -5.933921 l -0.54837,0.697139 c -0.547438,0.695955 -0.548371,0.748059 -0.548371,30.655986 0,29.907927 9.33e-4,29.960031 0.548371,30.655986 l 0.54837,0.697139 H 111.5018 c 23.8374,0 24.19789,-0.0077 24.71934,-0.529167 z m -4.56278,-30.890105 0.0674,-26.259896 H 111.61617 91.506558 v 26.327705 26.327705 l 20.042182,-0.06781 20.04219,-0.06781 z M 96.057391,40.843471 c -0.463617,-0.463618 -0.388882,-0.948596 0.194273,-1.260691 0.335185,-0.179386 5.590616,-0.273892 15.230936,-0.273892 9.64031,0 14.89575,0.09451 15.23093,0.273892 0.61741,0.330426 0.67426,1.194641 0.0933,1.417592 -0.23018,0.08833 -7.17152,0.160599 -15.4252,0.160599 -11.3191,0 -15.084716,-0.07802 -15.324197,-0.3175 z m -0.2223,-4.31396 c -0.08492,-0.221299 -0.0074,-0.57944 0.17218,-0.795868 0.28215,-0.33997 2.382931,-0.392954 15.441579,-0.389454 8.31325,0.0022 15.27554,0.105792 15.47176,0.230142 0.19622,0.124349 0.31366,0.449948 0.26099,0.723552 -0.0923,0.479235 -0.6655,0.499964 -15.64394,0.565727 -13.712512,0.0602 -15.566397,0.02076 -15.702569,-0.334099 z m 12.880359,-4.088812 c -0.285,-0.285004 -0.75697,-0.986239 -1.04881,-1.558299 -0.72279,-1.416776 -1.57436,-1.686806 -3.63033,-1.151159 l -1.59162,0.414669 -1.07889,-0.867021 c -0.59339,-0.476862 -1.45962,-1.34079 -1.924957,-1.91984 l -0.846068,-1.052818 0.401717,-1.594743 c 0.545851,-2.16693 0.26491,-2.908063 -1.457773,-3.845664 -1.543641,-0.840155 -1.798828,-1.357904 -1.798828,-3.649645 0,-2.291741 0.255187,-2.80949 1.798828,-3.649645 1.722683,-0.937602 2.003624,-1.678734 1.457773,-3.8456636 l -0.401717,-1.594743 0.846068,-1.052818 c 0.465337,-0.579051 1.331567,-1.442978 1.924957,-1.91984 l 1.07889,-0.867021 1.58699,0.413461 c 1.95189,0.508532 3.08622,0.16551 3.60653,-1.090616 0.18189,-0.439144 0.6096,-1.099354 0.95044,-1.467133 0.56471,-0.6093318 0.81028,-0.6686898 2.76642,-0.6686898 1.18068,0 2.36408,0.1163441 2.62978,0.2585426 0.2657,0.1421984 0.79829,0.7963792 1.18352,1.4537352 0.38524,0.657355 1.04229,1.371974 1.46012,1.58804 0.66968,0.346305 0.9114,0.346819 2.04023,0.0043 0.7043,-0.213681 1.49993,-0.3898 1.76806,-0.391375 0.63458,-0.0037 3.87905,3.240974 3.87497,3.875242 -0.002,0.268135 -0.16466,1.094074 -0.36207,1.8354176 -0.45829,1.721027 -0.18508,2.281415 1.73154,3.551692 l 1.41179,0.935697 0.0764,2.466816 c 0.0851,2.746487 -0.004,2.956994 -1.59046,3.766448 -0.56114,0.286276 -1.24041,0.882497 -1.50947,1.324936 -0.44622,0.733756 -0.45721,0.924601 -0.12505,2.17214 0.20028,0.752238 0.36556,1.587089 0.36729,1.855225 0.004,0.634267 -3.24038,3.87897 -3.87496,3.875242 -0.26814,-0.0016 -1.04622,-0.172413 -1.72907,-0.379638 -1.72091,-0.522248 -2.56763,-0.163173 -3.49173,1.480767 -0.39566,0.703847 -0.94321,1.399518 -1.2168,1.545937 -0.27358,0.146418 -1.45775,0.266214 -2.63149,0.266214 -1.76621,0 -2.22338,-0.08932 -2.65225,-0.518188 z m 3.68611,-1.239875 c 0.64977,-0.129953 1.03849,-0.472318 1.63264,-1.437933 1.04849,-1.704019 2.53834,-2.324727 4.49554,-1.872951 1.77928,0.410706 1.6728,0.434802 2.87397,-0.650382 1.1437,-1.033262 1.21976,-1.345272 0.75323,-3.089607 -0.47312,-1.768935 0.22173,-3.330349 1.98914,-4.469821 l 1.35943,-0.876451 0.0779,-1.621732 0.0779,-1.621731 -1.42228,-0.802688 c -1.18999,-0.671586 -1.50115,-1.009201 -1.90517,-2.067097 -0.40935,-1.071876 -0.4363,-1.43855 -0.17701,-2.408024 0.46042,-1.7214666 0.39465,-2.0002656 -0.73121,-3.0996396 l -1.03708,-1.01268 -1.6749,0.32523 c -1.51709,0.294588 -1.78821,0.275832 -2.87762,-0.199073 -0.92424,-0.4029 -1.35103,-0.803857 -1.84321,-1.731613 -0.66733,-1.257946 -1.08566,-1.494015 -2.65818,-1.500048 -1.12345,-0.0043 -1.56317,0.307337 -2.43843,1.728243 -0.42611,0.691747 -1.0515,1.247231 -1.76791,1.570284 -0.99742,0.449776 -1.27009,0.466522 -2.71999,0.16705 l -1.61144,-0.332838 -1.16681,1.166802 -1.1668,1.166802 0.37823,1.44841 c 0.54491,2.0866866 -0.006,3.4584416 -1.885955,4.6927956 l -1.363656,0.895536 v 1.661457 1.661457 l 1.304419,0.802617 c 0.96052,0.591013 1.443182,1.116324 1.830762,1.992513 0.49403,1.116834 0.50209,1.282793 0.13128,2.702808 l -0.39508,1.512911 1.19518,1.195183 1.19519,1.195182 1.43683,-0.399923 c 2.02495,-0.563614 3.39819,-0.03466 4.63374,1.784842 1.05454,1.55294 1.76848,1.865866 3.47727,1.524109 z m -3.4325,-3.881417 c -3.19508,-0.921693 -5.34337,-2.713344 -6.80882,-5.678475 -0.93081,-1.883357 -0.9963,-2.173702 -0.99507,-4.411031 10e-4,-2.132937 0.092,-2.586707 0.83031,-4.147408 3.91658,-8.2793016 14.93425,-8.4189396 18.96058,-0.240305 0.78056,1.585543 0.84529,1.920497 0.84529,4.373991 0,2.465863 -0.0622,2.783272 -0.86458,4.413172 -1.11359,2.262022 -3.41136,4.440604 -5.54242,5.254922 -1.85685,0.709541 -4.78633,0.907931 -6.42529,0.435134 z m 5.29166,-1.827966 c 2.48789,-0.770266 4.75333,-3.092153 5.5576,-5.69608 0.66703,-2.159597 0.66253,-3.013345 -0.0277,-5.247975 -0.4691,-1.518774 -0.80859,-2.051425 -2.18281,-3.424785 -1.93069,-1.9294776 -3.57821,-2.6095466 -6.28189,-2.5930616 -3.07883,0.01877 -5.97788,1.8060126 -7.51723,4.6342966 -1.05318,1.935046 -1.23167,4.963151 -0.41944,7.116045 1.64435,4.358491 6.34638,6.612552 10.87145,5.21156 z m 8.20209,-38.714372 c 0,-2.32869 -0.0506,-2.576194 -0.64943,-3.175 -0.60292,-0.602918 -0.83891,-0.649432 -3.29492,-0.649432 h -2.64547 l -0.50561,-1.12448 c -0.77502,-1.723657 -1.64704,-2.382848 -3.33763,-2.523045 -1.88625,-0.156423 -3.12181,0.561731 -3.942,2.291251 l -0.58045,1.223982 -2.63647,0.07645 c -3.65446,0.105971 -3.83927,0.289185 -3.83927,3.806128 v 2.599713 h 10.71562 10.71563 z M 110.96132,-17.0346 c -0.33703,-0.545323 0.13992,-1.370792 0.74244,-1.284958 0.80812,0.115122 0.81001,1.370654 0.002,1.485763 -0.31369,0.0447 -0.6488,-0.04566 -0.74468,-0.200805 z m 34.42157,66.860675 c -0.20649,-0.327422 -0.92518,-2.054022 -1.59709,-3.83689 l -1.22164,-3.241577 0.10848,-18.71884 c 0.0597,-10.295362 0.21006,-19.8299966 0.33422,-21.1880786 0.27518,-3.0100211 0.47249,-3.2193022 3.03523,-3.2193022 1.61032,0 1.83522,0.067273 2.33068,0.6971397 0.4132,0.5252978 0.54837,1.0796562 0.54837,2.2489585 0,1.551507 1.6e-4,1.551819 0.80225,1.551819 1.26997,0 2.51223,0.646718 2.86137,1.48962 0.22088,0.533242 0.2939,2.621377 0.24402,6.9778576 l -0.0712,6.216897 h -0.66146 -0.66146 l -0.0709,-6.2771 c -0.0681,-6.0302596 -0.0924,-6.2885696 -0.61598,-6.5688106 -1.34352,-0.719027 -1.29747,-1.370378 -1.29747,18.3538176 v 18.356808 l -1.34972,3.545768 c -1.70832,4.487827 -1.95691,4.818222 -2.7177,3.611913 z m 1.37605,-5.159375 0.52386,-1.389062 -1.36364,0.03069 c -0.75001,0.01688 -1.14424,0.08727 -0.87608,0.156419 0.3274,0.08442 0.44419,0.291644 0.3555,0.630776 -0.16501,0.630993 0.36943,2.443539 0.63842,2.165198 0.10894,-0.112728 0.43381,-0.830038 0.72194,-1.594023 z m 1.10387,-12.369271 v -9.128125 h -1.85209 -1.85208 v 9.128125 9.128125 h 1.85208 1.85209 z m 0,-18.653125 V 5.9713874 h -1.85209 -1.85208 v 7.6729166 7.672917 h 1.85208 1.85209 z M 147.06906,2.7963874 V 1.4734706 h -1.05834 -1.05833 l 0.0397,1.2567708 0.0397,1.256771 0.1851,-1.190625 0.18511,-1.1906252 0.0397,1.2567712 c 0.0383,1.211192 0.0685,1.256771 0.83349,1.256771 0.77611,0 0.79375,-0.0294 0.79375,-1.322917 z"
         id="path3" /><path
         style="fill:#030404"
         d="m 86.50498,49.822175 c -0.349774,-0.179756 -0.885555,-0.662957 -1.190625,-1.07378 -0.554468,-0.746677 -0.554701,-0.758034 -0.633118,-30.95625 -0.05401,-20.799014 0.0093,-30.512295 0.203216,-31.181989 0.154915,-0.534979 0.645835,-1.279119 1.090934,-1.653645 l 0.809272,-0.680957 h 6.28195 6.281951 l 0.378478,-0.855171 c 0.208163,-0.470343 0.783042,-1.125187 1.277502,-1.455209 0.76527,-0.510765 1.24748,-0.600038 3.24115,-0.600038 1.88077,0 2.34212,-0.07636 2.34212,-0.387668 0,-0.612595 1.56735,-2.237133 2.73127,-2.830919 0.82799,-0.422409 1.42346,-0.518535 2.70619,-0.436857 1.99623,0.127111 3.50897,1.016668 4.409,2.592692 l 0.60458,1.058677 2.12079,0.002 c 2.53957,0.0024 3.69496,0.50842 4.44023,1.94451 l 0.50232,0.967945 h 6.0906 6.0906 l 1.02721,1.027206 1.02721,1.027205 v 30.886214 30.886214 l -1.02721,1.027206 -1.02721,1.027205 -24.57123,-0.0039 c -18.974612,-0.003 -24.716079,-0.07834 -25.20718,-0.330729 z m 49.68845,-1.624607 0.55688,-0.504028 V 17.216179 -13.261182 l -0.5565,-0.504028 c -0.51117,-0.462987 -1.02284,-0.504028 -6.28385,-0.504028 h -5.72736 l -0.0782,1.785938 -0.0782,1.785937 h 4.32479 c 3.01096,0 4.42126,0.09645 4.6423,0.3175 0.4981,0.4980971 0.45655,54.800223 -0.0423,55.214186 -0.26206,0.21749 -6.13545,0.280172 -21.62968,0.230835 l -21.26995,-0.06773 v -27.78125 -27.78125 l 4.630208,-0.132292 4.630208,-0.132292 v -1.719791 -1.719792 h -6.042965 c -6.031671,0 -6.04391,0.0012 -6.548437,0.624624 -0.490977,0.606712 -0.505473,1.491097 -0.505473,30.839535 0,31.935638 -0.04876,30.652433 1.190625,31.33577 0.376945,0.20783 7.390209,0.274375 24.380104,0.231331 23.03745,-0.05837 23.86992,-0.07762 24.40781,-0.564454 z M 131.72322,17.216179 V -9.109863 H 111.4826 91.241975 V 17.03979 c 0,14.382309 0.07937,26.229028 0.176388,26.326042 0.09701,0.09701 9.205297,0.176389 20.240627,0.176389 h 20.06423 z M 95.82956,40.483846 c -0.08796,-0.229228 -0.04791,-0.528806 0.08902,-0.66573 0.151444,-0.151443 6.30532,-0.222201 15.71169,-0.180653 15.26359,0.06742 15.46275,0.07511 15.46275,0.597466 0,0.522391 -0.19915,0.530041 -15.55177,0.597431 -13.950096,0.06123 -15.568228,0.02534 -15.711689,-0.348514 z m 0.05653,-4.012249 c -0.422342,-1.100605 0.0071,-1.13146 15.74697,-1.13146 12.95195,0 15.04284,0.05369 15.32487,0.393506 0.17962,0.216428 0.25746,0.573616 0.17299,0.79375 -0.13467,0.350951 -2.0574,0.400245 -15.61171,0.400245 -14.387811,0 -15.470237,-0.03158 -15.63312,-0.456041 z m 13.56221,-3.700653 c -0.53336,-0.08147 -0.9089,-0.458639 -1.50066,-1.507188 -1.04455,-1.850827 -1.84697,-2.199163 -3.75838,-1.631534 -0.77092,0.228937 -1.50796,0.416249 -1.63787,0.416249 -0.2961,0 -3.342297,-2.889862 -3.647686,-3.460487 -0.136331,-0.254736 -0.06711,-1.029277 0.174778,-1.955554 0.539072,-2.064332 0.21488,-2.832506 -1.636318,-3.877258 -1.325221,-0.747908 -1.400101,-0.848606 -1.574623,-2.117533 -0.100779,-0.732755 -0.103508,-1.9704 -0.0061,-2.750321 0.172072,-1.377223 0.217395,-1.440739 1.574623,-2.206711 2.101277,-1.185887 2.2682,-1.838254 1.312694,-5.1302446 -0.09066,-0.312341 0.367307,-0.98993 1.402802,-2.075536 2.04517,-2.144151 2.14954,-2.187808 4.05178,-1.694888 2.02448,0.524596 2.77195,0.195799 3.78459,-1.664755 0.76996,-1.4146578 1.25328,-1.6417128 3.49463,-1.6417128 2.25669,0 2.72487,0.2251363 3.63604,1.7485128 1.08879,1.820342 1.80767,2.099505 3.90494,1.516413 l 1.54037,-0.428263 1.1951,0.979292 c 0.6573,0.53861 1.51378,1.397112 1.90329,1.907781 l 0.70819,0.92849 -0.40177,1.594958 c -0.54591,2.1671616 -0.26501,2.9082526 1.45772,3.8458796 1.54364,0.840155 1.79883,1.357904 1.79883,3.649645 0,2.291741 -0.25519,2.80949 -1.79883,3.649645 -1.72378,0.938197 -2.00372,1.678352 -1.45647,3.850841 l 0.40302,1.59992 -0.96063,1.172328 c -0.52835,0.64478 -1.40621,1.481114 -1.95081,1.858518 -0.97258,0.674002 -1.01596,0.679343 -2.44187,0.300692 -2.08564,-0.553841 -2.91975,-0.220792 -3.92995,1.569174 -0.62998,1.116264 -0.96505,1.438062 -1.63738,1.572528 -0.88204,0.176408 -2.78425,0.167439 -4.00409,-0.01888 z m 4.56001,-2.796571 c 0.64919,-1.085363 1.09731,-1.505261 2.00876,-1.882241 1.08349,-0.448138 1.29211,-0.455262 2.7294,-0.09321 l 1.55625,0.392018 1.20532,-1.223721 1.20532,-1.223721 -0.38788,-1.453244 c -0.35085,-1.314512 -0.345,-1.573729 0.0612,-2.715336 0.37999,-1.067952 0.66458,-1.383719 1.8501,-2.052783 l 1.40103,-0.790692 v -1.694832 -1.694835 l -1.33426,-0.820981 c -1.01061,-0.62183 -1.46026,-1.114905 -1.85366,-2.032661 -0.48511,-1.131738 -0.4935,-1.310365 -0.12715,-2.7074426 l 0.39223,-1.495762 -1.25056,-1.24945 -1.25056,-1.249451 -1.39928,0.412452 c -1.29176,0.38076 -1.49781,0.377022 -2.68157,-0.04865 -1.07444,-0.386364 -1.4068,-0.679563 -2.05038,-1.808836 l -0.76809,-1.347729 -1.74986,-0.07764 -1.74987,-0.07764 -0.80557,1.400559 c -0.64858,1.127599 -1.04336,1.497136 -2.02565,1.896104 -1.14407,0.464678 -1.31106,0.469659 -2.68091,0.07997 l -1.46085,-0.415575 -1.16971,1.078206 c -1.25663,1.158321 -1.33426,1.446347 -0.86385,3.2051646 0.46651,1.744198 -0.23907,3.384175 -1.861162,4.32593 -1.544191,0.896527 -1.611602,1.005609 -1.611602,2.607842 0,1.602233 0.06741,1.711315 1.611602,2.607842 1.622092,0.941754 2.327672,2.581732 1.861162,4.32593 -0.46989,1.75688 -0.39259,2.047022 0.85074,3.193079 l 1.1566,1.066121 1.45643,-0.405376 c 1.34743,-0.375037 1.54971,-0.369751 2.70283,0.07063 1.03554,0.395478 1.38107,0.714624 2.04243,1.886494 l 0.79603,1.410487 h 1.6797 1.67971 z m -4.33798,-2.584688 c -3.01696,-0.506228 -6.07135,-2.842745 -7.48826,-5.728303 -0.68977,-1.404716 -0.75364,-1.781439 -0.75364,-4.445203 0,-2.684865 0.0603,-3.033184 0.77778,-4.49454 1.99092,-4.0550006 6.77044,-6.5527206 10.95193,-5.7233526 3.58111,0.710287 6.26251,2.797266 7.798,6.0693286 0.73708,1.570663 0.82936,2.032277 0.82936,4.148564 0,2.116286 -0.0923,2.5779 -0.82936,4.148563 -1.52817,3.25646 -4.25754,5.389605 -7.72372,6.036498 -1.5833,0.295493 -1.73511,0.295 -3.56209,-0.01156 z m 5.51534,-2.201472 c 1.80714,-0.827335 3.44457,-2.4775 4.32736,-4.361011 0.99873,-2.130867 0.99873,-5.091179 0,-7.222046 -0.89187,-1.902889 -2.51627,-3.527361 -4.41941,-4.4196206 -1.23924,-0.580997 -1.85572,-0.698213 -3.61102,-0.686585 -2.73068,0.01809 -4.55889,0.842253 -6.44418,2.9050646 -4.49115,4.914029 -2.02995,12.653226 4.5921,14.439758 1.32821,0.358335 4.03936,0.03839 5.55515,-0.65556 z m 7.27714,-38.485289 c 0,-3.513657 -0.18715,-3.700029 -3.8219,-3.806127 l -2.61911,-0.07645 -0.6253,-1.190626 c -0.74745,-1.423243 -1.44553,-2.015589 -2.82896,-2.400481 -1.9079,-0.530809 -3.87051,0.640096 -4.79964,2.863502 l -0.35934,0.859896 h -2.5054 c -1.37798,0 -2.69814,0.07396 -2.93371,0.164354 -0.81746,0.31369 -1.20248,1.569958 -1.20248,3.923549 v 2.262097 h 10.84792 10.84792 z m -11.48542,-3.915564 c -0.22443,-0.584832 0.45507,-1.284261 1.03242,-1.062712 0.26858,0.103064 0.40343,0.396296 0.35124,0.763785 -0.1055,0.742973 -1.12846,0.963973 -1.38366,0.298927 z m 34.4166,67.17723 c -0.0756,-0.122361 -0.74329,-1.838865 -1.48371,-3.814453 l -1.34621,-3.591978 0.10721,-18.624115 c 0.059,-10.243264 0.20938,-19.6766056 0.33426,-20.9629836 0.28252,-2.910175 0.67682,-3.3496732 3.00518,-3.3496732 2.25391,0 2.72795,0.4765055 2.86368,2.8785802 l 0.10645,1.88392 h 1.26954 c 1.09283,0 1.36489,0.113313 1.95452,0.81405 l 0.68498,0.81405 v 6.1650116 c 0,5.157231 -0.0649,6.218854 -0.39688,6.494388 -0.31663,0.262781 -0.47712,0.262781 -0.79375,0 -0.33142,-0.27506 -0.39687,-1.318834 -0.39687,-6.32948 0,-6.3488436 -0.0537,-6.6351026 -1.24354,-6.6351026 h -0.60854 l -0.0109,18.4546866 -0.011,18.454688 -1.41447,3.704167 c -1.11808,2.928029 -1.52635,3.721197 -1.94846,3.785443 -0.2937,0.0447 -0.59588,-0.01884 -0.6715,-0.141199 z m 1.39023,-4.834869 c 0.77663,-2.058002 0.75519,-2.116667 -0.7735,-2.116667 -0.7575,0 -1.32291,0.120161 -1.32291,0.281142 0,0.613035 1.19399,3.65735 1.36487,3.480016 0.10032,-0.104105 0.42951,-0.844126 0.73154,-1.644491 z m 1.07859,-12.976175 v -9.272008 l -1.91823,0.07774 -1.91823,0.07774 -0.0698,8.861661 c -0.0384,4.873914 -0.0124,9.011336 0.0578,9.194271 0.0858,0.223454 0.73817,0.33261 1.98802,0.33261 h 1.86039 z m -0.0622,-18.575388 -0.0701,-7.7390626 -1.54368,-0.08001 c -0.91046,-0.04719 -1.69732,0.04749 -1.91823,0.230834 -0.30691,0.254713 -0.37455,1.666765 -0.37455,7.8190776 v 7.508229 h 1.98837 1.98837 z m -0.51934,-10.8479166 -0.08,-1.3890625 -1.25677,-0.080643 -1.25677,-0.080643 v 1.4697045 1.469706 h 1.33674 1.33675 z"
         id="path2" /><rect
         style="fill:#ffffff;fill-opacity:1;stroke:#000000;stroke-width:0.498007;stroke-linejoin:round"
         id="rect14"
         width="41.417309"
         height="53.13937"
         x="90.854431"
         y="-9.3712025" /><g
         id="g14"
         transform="matrix(0.49804271,0,0,0.49804271,64.917045,60.811804)"><path
           style="fill:#9269aa;fill-opacity:1"
           d="m 89.107291,-51.297348 c -0.685108,-0.105393 -1.304054,-0.250027 -1.375434,-0.321407 -0.07138,-0.07138 -0.919655,-1.495214 -1.885053,-3.164072 -0.965399,-1.668859 -1.894266,-3.162002 -2.06415,-3.318096 -0.169884,-0.156094 -1.149435,-0.61239 -2.17678,-1.013992 l -1.867899,-0.730185 -3.645944,0.967379 -3.645943,0.967379 -1.089781,-0.747137 c -1.406741,-0.964439 -5.655866,-5.213083 -6.619646,-6.618897 l -0.745447,-1.087343 0.971622,-3.688338 0.971623,-3.688339 -0.888143,-2.061767 -0.888142,-2.061768 -3.15716,-1.80452 c -1.736438,-0.992487 -3.284022,-2.01836 -3.439075,-2.279718 -0.380239,-0.64093 -0.380239,-10.628207 0,-11.269137 0.155053,-0.26136 1.702637,-1.28724 3.439075,-2.27972 l 3.15716,-1.80452 0.888142,-2.06177 0.888143,-2.061774 -0.971623,-3.68834 -0.971622,-3.68833 0.745447,-1.08735 c 0.96303,-1.40472 5.212488,-5.65417 6.617208,-6.6172 l 1.087342,-0.74545 3.664198,0.96306 3.664199,0.96306 2.081402,-0.87907 2.081402,-0.87907 1.877651,-3.25028 c 1.417358,-2.45349 2.04218,-3.29668 2.548806,-3.43958 0.873336,-0.24634 9.729391,-0.24634 10.602727,0 0.506626,0.1429 1.131444,0.98609 2.548804,3.43958 l 1.87765,3.25028 2.08141,0.87907 2.0814,0.87907 3.6642,-0.96306 3.66419,-0.96306 1.08735,0.74545 c 1.40472,0.96303 5.65417,5.21248 6.6172,6.6172 l 0.74545,1.08735 -0.9687,3.67725 -0.9687,3.67726 0.85833,2.044814 0.85834,2.04481 3.27231,1.88388 c 2.51708,1.44909 3.317,2.04277 3.46596,2.57234 0.30634,1.089075 0.2297,10.410813 -0.09,10.953237 -0.15407,0.261358 -1.70085,1.287231 -3.43729,2.279718 l -3.15716,1.80452 -0.88814,2.061768 -0.88814,2.061767 0.97162,3.688339 0.97162,3.688338 -0.74544,1.087343 c -0.96303,1.40472 -5.21249,5.654177 -6.61721,6.617208 l -1.08734,0.745447 -3.68834,-0.971623 -3.68834,-0.971623 -2.05575,0.887634 -2.05576,0.887634 -1.86743,3.23 c -1.02709,1.7765 -2.055667,3.307486 -2.285731,3.402191 -0.616917,0.253951 -8.681526,0.375081 -10.130616,0.15216 z m 9.447734,-17.352541 c 5.376665,-1.413266 10.104615,-5.296357 12.582275,-10.333892 1.51577,-3.081834 1.95468,-5.012659 1.95468,-8.598959 0,-3.586299 -0.43891,-5.517126 -1.95468,-8.598956 -2.50036,-5.083704 -7.18598,-8.907494 -12.714567,-10.375984 -2.33227,-0.61949 -7.192731,-0.61949 -9.525,0 -8.199776,2.178 -14.054639,9.215324 -14.730873,17.705943 -0.176015,2.209996 0.207193,5.241866 0.932082,7.374453 l 0.444616,1.308039 2.113025,-2.125525 2.113025,-2.125525 0.0037,-2.837993 c 0.0029,-2.263754 0.126707,-3.196171 0.61164,-4.608173 1.846814,-5.377445 6.463542,-9.060179 12.07925,-9.635519 2.910666,-0.29821 6.75229,0.66109 6.75229,1.686134 0,0.24932 -1.919795,2.37575 -4.26621,4.7254 l -4.26621,4.272099 0.612225,2.345408 c 0.336723,1.289974 0.722002,2.420184 0.856175,2.511577 0.134173,0.09139 1.256322,0.433609 2.493664,0.76048 l 2.249713,0.594312 4.272095,-4.26621 c 2.34965,-2.346415 4.47608,-4.266206 4.7254,-4.266206 1.02504,0 1.98434,3.84162 1.68614,6.752286 -0.57535,5.615708 -4.25807,10.232436 -9.635521,12.07925 -1.412001,0.484933 -2.344419,0.608693 -4.608173,0.61164 l -2.837993,0.0037 -2.124796,2.112301 -2.124797,2.1123 0.99404,0.354464 c 3.206946,1.143561 7.980704,1.339005 11.31279,0.463161 z"
           id="path13" /><path
           style="fill:#353535"
           d="m 89.993963,-51.329303 c -1.070562,-0.121422 -2.076471,-0.350762 -2.235353,-0.509644 -0.158882,-0.158882 -1.079979,-1.66706 -2.046883,-3.351508 l -1.758006,-3.062631 -2.113486,-0.852168 -2.113485,-0.852168 -3.153571,0.861363 c -1.734464,0.47375 -3.44023,0.866022 -3.79059,0.871716 -0.867769,0.0141 -3.062934,-1.731566 -5.666663,-4.506318 -3.291905,-3.508132 -3.192922,-3.151806 -2.047332,-7.3701 l 0.964748,-3.552397 -0.849313,-2.106405 -0.849314,-2.106406 -3.246549,-1.881823 c -2.668575,-1.546807 -3.289255,-2.023132 -3.486435,-2.675573 -0.131937,-0.436562 -0.239886,-2.758281 -0.239886,-5.159375 0,-2.401093 0.107949,-4.722812 0.239886,-5.159376 0.19718,-0.65244 0.81786,-1.12876 3.486435,-2.67557 l 3.246549,-1.88182 0.849314,-2.10641 0.849313,-2.106414 -0.964748,-3.55239 c -1.176905,-4.33361 -1.322642,-3.92678 2.930122,-8.17954 4.252763,-4.25276 3.845934,-4.10703 8.179538,-2.93012 l 3.552396,0.96475 2.106406,-0.84932 2.106406,-0.84931 1.881823,-3.24655 c 1.546807,-2.66857 2.023132,-3.28925 2.675573,-3.48643 1.031634,-0.31178 9.287115,-0.31178 10.31875,0 0.652441,0.19718 1.128766,0.81786 2.675572,3.48643 l 1.88182,3.24655 2.10641,0.84931 2.10641,0.84932 3.55239,-0.96475 c 4.33361,-1.17691 3.92678,-1.32264 8.17954,2.93012 4.25276,4.25276 4.10703,3.84593 2.93012,8.17954 l -0.96475,3.55239 0.84932,2.106414 0.84931,2.10641 3.24655,1.88182 c 2.66857,1.54681 3.28925,2.02313 3.48643,2.67557 0.31178,1.031636 0.31178,9.287117 0,10.318751 -0.19718,0.652441 -0.81786,1.128766 -3.48643,2.675573 l -3.24655,1.881823 -0.84931,2.106406 -0.84932,2.106405 0.96475,3.552397 c 1.14559,4.218294 1.24458,3.861968 -2.04733,7.3701 -2.60373,2.774752 -4.79889,4.520421 -5.66666,4.506318 -0.35036,-0.0057 -2.05613,-0.397966 -3.79059,-0.871716 l -3.15357,-0.861363 -2.10836,0.850099 -2.10836,0.8501 -1.88182,3.246549 c -1.543058,2.662108 -2.018787,3.282671 -2.642657,3.447205 -1.238196,0.326551 -6.757639,0.472451 -8.85856,0.234166 z m 6.800525,-1.762802 1.62438,-0.169781 1.897932,-3.250377 1.89792,-3.250377 1.87432,-0.692368 c 1.03087,-0.380802 2.16341,-0.851565 2.51675,-1.046141 0.56475,-0.310992 1.05931,-0.243806 4.08968,0.555585 1.92225,0.507075 3.72042,0.840795 4.06476,0.754372 0.81339,-0.204149 6.09102,-5.492561 6.29586,-6.308733 0.0921,-0.367054 -0.22563,-2.08174 -0.75355,-4.066293 -0.80187,-3.014435 -0.86994,-3.50951 -0.55989,-4.072498 0.19412,-0.352494 0.66321,-1.480765 1.04242,-2.507267 l 0.68947,-1.866369 3.22461,-1.874804 c 3.73542,-2.171782 3.591,-1.902512 3.591,-6.695584 0,-4.813802 0.14505,-4.542964 -3.59158,-6.706316 l -3.2252,-1.86727 -0.68889,-1.86477 c -0.37888,-1.02562 -0.84771,-2.153174 -1.04183,-2.505674 -0.31005,-0.56298 -0.24198,-1.05806 0.55989,-4.0725 0.52792,-1.98455 0.84568,-3.69923 0.75355,-4.06629 -0.20729,-0.82592 -5.48712,-6.10575 -6.31304,-6.31304 -0.36706,-0.0921 -2.08174,0.22563 -4.06629,0.75355 -3.01444,0.80187 -3.50952,0.86994 -4.0725,0.55989 -0.3525,-0.19412 -1.48005,-0.66295 -2.50567,-1.04183 l -1.86477,-0.68889 -1.86727,-3.2252 c -2.163353,-3.73663 -1.892514,-3.59158 -6.706317,-3.59158 -4.789516,0 -4.526017,-0.14061 -6.680263,3.56465 l -1.859484,3.19827 -2.410856,0.98942 c -1.325971,0.54418 -2.696388,0.98007 -3.045371,0.96864 -0.348984,-0.0114 -1.992596,-0.39449 -3.652472,-0.85124 -2.709897,-0.74567 -3.090037,-0.79291 -3.724112,-0.46274 -1.031128,0.53693 -5.85045,5.4514 -6.024021,6.14297 -0.08141,0.32438 0.268222,2.1084 0.776973,3.96449 l 0.925,3.37471 -0.737161,1.644854 c -0.405438,0.90467 -0.87966,2.07768 -1.053827,2.6067 -0.281202,0.85413 -0.681577,1.17192 -3.575077,2.83772 l -3.258411,1.875882 -0.170668,1.632859 c -0.216936,2.075538 -0.216936,4.209933 0,6.285471 l 0.170668,1.632859 3.258411,1.875879 c 2.8935,1.665799 3.293875,1.983597 3.575077,2.837724 0.174167,0.529014 0.647868,1.700866 1.05267,2.604116 l 0.736003,1.642272 -0.944995,3.468871 c -1.134381,4.164066 -1.227708,3.853065 2.178343,7.259115 3.403761,3.403761 3.099057,3.311633 7.230435,2.186157 l 3.44019,-0.937182 2.66227,1.100497 2.662269,1.100497 1.861873,3.226369 1.861873,3.226369 1.11556,0.100844 c 2.042299,0.184619 5.119615,0.195317 6.763358,0.02351 z m -6.176964,-13.230479 c -3.60425,-0.580015 -7.799787,-2.455328 -10.495227,-4.691137 -2.430369,-2.015937 -4.275794,-4.362017 -5.644882,-7.17631 -1.725488,-3.546911 -2.091157,-5.189359 -2.091157,-9.392709 0,-4.199215 0.364489,-5.839426 2.087255,-9.392706 2.091602,-4.314034 5.461236,-7.682324 9.794011,-9.790114 3.546911,-1.72549 5.189359,-2.09116 9.392709,-2.09116 4.20335,0 5.845798,0.36567 9.392707,2.09116 5.52867,2.68957 9.78036,7.863594 11.4149,13.891154 0.64849,2.391401 0.64849,8.191932 0,10.583333 -1.14967,4.239555 -3.97372,8.598254 -7.36771,11.371487 -1.88847,1.54307 -5.6564,3.470689 -8.015939,4.100836 -1.584038,0.423039 -6.96248,0.738228 -8.466667,0.496166 z m 8.863542,-2.470535 c 5.376204,-1.820285 9.430454,-5.329747 11.772584,-10.190662 1.40416,-2.914212 1.98575,-5.4327 1.98575,-8.598959 0,-3.168173 -0.58199,-5.686326 -1.98737,-8.598956 -1.96997,-4.082744 -4.86707,-6.980444 -9.01417,-9.016044 -2.883029,-1.41513 -5.224916,-1.95342 -8.525397,-1.95958 -3.217268,-0.006 -5.723969,0.56954 -8.651189,1.98634 -4.147306,2.00733 -6.987173,4.84686 -8.99032,8.989284 -1.415635,2.92747 -1.991089,5.43422 -1.985977,8.651187 0.0047,2.962101 0.933998,7.356103 1.55575,7.356103 0.0949,0 1.12169,-0.954745 2.281757,-2.121656 l 2.109212,-2.121655 -0.07836,-2.574699 c -0.09086,-2.985583 0.328801,-4.899804 1.595035,-7.2755 1.722198,-3.23118 5.526549,-6.073064 9.131968,-6.821674 3.08623,-0.6408 8.004626,0.068 8.445569,1.217034 0.121086,0.31555 -1.026282,1.63738 -4.201715,4.8406 l -4.368288,4.406508 0.692266,2.38125 0.692267,2.38125 2.38125,0.692267 2.38125,0.692266 4.406512,-4.368287 c 3.20322,-3.175434 4.52505,-4.322804 4.84059,-4.201714 1.14908,0.44094 1.85784,5.359337 1.21703,8.445567 -1.00269,4.829175 -5.08075,9.083454 -9.956517,10.386773 -1.056897,0.282514 -2.402919,0.393114 -4.140647,0.34023 l -2.574699,-0.07836 -2.121655,2.109212 c -1.166911,1.160066 -2.121656,2.186857 -2.121656,2.281757 0,0.243683 1.189043,0.694961 3.042709,1.154801 2.383263,0.591217 7.921896,0.382053 10.186458,-0.384686 z m -12.155026,-4.385588 2.802574,-2.793883 1.756313,0.305849 c 4.827134,0.840609 10.235833,-1.909536 12.485113,-6.348261 0.99917,-1.971775 1.53325,-4.757406 1.31065,-6.836018 l -0.18059,-1.686359 -4.03447,4.00428 c -3.769945,3.741738 -4.084361,3.99192 -4.795453,3.815759 -2.114642,-0.52387 -5.9654,-1.647245 -6.09675,-1.778594 -0.131349,-0.13135 -1.254724,-3.982108 -1.778593,-6.09675 -0.176156,-0.711065 0.07382,-1.025303 3.810571,-4.790232 l 3.999093,-4.02924 -1.405987,-0.16269 c -7.90091,-0.914244 -14.533235,5.89094 -13.417779,13.767478 l 0.251282,1.774372 -2.8235,2.832283 -2.823501,2.832283 0.714782,1.219682 c 1.019861,1.740262 3.645844,4.460174 5.504351,5.701237 0.875263,0.584478 1.665172,1.062688 1.755354,1.062688 0.09018,0 1.425125,-1.257248 2.96654,-2.793884 z"
           id="path12" /></g></g></g></svg>
