<?xml version="1.0" encoding="UTF-8" standalone="no"?>
<!-- Created with Inkscape (http://www.inkscape.org/) -->

<svg
   width="341"
   height="300"
   viewBox="0 0 90.22291 79.375"
   version="1.1"
   id="svg1"
   inkscape:version="1.4.2 (ebf0e940d0, 2025-05-08)"
   sodipodi:docname="support.svg"
   xmlns:inkscape="http://www.inkscape.org/namespaces/inkscape"
   xmlns:sodipodi="http://sodipodi.sourceforge.net/DTD/sodipodi-0.dtd"
   xmlns="http://www.w3.org/2000/svg"
   xmlns:svg="http://www.w3.org/2000/svg">
  <sodipodi:namedview
     id="namedview1"
     pagecolor="#ffffff"
     bordercolor="#000000"
     borderopacity="0.25"
     inkscape:showpageshadow="2"
     inkscape:pageopacity="0.0"
     inkscape:pagecheckerboard="0"
     inkscape:deskcolor="#d1d1d1"
     inkscape:document-units="mm"
     inkscape:zoom="0.78867008"
     inkscape:cx="90.02497"
     inkscape:cy="-63.397866"
     inkscape:window-width="1600"
     inkscape:window-height="828"
     inkscape:window-x="0"
     inkscape:window-y="0"
     inkscape:window-maximized="1"
     inkscape:current-layer="layer1" />
  <defs
     id="defs1">
    <clipPath
       clipPathUnits="userSpaceOnUse"
       id="clipPath45">
      <path
         sodipodi:type="star"
         style="fill:#f7a70f;stroke-width:0.499999;stroke-linejoin:round"
         id="path45"
         inkscape:flatsided="false"
         sodipodi:sides="3"
         sodipodi:cx="-33.448082"
         sodipodi:cy="26.33147"
         sodipodi:r1="110.07949"
         sodipodi:r2="46.017536"
         sodipodi:arg1="0.40772143"
         sodipodi:arg2="1.454919"
         inkscape:rounded="0"
         inkscape:randomized="0"
         inkscape:transform-center-x="-13.455368"
         inkscape:transform-center-y="-15.032168"
         transform="matrix(1.1431569,-0.15072312,0.15072312,1.1431569,30.711762,4.963849)"
         d="M 67.60783,69.980033 -28.127618,72.040401 -121.7768,92.024176 -75.693409,8.084662 -46.175274,-83.009797 3.476781,-1.1306513 Z" />
    </clipPath>
    <clipPath
       clipPathUnits="userSpaceOnUse"
       id="clipPath46">
      <path
         sodipodi:type="star"
         style="fill:#f7a70f;stroke-width:0.499999;stroke-linejoin:round"
         id="path46"
         inkscape:flatsided="false"
         sodipodi:sides="3"
         sodipodi:cx="-33.448082"
         sodipodi:cy="26.33147"
         sodipodi:r1="110.07949"
         sodipodi:r2="46.017536"
         sodipodi:arg1="0.40772143"
         sodipodi:arg2="1.454919"
         inkscape:rounded="0"
         inkscape:randomized="0"
         inkscape:transform-center-x="-13.455368"
         inkscape:transform-center-y="-15.032168"
         transform="matrix(1.1431569,-0.15072312,0.15072312,1.1431569,30.711762,4.963849)"
         d="M 67.60783,69.980033 -28.127618,72.040401 -121.7768,92.024176 -75.693409,8.084662 -46.175274,-83.009797 3.476781,-1.1306513 Z" />
    </clipPath>
    <clipPath
       clipPathUnits="userSpaceOnUse"
       id="clipPath47">
      <path
         sodipodi:type="star"
         style="fill:#f7a70f;stroke-width:0.499999;stroke-linejoin:round"
         id="path47"
         inkscape:flatsided="false"
         sodipodi:sides="3"
         sodipodi:cx="-33.448082"
         sodipodi:cy="26.33147"
         sodipodi:r1="110.07949"
         sodipodi:r2="46.017536"
         sodipodi:arg1="0.40772143"
         sodipodi:arg2="1.454919"
         inkscape:rounded="0"
         inkscape:randomized="0"
         inkscape:transform-center-x="-13.455368"
         inkscape:transform-center-y="-15.032168"
         transform="matrix(1.1431569,-0.15072312,0.15072312,1.1431569,30.711762,4.963849)"
         d="M 67.60783,69.980033 -28.127618,72.040401 -121.7768,92.024176 -75.693409,8.084662 -46.175274,-83.009797 3.476781,-1.1306513 Z" />
    </clipPath>
    <clipPath
       clipPathUnits="userSpaceOnUse"
       id="clipPath48">
      <path
         sodipodi:type="star"
         style="fill:#f7a70f;stroke-width:0.499999;stroke-linejoin:round"
         id="path48"
         inkscape:flatsided="false"
         sodipodi:sides="3"
         sodipodi:cx="-33.448082"
         sodipodi:cy="26.33147"
         sodipodi:r1="110.07949"
         sodipodi:r2="46.017536"
         sodipodi:arg1="0.40772143"
         sodipodi:arg2="1.454919"
         inkscape:rounded="0"
         inkscape:randomized="0"
         inkscape:transform-center-x="-13.455368"
         inkscape:transform-center-y="-15.032168"
         transform="matrix(1.1431569,-0.15072312,0.15072312,1.1431569,30.711762,4.963849)"
         d="M 67.60783,69.980033 -28.127618,72.040401 -121.7768,92.024176 -75.693409,8.084662 -46.175274,-83.009797 3.476781,-1.1306513 Z" />
    </clipPath>
    <clipPath
       clipPathUnits="userSpaceOnUse"
       id="clipPath49">
      <path
         sodipodi:type="star"
         style="fill:#f7a70f;stroke-width:0.499999;stroke-linejoin:round"
         id="path49"
         inkscape:flatsided="false"
         sodipodi:sides="3"
         sodipodi:cx="-33.448082"
         sodipodi:cy="26.33147"
         sodipodi:r1="110.07949"
         sodipodi:r2="46.017536"
         sodipodi:arg1="0.40772143"
         sodipodi:arg2="1.454919"
         inkscape:rounded="0"
         inkscape:randomized="0"
         inkscape:transform-center-x="-13.455368"
         inkscape:transform-center-y="-15.032168"
         transform="matrix(1.1431569,-0.15072312,0.15072312,1.1431569,30.711762,4.963849)"
         d="M 67.60783,69.980033 -28.127618,72.040401 -121.7768,92.024176 -75.693409,8.084662 -46.175274,-83.009797 3.476781,-1.1306513 Z" />
    </clipPath>
    <clipPath
       clipPathUnits="userSpaceOnUse"
       id="clipPath50">
      <path
         sodipodi:type="star"
         style="fill:#f7a70f;stroke-width:0.499999;stroke-linejoin:round"
         id="path50"
         inkscape:flatsided="false"
         sodipodi:sides="3"
         sodipodi:cx="-33.448082"
         sodipodi:cy="26.33147"
         sodipodi:r1="110.07949"
         sodipodi:r2="46.017536"
         sodipodi:arg1="0.40772143"
         sodipodi:arg2="1.454919"
         inkscape:rounded="0"
         inkscape:randomized="0"
         inkscape:transform-center-x="-13.455368"
         inkscape:transform-center-y="-15.032168"
         transform="matrix(1.1431569,-0.15072312,0.15072312,1.1431569,30.711762,4.963849)"
         d="M 67.60783,69.980033 -28.127618,72.040401 -121.7768,92.024176 -75.693409,8.084662 -46.175274,-83.009797 3.476781,-1.1306513 Z" />
    </clipPath>
    <clipPath
       clipPathUnits="userSpaceOnUse"
       id="clipPath51">
      <path
         sodipodi:type="star"
         style="fill:#f7a70f;stroke-width:0.499999;stroke-linejoin:round"
         id="path51"
         inkscape:flatsided="false"
         sodipodi:sides="3"
         sodipodi:cx="-109.35863"
         sodipodi:cy="-34.159744"
         sodipodi:r1="32.042328"
         sodipodi:r2="16.021164"
         sodipodi:arg1="0.99100709"
         sodipodi:arg2="2.0382046"
         inkscape:rounded="0"
         inkscape:randomized="0"
         inkscape:transform-center-x="7.9180442"
         inkscape:transform-center-y="4.9815629"
         transform="matrix(1.7377998,0.45684318,-0.45684318,1.7377998,259.22079,125.48859)"
         d="m -91.804314,-7.3538334 -24.773036,-12.5031926 -24.77303,-12.503192 23.2146,-15.202481 23.214596,-15.202482 1.558435,27.705673 z" />
    </clipPath>
    <clipPath
       clipPathUnits="userSpaceOnUse"
       id="clipPath52">
      <path
         sodipodi:type="star"
         style="fill:#f7a70f;stroke-width:0.499999;stroke-linejoin:round"
         id="path52"
         inkscape:flatsided="false"
         sodipodi:sides="3"
         sodipodi:cx="-109.35863"
         sodipodi:cy="-34.159744"
         sodipodi:r1="32.042328"
         sodipodi:r2="16.021164"
         sodipodi:arg1="0.99100709"
         sodipodi:arg2="2.0382046"
         inkscape:rounded="0"
         inkscape:randomized="0"
         inkscape:transform-center-x="7.9180442"
         inkscape:transform-center-y="4.9815629"
         transform="matrix(1.7377998,0.45684318,-0.45684318,1.7377998,259.22079,125.48859)"
         d="m -91.804314,-7.3538334 -24.773036,-12.5031926 -24.77303,-12.503192 23.2146,-15.202481 23.214596,-15.202482 1.558435,27.705673 z" />
    </clipPath>
    <clipPath
       clipPathUnits="userSpaceOnUse"
       id="clipPath53">
      <path
         sodipodi:type="star"
         style="fill:#f7a70f;stroke-width:0.499999;stroke-linejoin:round"
         id="path53"
         inkscape:flatsided="false"
         sodipodi:sides="3"
         sodipodi:cx="-109.35863"
         sodipodi:cy="-34.159744"
         sodipodi:r1="32.042328"
         sodipodi:r2="16.021164"
         sodipodi:arg1="0.99100709"
         sodipodi:arg2="2.0382046"
         inkscape:rounded="0"
         inkscape:randomized="0"
         inkscape:transform-center-x="7.9180442"
         inkscape:transform-center-y="4.9815629"
         transform="matrix(1.7377998,0.45684318,-0.45684318,1.7377998,259.22079,125.48859)"
         d="m -91.804314,-7.3538334 -24.773036,-12.5031926 -24.77303,-12.503192 23.2146,-15.202481 23.214596,-15.202482 1.558435,27.705673 z" />
    </clipPath>
    <clipPath
       clipPathUnits="userSpaceOnUse"
       id="clipPath54">
      <path
         sodipodi:type="star"
         style="fill:#f7a70f;stroke-width:0.499999;stroke-linejoin:round"
         id="path54"
         inkscape:flatsided="false"
         sodipodi:sides="3"
         sodipodi:cx="-109.35863"
         sodipodi:cy="-34.159744"
         sodipodi:r1="32.042328"
         sodipodi:r2="16.021164"
         sodipodi:arg1="0.99100709"
         sodipodi:arg2="2.0382046"
         inkscape:rounded="0"
         inkscape:randomized="0"
         inkscape:transform-center-x="7.9180442"
         inkscape:transform-center-y="4.9815629"
         transform="matrix(1.7377998,0.45684318,-0.45684318,1.7377998,259.22079,125.48859)"
         d="m -91.804314,-7.3538334 -24.773036,-12.5031926 -24.77303,-12.503192 23.2146,-15.202481 23.214596,-15.202482 1.558435,27.705673 z" />
    </clipPath>
    <clipPath
       clipPathUnits="userSpaceOnUse"
       id="clipPath55">
      <path
         sodipodi:type="star"
         style="fill:#f7a70f;stroke-width:0.499999;stroke-linejoin:round"
         id="path55"
         inkscape:flatsided="false"
         sodipodi:sides="3"
         sodipodi:cx="-109.35863"
         sodipodi:cy="-34.159744"
         sodipodi:r1="32.042328"
         sodipodi:r2="16.021164"
         sodipodi:arg1="0.99100709"
         sodipodi:arg2="2.0382046"
         inkscape:rounded="0"
         inkscape:randomized="0"
         inkscape:transform-center-x="7.9180442"
         inkscape:transform-center-y="4.9815629"
         transform="matrix(1.7377998,0.45684318,-0.45684318,1.7377998,259.22079,125.48859)"
         d="m -91.804314,-7.3538334 -24.773036,-12.5031926 -24.77303,-12.503192 23.2146,-15.202481 23.214596,-15.202482 1.558435,27.705673 z" />
    </clipPath>
    <clipPath
       clipPathUnits="userSpaceOnUse"
       id="clipPath56">
      <path
         sodipodi:type="star"
         style="fill:#f7a70f;stroke-width:0.499999;stroke-linejoin:round"
         id="path56"
         inkscape:flatsided="false"
         sodipodi:sides="3"
         sodipodi:cx="-109.35863"
         sodipodi:cy="-34.159744"
         sodipodi:r1="32.042328"
         sodipodi:r2="16.021164"
         sodipodi:arg1="0.99100709"
         sodipodi:arg2="2.0382046"
         inkscape:rounded="0"
         inkscape:randomized="0"
         inkscape:transform-center-x="7.9180442"
         inkscape:transform-center-y="4.9815629"
         transform="matrix(1.7377998,0.45684318,-0.45684318,1.7377998,259.22079,125.48859)"
         d="m -91.804314,-7.3538334 -24.773036,-12.5031926 -24.77303,-12.503192 23.2146,-15.202481 23.214596,-15.202482 1.558435,27.705673 z" />
    </clipPath>
  </defs>
  <g
     inkscape:label="Шар 1"
     inkscape:groupmode="layer"
     id="layer1">
    <g
       id="g63">
      <g
         id="g62">
        <g
           id="g61"
           style="fill:#ffffff">
          <path
             sodipodi:type="star"
             style="fill:#ffffff;fill-opacity:1;stroke-width:0.499999;stroke-linejoin:round"
             id="path60"
             inkscape:flatsided="false"
             sodipodi:sides="3"
             sodipodi:cx="66.065895"
             sodipodi:cy="-16.368212"
             sodipodi:r1="5.8131113"
             sodipodi:r2="2.4301081"
             sodipodi:arg1="1.550391"
             sodipodi:arg2="2.5975885"
             inkscape:rounded="0"
             inkscape:randomized="0"
             d="m 66.184505,-10.556311 -2.197915,-4.554159 -3.013254,-4.060973 5.042975,0.373629 5.023533,-0.579068 -2.84506,4.18053 z"
             inkscape:transform-center-x="-1.0651144"
             inkscape:transform-center-y="0.55225114"
             transform="matrix(1.0070297,0.3870809,-0.3870809,1.0070297,-4.8855271,14.458817)" />
          <rect
             style="fill:#ffffff;fill-opacity:1;stroke-width:0.499999;stroke-linejoin:round"
             id="rect60"
             width="34.258591"
             height="21.36672"
             x="54.299076"
             y="1.5045089" />
        </g>
        <g
           id="g58"
           transform="translate(-0.27847245,11.324914)">
          <path
             style="fill:#040405;stroke:none;stroke-width:1.25303;stroke-opacity:1"
             d="M 28.416902,91.473635 C 26.99704,91.137235 26.142874,90.338 25.66914,88.902589 l -0.382689,-1.15958 0.172818,-1.535454 0.172819,-1.535465 1.357761,-1.205405 1.357748,-1.205404 -0.0062,-6.585588 -0.0062,-6.585587 -1.845091,-2.81802 C 23.022161,60.975544 21.042446,56.114493 20.378552,51.265721 l -0.372013,-2.717038 0.202164,-1.498651 c 0.383403,-2.842215 0.939261,-4.820629 1.958013,-6.968927 l 1.021898,-2.154953 2.662218,-2.691099 2.662217,-2.691113 3.481087,-1.683324 c 1.914584,-0.925828 4.052206,-1.784969 4.750257,-1.90922 0.698052,-0.124301 1.402996,-0.393577 1.566542,-0.598536 0.163546,-0.204959 0.661113,-0.820223 1.105714,-1.367247 l 0.808355,-0.994595 h 2.717302 2.717287 l 0.875381,1.010371 0.875368,1.010382 2.154954,0.409041 2.154952,0.409053 2.818019,1.367296 2.81802,1.367308 2.486492,2.517781 2.48648,2.51778 1.115687,1.90258 c 0.613635,1.046432 1.558485,3.187213 2.099682,4.757313 l 0.983981,2.854721 0.286581,4.043948 c 0.334321,4.717592 0.396321,4.914756 2.613011,8.310399 l 1.686644,2.583678 v 0.837614 0.837627 l -1.28427,1.221694 -1.284258,1.221694 -2.229396,0.633282 -2.229382,0.633283 0.217652,3.481074 c 0.119665,1.914596 0.295377,3.940448 0.39037,4.501908 l 0.172717,1.020819 -0.864881,1.02785 -0.86488,1.027863 -1.618441,0.537563 c -0.890155,0.295652 -2.564118,0.641854 -3.719953,0.769335 l -2.101497,0.231774 -0.09961,1.723383 -0.09961,1.723371 1.005721,0.520072 1.005708,0.520071 0.538917,1.042147 0.538904,1.042135 -0.141104,1.95072 -0.141091,1.950709 -0.837289,0.837288 -0.837289,0.837289 -1.295447,0.300477 -1.29546,0.300489 -12.26666,-0.02606 -12.26666,-0.02606 z m 27.589892,-2.515322 0.520986,-0.520975 v -1.359226 -1.359214 l -0.54869,-0.606293 -0.548678,-0.60628 H 41.907812 28.3852 l -0.516098,0.736833 -0.5161,0.736821 v 1.012825 1.012826 l 0.5161,0.736834 0.516098,0.736832 h 13.550305 13.550316 z m -2.462798,-8.2073 V 78.984902 L 51.40358,78.59051 c -1.177237,-0.216913 -2.818308,-0.684971 -3.646851,-1.040117 l -1.506432,-0.645726 v -0.468496 c 0,-0.257661 0.198767,-0.633432 0.441693,-0.835058 l 0.441707,-0.366575 1.961897,0.736921 1.96191,0.736921 4.309906,0.0038 4.309916,0.0038 1.579611,-0.72944 1.57961,-0.729452 -0.200987,-1.75704 C 62.52504,72.533682 62.410942,70.188331 62.382072,68.28817 l -0.0525,-3.454861 2.154952,-0.551722 c 2.472785,-0.633095 4.265297,-1.485195 4.519863,-2.148562 L 69.180212,61.674803 67.796577,59.63731 C 67.035573,58.516673 66.13884,56.977699 65.803842,56.217359 l -0.609099,-1.382445 -0.338369,-4.144142 -0.338369,-4.144141 -0.551322,-1.822874 c -0.804422,-2.659636 -2.523531,-5.902584 -4.25729,-8.030948 L 58.191233,34.829112 55.68725,33.154334 53.183265,31.479569 51.007988,30.807693 C 49.81158,30.438161 48.475446,30.135817 48.038802,30.135817 h -0.793908 l 9.52e-4,5.387388 9.52e-4,5.387387 1.008742,0.663067 c 0.554805,0.364682 1.441839,1.311111 1.971182,2.103164 l 0.962455,1.44011 0.361449,1.741126 0.361463,1.741138 -0.353406,1.57693 c -0.438824,1.958175 -1.047158,3.153205 -2.374922,4.66544 -0.567887,0.646791 -0.97536,1.229801 -0.905516,1.295586 0.06979,0.06578 1.719736,1.442716 3.666409,3.059867 l 3.539391,2.940264 1.464018,-0.116406 1.464005,-0.116406 0.892473,0.775162 0.892459,0.775164 0.187479,1.178691 0.187478,1.178702 -0.870693,1.034766 -0.870695,1.034767 -0.961439,0.211161 -0.961427,0.211174 -1.008967,-0.521763 C 54.668844,67.146202 54.207051,66.3447 54.207051,64.846059 v -1.138717 l -3.960772,-3.275865 -3.96076,-3.275878 -2.618023,0.114406 -2.618023,0.114406 -1.721993,-0.740781 -1.721979,-0.74078 -1.32007,-1.499679 -1.32007,-1.499666 -0.527563,-1.814768 -0.527564,-1.814754 0.22423,-1.690353 0.22423,-1.690352 0.873025,-1.60402 0.873025,-1.604032 1.260162,-0.998078 1.260162,-0.998065 V 35.571886 30.45469 l -0.911706,0.213693 c -3.67022,0.860257 -8.019557,3.340171 -10.747484,6.12803 l -1.900574,1.942337 -1.161411,2.414693 -1.161423,2.414695 -0.376248,2.42498 -0.376248,2.424994 0.351326,2.610553 c 0.612055,4.54797 2.780127,9.665754 6.317437,14.912528 l 1.676369,2.486492 8.4e-4,7.045037 8.39e-4,7.045049 h 11.603606 11.603593 z m -6.877568,-26.605535 1.407293,-0.977754 0.76717,-1.487449 0.767181,-1.487463 -0.117284,-2.032756 -0.117284,-2.032758 -0.815624,-1.204126 c -0.448585,-0.662266 -1.375077,-1.577205 -2.058857,-2.033208 l -1.243246,-0.829081 v -6.78002 -6.780033 l -0.641265,-0.343193 c -0.823355,-0.440642 -2.535561,-0.440642 -3.358916,0 l -0.641263,0.343193 v 6.780033 6.78002 l -1.34547,0.890391 -1.345468,0.890394 -0.833166,1.42169 -0.833167,1.421678 1.76e-4,1.753893 c 2.13e-4,2.10403 0.340073,3.086496 1.575638,4.554886 l 0.930602,1.105963 1.339842,0.627005 1.339843,0.627018 1.908017,-0.115282 1.908031,-0.115282 z M 70.673124,40.523149 C 70.55158,40.401604 70.452101,38.238345 70.452101,35.715942 v -4.586187 l -5.55315,-0.0013 -5.553164,-0.0013 -1.080502,-0.658794 c -0.594276,-0.362326 -1.376958,-1.14502 -1.739297,-1.739297 L 55.867193,27.648563 55.865893,15.92929 55.864593,4.2100299 56.397181,3.087676 56.929783,1.9653221 58.137731,1.2141547 59.345667,0.46297465 H 79.569094 99.79251 l 1.16036,0.67064755 1.16037,0.6706487 0.74594,1.4716728 0.74595,1.471674 V 15.879258 27.010833 l -0.74595,1.454721 -0.74594,1.454732 -1.15519,0.6047 -1.155191,0.604714 H 90.53968 81.276501 l -4.845864,4.807208 c -4.629065,4.592138 -5.25394,5.08988 -5.757634,4.586186 z M 90.081642,29.140567 h 9.508247 l 0.930201,-0.800125 0.9302,-0.800124 V 15.93472 4.3291222 L 100.64656,3.47359 99.842814,2.6180439 h -20.180699 -20.1807 l -0.813756,0.8137699 -0.813757,0.8137561 v 11.6337421 11.63374 l 0.813757,0.813757 0.813756,0.813758 h 6.082107 6.082093 l 0.397838,0.397837 0.397837,0.397838 v 3.658454 3.658441 l 4.066041,-4.05628 4.066052,-4.05629 z m -13.522988,-4.425899 -0.189571,-0.494033 2.32049,-8.693876 2.320504,-8.6938901 0.439926,-0.2789124 c 0.647255,-0.4103431 0.880419,-0.3543199 1.211532,0.291117 l 0.297634,0.580179 -2.364836,8.7855855 -2.364848,8.785587 -0.740629,0.106126 -0.74063,0.106127 z M 65.977448,19.178934 62.704803,15.847935 65.992046,12.548313 69.2793,9.2486777 h 0.550934 0.550921 l 0.214757,0.5596544 0.21477,0.5596669 -2.741346,2.755656 -2.741335,2.755657 2.741335,2.755655 2.741346,2.755657 -0.21477,0.559654 -0.214757,0.559655 h -0.565532 -0.56553 z m 22.929903,3.109989 C 88.785807,22.167379 88.686329,21.834974 88.686329,21.55031 v -0.517591 l 2.561585,-2.57671 2.5616,-2.576697 -2.594153,-2.609454 -2.59414,-2.609451 0.119288,-0.619174 0.119289,-0.6191733 0.620151,-0.1194139 0.620151,-0.1194139 3.105765,3.0928601 3.105779,3.092859 v 0.510398 0.510385 l -3.072899,3.060118 -3.072899,3.060118 h -0.518693 c -0.285277,0 -0.618159,-0.0995 -0.739714,-0.22101 z"
             id="path99489-5-2"
             clip-path="url(#clipPath51)"
             transform="matrix(0.77213136,0,0,0.77213136,10.15393,-11.047892)" />
        </g>
      </g>
      <g
         id="g60"
         transform="matrix(1.0787169,0,0,1.0787169,0,-6.2481514)">
        <path
           style="fill:#fddcc5;stroke-width:1.25303"
           d="M 7.3285315,65.760371 C 6.2366758,65.166922 5.4840175,64.0268 5.2060828,62.545291 L 4.9892079,61.389255 5.3523611,60.040616 5.7155155,58.69199 6.8360014,57.708184 7.9564885,56.724391 8.0618658,50.135572 8.1672431,43.546739 6.3565988,40.877279 C 5.3607392,39.409076 3.8388937,36.723664 2.9747274,34.909713 L 1.4035002,31.611606 0.73688714,28.98921 0.07027412,26.366801 V 23.174175 19.981549 L 0.57791493,18.032595 C 0.85711571,16.960664 1.5588518,15.176358 2.1373257,14.06745 L 3.1891094,12.051258 5.8815374,9.3593684 8.5739655,6.6674915 11.698689,5.1327145 c 1.718609,-0.844117 3.917919,-1.7314401 4.887353,-1.9718084 l 1.762628,-0.4370453 0.396948,-0.8065772 0.396935,-0.8065645 1.155748,-0.57966499 1.155746,-0.57966495 1.419661,-5.1426e-4 1.419661,-5.2579e-4 1.123017,0.46923501 c 0.617671,0.25807459 1.274409,0.75208288 1.459419,1.09778128 l 0.336403,0.6285589 1.928128,0.362941 c 2.772372,0.5218499 5.438624,1.60011 7.714218,3.1197001 l 1.983074,1.3242415 1.972336,2.1524591 1.972348,2.152459 1.320783,2.551725 c 0.726446,1.403434 1.641987,3.59604 2.034561,4.872429 l 0.713765,2.320728 0.27088,3.812602 0.270882,3.812614 0.493481,1.171573 c 0.271406,0.644359 1.198889,2.201928 2.061063,3.461264 l 1.567581,2.28969 -0.199696,0.99848 c -0.361875,1.809378 -2.356315,3.335008 -5.448272,4.167585 l -1.442441,0.388403 0.254002,4.038986 c 0.365748,5.815461 0.336878,5.907458 -2.271196,7.238554 l -1.258971,0.642542 -2.636531,0.384281 -2.63653,0.384279 0.0025,1.507274 0.0025,1.507272 1.006273,0.572661 1.006273,0.572673 0.48352,1.157226 0.483519,1.157212 v 1.353238 1.35325 l -0.490675,0.948846 c -0.269864,0.521875 -0.886745,1.260413 -1.370829,1.641197 L 36.118598,66.256646 22.156109,66.243363 8.1936076,66.23008 Z M 50.711655,15.174241 50.131476,14.836323 V 10.377119 5.9179153 H 44.710244 39.289 L 38.192973,5.1719724 C 37.590164,4.7617044 36.784853,4.0050485 36.403404,3.4905033 l -0.69354,-0.9355137 -0.09498,-11.9445181 -0.09498,-11.9445185 0.829571,-1.415563 0.82957,-1.41555 1.13888,-0.540446 1.138895,-0.540433 h 20.269401 20.269402 l 1.267305,0.646528 1.267291,0.646527 0.542926,1.144118 0.542914,1.144119 V -9.6080327 2.4486819 L 82.807484,3.6386241 81.998902,4.8285664 80.851075,5.3732466 79.703246,5.9179153 H 70.46618 61.229114 l -4.798625,4.8072077 c -2.63925,2.643961 -4.875148,4.802673 -4.968687,4.797135 -0.09348,-0.005 -0.43113,-0.162156 -0.750228,-0.348017 z"
           id="path99495-3"
           clip-path="url(#clipPath50)"
           transform="translate(-4.9188288e-6,13.118354)" />
        <path
           style="fill:#f4cbae;stroke-width:1.25303"
           d="M 7.285201,65.737666 6.3776547,65.245249 5.8761919,64.275515 5.374728,63.305793 v -2.05699 -2.056979 L 6.7837383,57.851493 8.1927474,56.511162 8.3112844,50.280096 8.4298215,44.049016 6.372994,40.873933 C 5.2417305,39.127645 3.6642757,36.322732 2.8675352,34.6408 L 1.4189176,31.582736 0.74685296,28.779152 0.07477678,25.97558 0.07224007,23.256762 c -0.0025367,-3.5228 0.46179207,-5.67779 1.86026463,-8.624822 L 3.0677266,12.239664 4.9670232,10.18226 6.8663186,8.1248561 9.2402637,6.571221 C 11.751617,4.927656 15.029399,3.4746903 17.103681,3.0855612 L 18.352027,2.851357 18.638696,2.097382 C 18.796365,1.6826909 19.266352,1.1045549 19.683123,0.81263594 L 20.44087,0.28188799 h 2.611244 2.611231 l 0.893976,0.95699151 0.893964,0.957003 1.974176,0.4052557 c 10.157407,2.0850714 17.71373,11.8862268 17.723779,22.9891848 0.0025,2.805476 0.41632,4.068295 2.261135,6.900649 0.872637,1.33978 1.688699,2.705372 1.813477,3.034668 l 0.226861,0.598711 -0.453836,1.086154 c -0.620665,1.48547 -1.860778,2.378932 -4.464216,3.216321 l -2.203294,0.70869 0.305539,4.654226 0.305539,4.654238 -1.037787,0.927257 -1.037785,0.927268 -1.754233,0.520999 c -0.964835,0.286556 -2.537479,0.613084 -3.494783,0.725618 l -1.740537,0.20462 v 1.540529 1.540528 l 0.95446,0.563827 0.954472,0.563814 0.537426,1.132541 0.537426,1.132541 v 1.203788 c 0,0.66209 -0.214807,1.717894 -0.477356,2.34624 l -0.477342,1.142452 -1.097431,0.669082 -1.097418,0.669082 -13.758558,-0.01253 -13.7585583,-0.01253 z m 18.988865,-14.375915 -0.342003,-0.639046 0.190211,-0.495687 c 0.104628,-0.272623 0.398802,-0.575718 0.653745,-0.673556 l 0.463546,-0.17788 1.138267,0.475601 c 1.952475,0.8158 4.224148,1.191371 7.157559,1.183326 l 2.826729,-0.0075 1.657648,-0.506327 c 0.911719,-0.278473 1.840379,-0.625249 2.063695,-0.770614 l 0.406019,-0.26429 -0.375346,-4.861702 -0.375358,-4.861716 0.394417,-0.475249 0.39443,-0.475251 1.40059,-0.210034 c 0.770339,-0.115528 2.18282,-0.572434 3.13887,-1.015382 l 1.73827,-0.805349 V 36.36856 c 0,-0.226887 -0.674809,-1.41832 -1.499579,-2.64762 -0.824771,-1.229323 -1.697572,-2.80352 -1.939531,-3.498239 L 44.926293,28.959588 44.702626,25.705012 C 43.935645,14.54483 36.388281,4.9233206 28.401089,4.9233206 h -0.813744 l 0.005,5.0558608 0.005,5.0558596 1.439571,1.389913 c 0.791778,0.764451 1.715514,1.957964 2.052754,2.652256 l 0.613185,1.26233 0.130829,2.361553 0.130841,2.361565 -0.649321,1.46789 c -0.357127,0.807353 -1.138279,2.024787 -1.735888,2.705434 -0.597621,0.680647 -1.029429,1.279334 -0.959572,1.33042 0.06979,0.05113 1.642713,1.371982 3.495233,2.935303 l 3.368226,2.842417 1.454244,-0.16391 1.454245,-0.163921 1.037836,0.873288 1.037837,0.873288 0.213078,0.970086 0.213066,0.970097 -0.545846,1.150284 -0.545846,1.150283 -1.147365,0.544455 -1.147363,0.544467 -1.142553,-0.377086 -1.142552,-0.377076 -0.668255,-0.84953 -0.668242,-0.849544 v -1.214051 -1.214063 l -3.779538,-3.120113 -3.779647,-3.120113 -3.099626,-0.01542 -3.099639,-0.01542 -1.072997,-0.584865 c -0.590153,-0.321667 -1.606763,-1.0535 -2.259129,-1.626287 l -1.186133,-1.041433 -0.864955,-1.687507 -0.864956,-1.687498 -0.02544,-2.154952 -0.02544,-2.154952 0.939298,-1.912854 0.939298,-1.912854 1.298542,-1.043538 1.29853,-1.043537 v -4.8996 -4.8996189 L 16.563041,5.8023774 C 15.605749,6.0838462 13.62899,6.9317983 12.170248,7.6867131 L 9.5180047,9.0592847 7.4979665,11.07728 l -2.0200394,2.018009 -1.1785385,2.355763 -1.1785398,2.355776 -0.4034765,2.392064 -0.4034766,2.392051 0.2305824,2.340001 0.2305709,2.339988 0.7936458,2.501879 c 0.9773278,3.080943 2.9385743,6.95121 5.3115289,10.481578 l 1.7981383,2.675174 v 0.848176 0.848179 l 1.906301,1.569486 c 2.942195,2.422336 6.104436,3.840844 11.520717,5.167893 1.276402,0.312732 2.36327,0.584114 2.415271,0.603059 0.052,0.01892 -0.05939,-0.2531 -0.247462,-0.604575 z M 50.651798,15.010694 50.131476,14.490373 V 10.225978 5.9615837 L 44.51853,5.856829 38.905585,5.7520744 37.991272,5.0685323 C 37.488405,4.6925744 36.769365,3.972996 36.393405,3.4694393 L 35.709864,2.5539115 V -9.6641309 -21.882173 l 0.69354,-0.936028 c 0.381449,-0.514808 1.18676,-1.27169 1.789569,-1.68197 l 1.096027,-0.745943 20.257272,0.0075 20.257272,0.0075 1.351283,0.613723 1.35127,0.613735 0.555032,1.16963 0.55503,1.169644 V -9.7741469 2.1160522 L 83.001058,3.2629776 82.385956,4.409903 80.959717,5.1641155 79.533491,5.9183166 H 70.38103 61.228569 l -4.471071,4.4973954 c -2.459076,2.473561 -4.721788,4.636508 -5.028217,4.806544 l -0.557161,0.309162 z"
           id="path99494-2"
           clip-path="url(#clipPath49)"
           transform="translate(-4.9188288e-6,13.118354)" />
        <path
           style="fill:#9269aa;fill-opacity:1;stroke-width:1.25303"
           d="M 7.8341799,65.935444 C 7.4546233,65.781897 6.7459713,65.183149 6.2594059,64.604899 l -0.8846779,-1.051381 0.00507,-1.880864 0.00507,-1.880865 0.4190012,-0.828191 c 0.2304452,-0.45549 0.8938505,-1.126852 1.4742303,-1.491886 L 8.3333469,56.808006 8.3461227,50.281474 8.3588985,43.754943 6.602473,41.130818 C 4.1503326,37.467302 2.5986519,34.408487 1.342362,30.761636 L 0.26467841,27.633228 0.25845194,23.323323 0.25222547,19.013419 1.0147965,16.858454 C 1.4342105,15.673236 2.3824181,13.768489 3.12192,12.625686 L 4.4664736,10.547869 6.2772689,8.8929145 C 7.2732035,7.9826873 9.0815671,6.6504379 10.295843,5.9323873 l 2.20778,-1.3055713 2.963372,-0.9908232 2.963372,-0.9908231 0.441055,-0.8417741 c 0.242574,-0.4629831 0.726809,-0.99471923 1.076091,-1.18164715 l 0.635049,-0.33986046 h 2.468937 2.468951 l 0.951051,0.94229351 0.951039,0.9422924 2.320729,0.5547049 c 1.276388,0.3050764 3.365043,1.051959 4.641432,1.6597423 l 2.320729,1.1050489 1.94151,1.5889957 1.941511,1.5889945 1.471348,1.9986868 c 0.809247,1.099273 1.999477,3.096695 2.644951,4.438705 l 1.173615,2.44003 0.630789,3.056734 0.630802,3.056734 0.005,2.188371 0.0038,2.188358 0.384656,1.126953 c 0.211549,0.619825 1.10669,2.229245 1.989189,3.576492 l 1.604533,2.449542 v 1.158152 1.158166 l -1.180257,1.113118 -1.180255,1.113131 -2.318862,0.70433 -2.318874,0.704342 0.170776,0.873939 c 0.09397,0.480663 0.270241,2.549307 0.391797,4.596975 l 0.22101,3.723047 -0.9919,0.92658 -0.991913,0.92658 -1.785445,0.545521 c -0.98199,0.300026 -2.568692,0.646025 -3.525984,0.768872 l -1.740536,0.223353 v 1.564198 1.564198 l 1.025067,0.757871 1.025081,0.757872 0.501839,1.201094 0.501853,1.201095 -0.194796,1.421201 c -0.237401,1.732029 -0.993542,2.949337 -2.228757,3.588096 L 35.578043,66.256646 22.051672,66.235591 8.525301,66.214537 Z M 33.554911,55.165368 V 53.688495 L 32.311665,53.48014 c -1.776825,-0.297782 -4.432739,-1.144106 -5.3045,-1.690316 L 26.261211,51.322443 V 50.65662 49.990796 l 0.512991,-0.196851 0.512991,-0.196851 2.139139,0.702224 c 1.176523,0.386222 3.160649,0.797167 4.409159,0.91321 L 36.105509,51.4235 38.3644,51.030123 c 1.242394,-0.216348 2.694496,-0.618622 3.226883,-0.893925 l 0.967981,-0.500561 -0.267234,-3.70751 c -0.146981,-2.039134 -0.270794,-4.372519 -0.275153,-5.185311 l -0.0075,-1.477801 2.554295,-0.712024 c 1.404861,-0.391622 2.93405,-0.960862 3.398198,-1.264986 l 0.843904,-0.55295 v -0.507841 c 0,-0.279314 -0.630287,-1.432091 -1.400639,-2.561725 -0.770364,-1.129633 -1.660619,-2.799826 -1.978375,-3.711532 l -0.577723,-1.657661 -0.0113,-2.251812 c -0.0062,-1.238497 -0.24359,-3.401744 -0.528079,-4.807209 L 43.792386,18.681879 42.290878,15.569585 40.789369,12.457278 38.415349,10.09852 36.041342,7.7397488 33.88639,6.6690077 C 31.990363,5.726916 27.963443,4.4366676 27.710043,4.6900562 c -0.05075,0.050746 -0.113276,2.4286527 -0.138849,5.2841751 l -0.04649,5.1918387 1.20434,1.057435 c 0.662391,0.581583 1.592341,1.719473 2.066551,2.528657 l 0.862198,1.471222 0.161529,2.257676 0.161541,2.257676 -0.815273,1.780798 c -0.44841,0.979432 -1.28219,2.247701 -1.852846,2.818357 l -1.037574,1.037574 3.580352,3.009608 3.58034,3.00962 1.163152,-0.188756 1.163153,-0.188757 1.036094,0.535784 c 1.270825,0.657165 1.718797,1.444032 1.718797,3.019106 v 1.20766 l -0.969095,0.969095 -0.969095,0.969084 h -1.197524 -1.197522 l -0.783634,-0.513456 c -0.431006,-0.282396 -0.965586,-0.952718 -1.187975,-1.489592 l -0.404329,-0.976124 0.176941,-0.676613 0.176941,-0.676601 -3.84384,-3.221195 -3.843839,-3.221182 h -3.00734 -3.007341 l -1.764931,-0.977678 -1.764921,-0.977679 -1.017876,-1.28516 c -0.55983,-0.706848 -1.213661,-1.833387 -1.452954,-2.503408 l -0.435077,-1.218236 -0.0113,-1.989188 -0.0113,-1.98919 0.773573,-1.657661 0.773559,-1.657662 1.378147,-1.242382 1.378147,-1.24238 V 10.228697 5.2548606 h -0.279626 c -0.670497,0 -4.218058,1.3867057 -6.110738,2.3886304 L 9.8504718,8.7359348 7.5209722,11.056663 5.1914841,13.37738 4.2994508,15.059851 c -0.4906125,0.925365 -1.1207119,2.560496 -1.4002263,3.633618 l -0.5082174,1.951147 v 2.529559 2.529572 l 0.6635056,2.622395 0.6635055,2.622409 1.6062627,3.315311 c 0.8834499,1.823426 2.4497409,4.55189 3.4806475,6.06326 l 1.8743746,2.747938 v 6.783592 6.783577 H 22.117132 33.554974 Z M 50.529314,14.802967 50.131476,14.40513 V 10.189464 5.9738129 L 44.551597,5.8630509 38.97172,5.752162 37.784798,4.8461573 36.597888,3.9401514 36.054473,2.5172457 35.51107,1.0943527 l 0.09937,-11.4888277 0.09937,-11.488815 0.683542,-0.91494 c 0.37596,-0.503217 1.095451,-1.222533 1.598882,-1.59848 l 0.915318,-0.683565 20.383353,-0.09034 20.38334,-0.09034 1.414623,0.625765 1.414623,0.625752 0.556297,1.172324 0.556308,1.172325 v 11.9188814 11.91888 L 82.870153,3.2689999 C 82.459885,3.8718089 81.703304,4.67712 81.188859,5.0585687 l -0.935338,0.6935402 -9.526366,0.096983 -9.526367,0.096983 -4.618526,4.6273861 -4.61854,4.627398 h -0.518316 c -0.285077,0 -0.697338,-0.179033 -0.916154,-0.397837 z"
           id="path99493-0"
           clip-path="url(#clipPath48)"
           transform="translate(-4.9188288e-6,13.118354)" />
        <path
           style="fill:#867162;stroke-width:1.25303"
           d="M 7.8341799,65.935444 C 7.4546233,65.781897 6.7459713,65.183149 6.2594059,64.604899 l -0.8846779,-1.051381 0.00127,-1.880864 0.00127,-1.880865 0.6610622,-1.084248 0.6610623,-1.084236 0.8295944,-0.377978 0.8295828,-0.37799 V 50.296323 43.725296 L 6.6617259,41.199446 C 4.3658193,37.7818 2.2137118,33.490302 1.1885808,30.285484 L 0.34020321,27.633228 0.17010407,24.317918 4.9188288e-6,21.002607 0.53256892,18.743628 C 2.2458266,11.476492 8.2577126,5.618678 16.29653,3.383695 l 2.053745,-0.570994 0.477844,-0.9240488 c 0.26281,-0.50823 0.764876,-1.0776582 1.115674,-1.26541286 l 0.637843,-0.34135135 h 2.468938 2.46895 l 0.951052,0.95780551 0.951051,0.9578056 2.742888,0.6858597 2.7429,0.6858471 2.367355,1.244011 2.367353,1.24401 2.194611,2.1681844 2.194598,2.1681847 1.232044,2.032482 c 2.362568,3.897531 3.847185,9.104482 3.872798,13.582907 0.01478,2.590019 0.414653,3.717422 2.38541,6.726039 l 1.604533,2.449542 v 1.158152 1.158166 l -1.180257,1.113118 -1.180243,1.113131 -2.318874,0.70433 -2.318874,0.704342 0.170776,0.873939 c 0.09397,0.480663 0.270241,2.549307 0.391797,4.596975 l 0.221022,3.723047 -1.02008,0.952894 -1.020081,0.952906 -1.923041,0.525897 c -1.057673,0.289238 -2.631682,0.626329 -3.497815,0.749088 l -1.574773,0.223191 1.1e-5,1.537132 1.3e-5,1.537132 1.148918,0.916719 1.148918,0.91673 0.369958,1.3739 0.369958,1.3739 -0.216875,1.156036 c -0.119289,0.635825 -0.460302,1.527558 -0.757835,1.981632 l -0.540945,0.825598 -1.081944,0.452057 -1.081943,0.452068 -13.354794,-0.02106 -13.3547804,-0.02105 z m 27.8952061,-2.47009 0.643532,-0.470576 V 61.492743 59.990708 L 35.942238,59.559716 35.511559,59.128723 22.391132,59.034749 9.2706939,58.940775 8.4830751,59.45685 7.6954564,59.972923 v 1.460559 1.460573 l 0.5209735,0.520973 0.5209735,0.520985 H 21.911622 35.085828 Z M 33.554911,55.165368 V 53.688495 L 32.311665,53.48014 c -1.776825,-0.297782 -4.432739,-1.144106 -5.3045,-1.690316 L 26.261211,51.322443 V 50.65662 49.990796 l 0.512991,-0.196851 0.512991,-0.196851 2.139139,0.702224 c 1.176523,0.386222 3.160649,0.797167 4.409159,0.91321 L 36.105509,51.4235 38.3644,51.030123 c 1.242394,-0.216348 2.694496,-0.618622 3.226883,-0.893925 l 0.967981,-0.500561 -0.267234,-3.70751 c -0.146981,-2.039134 -0.270794,-4.372519 -0.275153,-5.185311 l -0.0075,-1.477801 2.554295,-0.712024 c 1.404861,-0.391622 2.93405,-0.960862 3.398198,-1.264986 l 0.843904,-0.55295 v -0.507841 c 0,-0.279314 -0.630287,-1.432091 -1.400639,-2.561725 -0.770364,-1.129633 -1.660619,-2.799826 -1.978375,-3.711532 l -0.577723,-1.657661 -0.0113,-2.251812 c -0.0062,-1.238497 -0.24359,-3.401744 -0.528079,-4.807209 L 43.792386,18.681879 42.290878,15.569585 40.789369,12.457278 38.415349,10.09852 36.041342,7.7397488 33.88639,6.6690077 C 31.990363,5.726916 27.963443,4.4366676 27.710043,4.6900562 c -0.05075,0.050746 -0.113276,2.4286527 -0.138849,5.2841751 l -0.04649,5.1918387 1.20434,1.057435 c 0.662391,0.581583 1.592341,1.719473 2.066551,2.528657 l 0.862198,1.471222 0.161529,2.257676 0.161541,2.257676 -0.815273,1.780798 c -0.44841,0.979432 -1.28219,2.247701 -1.852846,2.818357 l -1.037574,1.037574 3.580352,3.009608 3.58034,3.00962 1.163152,-0.188756 1.163153,-0.188757 1.036094,0.535784 c 1.270825,0.657165 1.718797,1.444032 1.718797,3.019106 v 1.20766 l -0.969095,0.969095 -0.969095,0.969084 h -1.197524 -1.197522 l -0.783634,-0.513456 c -0.431006,-0.282396 -0.965586,-0.952718 -1.187975,-1.489592 l -0.404329,-0.976124 0.176941,-0.676613 0.176941,-0.676601 -3.84384,-3.221195 -3.843839,-3.221182 h -3.00734 -3.007341 l -1.764931,-0.977678 -1.764921,-0.977679 -1.017876,-1.28516 c -0.55983,-0.706848 -1.213661,-1.833387 -1.452954,-2.503408 l -0.435077,-1.218236 -0.0113,-1.989188 -0.0113,-1.98919 0.773573,-1.657661 0.773559,-1.657662 1.378147,-1.242382 1.378147,-1.24238 V 10.228697 5.2548606 h -0.279626 c -0.670497,0 -4.218058,1.3867057 -6.110738,2.3886304 L 9.8504718,8.7359348 7.5209722,11.056663 5.1914841,13.37738 4.2994508,15.059851 c -0.4906125,0.925365 -1.1207119,2.560496 -1.4002263,3.633618 l -0.5082174,1.951147 v 2.529559 2.529572 l 0.6635056,2.622395 0.6635055,2.622409 1.6062627,3.315311 c 0.8834499,1.823426 2.4497409,4.55189 3.4806475,6.06326 l 1.8743746,2.747938 v 6.783592 6.783577 H 22.117132 33.554974 Z M 50.529314,14.802967 50.131476,14.40513 V 10.161522 5.9179153 h -5.06849 -5.068479 L 38.51524,5.1719724 37.035985,4.4260295 36.278703,2.9341322 35.521407,1.4422464 l 0.09423,-11.6627484 0.09423,-11.662761 0.683553,-0.914952 c 0.375948,-0.50323 1.095439,-1.222558 1.59887,-1.598506 l 0.915329,-0.683554 20.116445,-0.09323 20.116443,-0.09323 1.350381,0.512628 1.350368,0.51264 0.804585,1.072445 0.804572,1.072446 0.09435,12.1177372 0.09435,12.1177252 -0.757421,1.113043 c -0.41657,0.6121822 -1.178314,1.4251496 -1.692759,1.8065971 l -0.935339,0.6935414 -9.526366,0.096983 -9.526366,0.096983 -4.618527,4.6273851 -4.618539,4.627399 h -0.518317 c -0.285077,0 -0.69735,-0.179034 -0.916154,-0.397838 z M 69.630401,3.5971996 h 9.377242 L 79.945601,3.1121632 C 81.311356,2.4059037 81.295443,2.5590737 81.295443,-9.8720086 V -21.297796 l -0.813757,-0.813757 -0.813769,-0.81377 H 59.735455 39.803006 l -0.981538,0.981538 -0.981524,0.981526 0.09536,11.4420772 0.09536,11.4420638 0.754276,0.7547764 0.754275,0.7547775 6.373649,0.1657637 6.373662,0.1657625 0.09435,3.7959872 0.09435,3.7959857 3.888987,-3.8788738 3.888999,-3.8788616 z m -13.148193,-4.22702971 -0.303234,-0.58017919 2.300504,-8.6198092 2.300492,-8.6198225 0.451844,-0.459751 0.451856,-0.45975 0.530521,0.203581 c 0.291794,0.112021 0.61049,0.411972 0.708226,0.666663 l 0.177706,0.463083 -2.355439,8.7343 -2.355424,8.73429899 -0.399153,0.25370106 C 57.33932,0.10013612 56.805152,-0.01192193 56.482208,-0.62983011 Z M 46.106661,-5.9135036 42.837787,-9.1251133 v -0.5243439 -0.5243438 l 3.318093,-3.305638 3.318093,-3.305649 0.57741,0.363617 c 0.317568,0.199997 0.629335,0.62797 0.692826,0.951064 l 0.115404,0.587447 -2.594141,2.609452 -2.594139,2.6094532 2.561587,2.5766975 2.561585,2.5767101 v 0.5065385 c 0,0.5643663 -0.627417,1.3022136 -1.107329,1.3022136 -0.171415,0 -1.782664,-1.4452219 -3.58054,-3.2116085 z m 22.780027,2.6906234 c -0.813944,-0.8139325 -0.68829,-1.0462698 2.123915,-3.9274164 l 2.644888,-2.7097203 -2.653057,-2.6371561 -2.653058,-2.637158 0.09109,-0.461755 c 0.05012,-0.253977 0.350886,-0.625388 0.668454,-0.825385 l 0.577398,-0.363617 3.318092,3.305649 3.318105,3.305638 v 0.5097462 0.5097324 l -3.238361,3.2262074 c -3.527613,3.5143672 -3.442895,3.4597725 -4.197421,2.7052348 z"
           id="path99491-1"
           clip-path="url(#clipPath47)"
           transform="translate(-4.9188288e-6,13.118354)" />
        <path
           style="fill:#f7a70f;fill-opacity:1;stroke-width:1.25303"
           d="M 7.7848604,65.770721 6.7139188,65.299555 6.0455635,64.203327 5.3772093,63.107099 5.375941,61.515861 5.3746726,59.924624 5.8775894,58.952108 6.3804935,57.979579 7.369474,57.468166 8.3584557,56.956741 V 50.302989 43.649237 L 6.5707514,40.945732 C -4.6757782,23.938011 -0.47186712,8.0079725 16.473428,3.421085 L 18.635949,2.8357194 V 2.4171056 c 0,-0.2302446 0.459011,-0.8048603 1.020031,-1.2769146 l 1.020031,-0.85830301 h 2.311707 2.311719 l 1.194792,1.16035841 1.194778,1.1603585 h 0.743048 c 0.408677,0 1.765798,0.3103631 3.015811,0.6896936 l 2.272762,0.6896948 2.154954,1.2683819 2.154952,1.2683693 1.90511,1.9374256 c 4.441636,4.5169819 6.586715,9.5881029 7.060097,16.6905789 0.267173,4.0084 0.461806,4.608828 2.471758,7.625215 l 1.656847,2.486493 8.39e-4,0.762407 c 4.64e-4,0.419327 -0.220471,1.190393 -0.490976,1.713472 l -0.491815,0.951064 -1.746012,0.850645 c -0.960313,0.467846 -2.233995,0.946867 -2.8304,1.064477 -1.471812,0.290253 -1.453455,0.2065 -1.053875,4.808335 0.194457,2.23947 0.268762,4.40961 0.165124,4.822509 l -0.188418,0.750742 -1.405715,0.809634 -1.405714,0.809621 -1.823426,0.365623 c -1.002876,0.201099 -2.345588,0.401647 -2.983783,0.445666 l -1.160357,0.08007 -0.103129,1.433031 -0.103129,1.433031 1.512122,1.408157 1.512135,1.408158 v 2.219533 2.219535 l -1.134622,1.238384 -1.13462,1.238371 -13.70142,0.07556 -13.7014071,0.07556 z M 35.729386,63.465354 36.372918,62.994778 V 61.492743 59.990708 L 35.942238,59.559716 35.511559,59.128723 22.391132,59.034749 9.2706939,58.940775 8.4830751,59.45685 7.6954564,59.972923 v 1.460559 1.460573 l 0.5209735,0.520973 0.5209735,0.520985 H 21.911622 35.085828 Z m -2.174475,-8.247671 v -1.756088 l -2.102463,-0.360133 c -1.156361,-0.19808 -2.808283,-0.672353 -3.670959,-1.053952 l -1.568483,-0.693815 0.107004,-0.753925 0.107014,-0.753925 0.828831,0.0629 c 0.455853,0.03458 1.873146,0.361663 3.149547,0.726834 l 2.320716,0.663969 2.499724,0.01905 2.499712,0.01917 1.966259,-0.512153 c 1.081454,-0.281668 2.197141,-0.721082 2.479337,-0.976463 l 0.513066,-0.46431 -0.379004,-4.742453 -0.379005,-4.742451 0.312957,-0.393114 c 0.172117,-0.216198 0.787506,-0.487792 1.367522,-0.603523 0.580016,-0.11578 1.74179,-0.428562 2.581723,-0.695195 l 1.527159,-0.484786 0.742095,-0.789924 0.742096,-0.789923 -1.387933,-2.043834 c -0.76336,-1.12411 -1.684841,-2.715036 -2.047732,-3.535395 L 45.104311,29.072674 44.813971,25.03766 44.52363,21.002645 43.816181,18.847681 C 43.427077,17.662462 42.637504,15.798576 42.061572,14.705707 L 41.014414,12.718685 38.770308,10.350692 36.526202,7.9826873 34.294626,6.8165025 C 32.066747,5.6522352 28.999023,4.5918313 27.858739,4.5918313 h -0.602884 v 5.2651544 5.2651533 l 1.165545,0.889015 1.165559,0.889 0.974144,1.705678 0.974145,1.705666 0.214808,1.719273 0.21482,1.719273 -0.524657,1.804742 -0.524658,1.804755 -1.359565,1.544551 -1.359565,1.54455 0.938722,0.789109 c 0.516287,0.434013 2.198395,1.837247 3.737996,3.118285 l 2.799262,2.329173 0.69859,-0.265605 c 0.38423,-0.146091 1.102944,-0.188306 1.597153,-0.09385 l 0.898574,0.171778 0.825184,0.980685 0.825198,0.980686 V 39.2467 c 0,0.433286 -0.178232,1.178978 -0.396072,1.657086 l -0.396083,0.86929 -0.913586,0.472431 c -0.502466,0.259841 -1.282516,0.47243 -1.733433,0.47243 h -0.819859 l -1.02003,-0.858289 -1.020031,-0.858302 -0.0062,-1.379538 -0.0075,-1.379538 -4.071992,-3.367588 -4.071992,-3.367575 -1.640006,0.308485 -1.640007,0.308484 -1.600234,-0.341063 c -2.663358,-0.567637 -5.030248,-2.372165 -6.251592,-4.766196 l -0.675835,-1.324745 -0.170876,-1.884422 -0.170864,-1.884423 0.592722,-1.78453 0.592735,-1.784544 1.76987,-1.727957 1.769883,-1.727944 V 10.076567 5.254886 H 17.98058 c -5.041012,0 -12.9668557,6.666495 -14.9202949,12.549581 L 2.360871,19.910815 v 3.054304 c 0,5.780101 2.6670171,12.67456 7.2042601,18.623644 l 0.9483939,1.24351 -0.111015,6.725287 c -0.06115,3.698902 -0.01504,6.880739 0.102494,7.070749 l 0.213505,0.345486 h 11.418282 11.41827 z M 50.684038,14.979782 C 50.562494,14.858238 50.463016,12.784607 50.463016,10.371769 V 5.9847773 L 44.909865,5.8662402 39.356702,5.7477032 38.256326,5.0868669 C 37.651123,4.7234116 36.867878,3.9608544 36.515789,3.3923037 l -0.640161,-1.033727 0.0013,-12.0617638 0.0013,-12.0617649 0.670661,-1.100037 0.670617,-1.100025 1.470433,-0.650449 1.470434,-0.650449 19.987381,0.09285 19.987394,0.09285 0.877023,0.451831 c 0.482355,0.248501 1.228298,0.919851 1.657649,1.491885 l 0.780639,1.040067 V -9.7711894 2.5540499 l -0.69779,0.9360152 C 82.368928,4.004886 81.548392,4.7244644 80.929256,5.0891592 l -1.125712,0.6630547 -9.309916,0.1055041 -9.309919,0.1055041 -4.609955,4.6188029 -4.609969,4.618803 h -0.529368 c -0.291154,0 -0.628822,-0.09948 -0.750379,-0.221023 z M 69.630401,3.5971996 h 9.377242 L 79.945601,3.1121632 C 81.311356,2.4059037 81.295443,2.5590737 81.295443,-9.8720086 V -21.297796 l -0.813757,-0.813757 -0.813769,-0.81377 H 59.735455 39.803006 l -0.981538,0.981538 -0.981524,0.981526 0.09536,11.4420772 0.09536,11.4420638 0.754276,0.7547764 0.754275,0.7547775 6.373649,0.1657637 6.373662,0.1657625 0.09435,3.7959872 0.09435,3.7959857 3.888987,-3.8788738 3.888999,-3.8788616 z m -13.148193,-4.22702971 -0.303234,-0.58017919 2.300504,-8.6198092 2.300492,-8.6198225 0.451844,-0.459751 0.451856,-0.45975 0.530521,0.203581 c 0.291794,0.112021 0.61049,0.411972 0.708226,0.666663 l 0.177706,0.463083 -2.355439,8.7343 -2.355424,8.73429899 -0.399153,0.25370106 C 57.33932,0.10013612 56.805152,-0.01192193 56.482208,-0.62983011 Z M 46.106661,-5.9135036 42.837787,-9.1251133 v -0.5243439 -0.5243438 l 3.318093,-3.305638 3.318093,-3.305649 0.57741,0.363617 c 0.317568,0.199997 0.629335,0.62797 0.692826,0.951064 l 0.115404,0.587447 -2.594141,2.609452 -2.594139,2.6094532 2.561587,2.5766975 2.561585,2.5767101 v 0.5065385 c 0,0.5643663 -0.627417,1.3022136 -1.107329,1.3022136 -0.171415,0 -1.782664,-1.4452219 -3.58054,-3.2116085 z m 22.780027,2.6906234 c -0.813944,-0.8139325 -0.68829,-1.0462698 2.123915,-3.9274164 l 2.644888,-2.7097203 -2.653057,-2.6371561 -2.653058,-2.637158 0.09109,-0.461755 c 0.05012,-0.253977 0.350886,-0.625388 0.668454,-0.825385 l 0.577398,-0.363617 3.318092,3.305649 3.318105,3.305638 v 0.5097462 0.5097324 l -3.238361,3.2262074 c -3.527613,3.5143672 -3.442895,3.4597725 -4.197421,2.7052348 z"
           id="path99490-5"
           clip-path="url(#clipPath46)"
           transform="translate(-4.9188288e-6,13.118354)" />
        <path
           style="fill:#040405;stroke:none;stroke-width:1.25303;stroke-opacity:1"
           d="M 8.4278163,65.930269 C 7.0079547,65.593868 6.1537888,64.794634 5.6800546,63.359222 l -0.3826894,-1.15958 0.1728181,-1.535454 0.1728191,-1.535465 1.3577607,-1.205405 1.357748,-1.205405 -0.00623,-6.585587 -0.00623,-6.585587 -1.8450905,-2.81802 C 3.0330752,35.432176 1.0533603,30.571126 0.38946614,25.722354 L 0.01745288,23.005316 0.2196172,21.506664 c 0.3834031,-2.842215 0.939261,-4.820628 1.9580133,-6.968927 L 3.1995284,12.382785 5.8617465,9.6916856 8.5239634,7.0005732 12.00505,5.3172487 C 13.919634,4.3914207 16.057257,3.5322794 16.755308,3.408029 17.45336,3.2837279 18.158304,3.0144514 18.321849,2.8094932 18.485395,2.6045339 18.982962,1.9892708 19.427563,1.4422464 l 0.808355,-0.99459473 h 2.717302 2.717288 l 0.875381,1.01037083 0.875368,1.0103823 2.154953,0.40904 2.154952,0.4090527 2.81802,1.3672964 2.818019,1.3673079 2.486492,2.5177813 2.486481,2.5177799 1.115687,1.902579 c 0.613635,1.046433 1.558484,3.187214 2.099681,4.757313 l 0.983981,2.854721 0.286582,4.043949 c 0.334321,4.717591 0.39632,4.914756 2.61301,8.310398 l 1.686644,2.583679 v 0.837613 0.837628 l -1.28427,1.221694 -1.284258,1.221694 -2.229395,0.633281 -2.229383,0.633283 0.217652,3.481075 c 0.119665,1.914596 0.295377,3.940448 0.39037,4.501907 l 0.172718,1.02082 -0.864881,1.02785 -0.86488,1.027862 -1.618442,0.537564 c -0.890154,0.295653 -2.564117,0.641854 -3.719952,0.769336 l -2.101498,0.231774 -0.09961,1.723383 -0.09961,1.72337 1.005722,0.520072 1.005707,0.520071 0.538918,1.042146 0.538903,1.042135 -0.141103,1.950721 -0.141092,1.950708 -0.837289,0.837289 -0.837288,0.837289 -1.295448,0.300477 -1.29546,0.300489 -12.26666,-0.02606 -12.2666597,-0.02606 z m 27.5898927,-2.515324 0.520985,-0.520973 v -1.359228 -1.359213 l -0.54869,-0.606292 -0.548677,-0.60628 H 21.918726 8.3961144 l -0.5160985,0.736833 -0.5160996,0.736821 v 1.012825 1.012826 l 0.5160996,0.736834 0.5160985,0.736832 H 21.946419 35.496735 Z M 33.554911,55.207646 V 53.441534 L 31.414494,53.047143 C 30.237257,52.83023 28.596186,52.362172 27.767644,52.007026 L 26.261211,51.3613 v -0.468496 c 0,-0.257662 0.198767,-0.633433 0.441693,-0.835059 l 0.441707,-0.366574 1.961897,0.73692 1.961911,0.736922 4.309905,0.0038 4.309917,0.0038 1.579611,-0.72944 1.57961,-0.729452 -0.200988,-1.757041 c -0.110519,-0.966376 -0.224617,-3.311726 -0.253487,-5.211888 l -0.0525,-3.45486 2.154952,-0.551722 c 2.472785,-0.633095 4.265298,-1.485195 4.519863,-2.148562 l 0.175826,-0.458222 -1.383636,-2.037493 C 47.046489,32.973306 46.149756,31.434331 45.814758,30.673992 L 45.205659,29.291546 44.86729,25.147405 44.528922,21.003263 43.9776,19.18039 C 43.173178,16.520753 41.454068,13.277806 39.720309,11.149442 L 38.202148,9.2857449 35.698164,7.6109669 33.194179,5.9362016 31.018902,5.264326 C 29.822495,4.8947941 28.486361,4.5924493 28.049717,4.5924493 h -0.793909 l 9.52e-4,5.3873882 9.53e-4,5.3873865 1.008741,0.663068 c 0.554806,0.364682 1.441839,1.31111 1.971183,2.103164 l 0.962454,1.44011 0.361449,1.741126 0.361463,1.741138 -0.353405,1.576929 c -0.438825,1.958176 -1.047159,3.153206 -2.374923,4.665441 -0.567887,0.64679 -0.97536,1.2298 -0.905516,1.295585 0.06979,0.06578 1.719737,1.442717 3.66641,3.059868 l 3.539391,2.940264 1.464017,-0.116406 1.464005,-0.116406 0.892473,0.775162 0.89246,0.775164 0.187479,1.17869 0.187478,1.178703 -0.870694,1.034766 -0.870695,1.034767 -0.961439,0.211161 -0.961427,0.211173 -1.008966,-0.521762 c -1.229892,-0.636094 -1.691686,-1.437597 -1.691686,-2.936236 v -1.138718 l -3.960771,-3.275864 -3.960761,-3.275879 -2.618023,0.114406 -2.618023,0.114405 -1.721993,-0.74078 -1.721979,-0.74078 -1.32007,-1.499679 -1.320069,-1.499667 -0.527564,-1.814767 -0.527564,-1.814754 0.22423,-1.690353 0.22423,-1.690353 0.873026,-1.60402 0.873025,-1.604031 1.260162,-0.998078 1.260162,-0.998066 V 10.028519 4.9113231 L 17.724276,5.1250156 C 14.054057,5.9852731 9.7047193,8.465187 6.9767923,11.253046 L 5.0762182,13.195384 3.914807,15.610076 2.7533843,18.02477 2.3771359,20.449752 2.0008887,22.874745 2.3522139,25.485299 c 0.6120553,4.547969 2.7801279,9.665754 6.3174375,14.912527 l 1.6763696,2.486492 8.39e-4,7.045036 8.39e-4,7.04505 h 11.603607 11.603592 z m -6.877569,-26.605535 1.407294,-0.977754 0.767169,-1.487449 0.767181,-1.487463 -0.117284,-2.032756 -0.117283,-2.032758 -0.815624,-1.204126 C 28.120209,18.71754 27.193717,17.802601 26.509938,17.346597 L 25.266691,16.517516 V 9.7374962 2.957463 L 24.625427,2.6142703 c -0.823356,-0.4406417 -2.535562,-0.4406417 -3.358917,0 L 20.625247,2.957463 v 6.7800332 6.7800198 l -1.345469,0.890392 -1.345468,0.890392 -0.833167,1.421691 -0.833166,1.421678 1.75e-4,1.753894 c 2.13e-4,2.10403 0.340074,3.086495 1.575639,4.554886 l 0.930601,1.105963 1.339843,0.627005 1.339842,0.627018 1.908017,-0.115282 1.908031,-0.115282 z M 50.684038,14.979782 C 50.562494,14.858238 50.463016,12.694978 50.463016,10.172574 V 5.586388 L 44.909865,5.585118 39.356702,5.583848 38.276199,4.9250538 C 37.681924,4.5627306 36.899241,3.7800365 36.536902,3.1857601 l -0.658794,-1.0805016 -0.0013,-11.7192732 -0.0013,-11.7192603 0.532588,-1.122354 0.532602,-1.122353 1.207949,-0.751168 1.207935,-0.75118 h 20.223427 20.223416 l 1.160358,0.670648 1.16037,0.670648 0.745943,1.471674 0.745943,1.471673 v 11.1315768 11.131575 l -0.745943,1.4547207 -0.745943,1.4547333 -1.155195,0.6047 -1.155183,0.6047138 h -9.263179 -9.26318 l -4.8458,4.8072074 c -4.629065,4.592139 -5.25394,5.089881 -5.757634,4.586187 z M 70.092556,3.5971996 h 9.508248 L 80.531005,2.7970749 81.461207,1.9969513 V -9.6086461 -21.214244 l -0.803733,-0.855533 -0.803745,-0.855546 h -20.1807 -20.1807 l -0.813756,0.81377 -0.813757,0.813757 V -9.6640548 1.9696851 l 0.813757,0.8137573 0.813756,0.8137572 h 6.082107 6.082093 l 0.397838,0.397837 0.397837,0.3978381 v 3.6584537 3.6584406 l 4.066041,-4.0562787 4.066052,-4.0562907 z m -13.522988,-4.42589862 -0.18957,-0.49403248 2.320489,-8.6938765 2.320504,-8.69389 0.439927,-0.278912 c 0.647254,-0.410343 0.880418,-0.35432 1.211532,0.291117 l 0.297633,0.580179 -2.364836,8.7855854 -2.364847,8.78558667 -0.74063,0.10612676 -0.74063,0.10612676 z m -10.581205,-5.53573378 -3.272646,-3.3309988 3.287243,-3.2996224 3.287255,-3.299635 h 0.550933 0.550922 l 0.214757,0.559654 0.214769,0.559667 -2.741346,2.755656 -2.741335,2.7556572 2.741335,2.7556555 2.741346,2.7556566 -0.214769,0.5596538 -0.214757,0.5596549 h -0.565532 -0.565531 z m 22.929902,3.109989 c -0.121544,-0.1215442 -0.221022,-0.453949 -0.221022,-0.7386129 v -0.5175905 l 2.561586,-2.5767101 2.561599,-2.5766975 -2.594152,-2.6094532 -2.594141,-2.609452 0.119289,-0.619173 0.119289,-0.619174 0.62015,-0.119414 0.620151,-0.119414 3.105766,3.09286 3.105778,3.092859 v 0.5103981 0.510385 l -3.072899,3.0601186 -3.072899,3.0601172 h -0.518693 c -0.285277,0 -0.618158,-0.099497 -0.739714,-0.2210098 z"
           id="path99489-5"
           clip-path="url(#clipPath45)"
           transform="translate(-4.9188288e-6,13.118354)" />
      </g>
    </g>
  </g>
</svg>
